<?xml version="1.0" standalone="no"?>
<!DOCTYPE svg PUBLIC "-//W3C//DTD SVG 1.1//EN" "http://www.w3.org/Graphics/SVG/1.1/DTD/svg11.dtd" >
<svg xmlns="http://www.w3.org/2000/svg" xmlns:xlink="http://www.w3.org/1999/xlink" version="1.1">
<metadata>
Created by FontForge 20170731 at Sat Aug 23 16:32:24 2014
 By Aleksey,,,
Copyright (c) 2014 by Laura Worthington. All rights reserved.
</metadata>
<defs>
<font id="Milkshake" horiz-adv-x="466" >
  <font-face 
    font-family="Milkshake"
    font-weight="400"
    font-stretch="normal"
    units-per-em="1000"
    panose-1="2 0 5 5 0 0 0 2 0 3"
    ascent="800"
    descent="-200"
    x-height="391"
    cap-height="724"
    bbox="-947 -498 1575 1049"
    underline-thickness="50"
    underline-position="-200"
    unicode-range="U+0020-F8FF"
  />
<missing-glyph horiz-adv-x="253" 
 />
    <glyph glyph-name="T_b" unicode="Tb" horiz-adv-x="932" 
d="M603 116q0 -31 12 -52t31 -21q16 0 32 13q-7 9 -7 18q0 16 18.5 32.5t31.5 16.5h3q37 77 37 151q0 32 -8 46.5t-31 14.5q-35 0 -77 -60t-42 -159zM801 609q0 20 -19 20q-27 0 -72.5 -89t-73.5 -199q55 53 110 139t55 129zM767 30q-53 -40 -121 -40q-54 0 -104.5 45
t-50.5 106q0 108 32.5 228t85.5 205l-119 32q-30 -12 -61 -160q-4 -20 -12.5 -65t-14.5 -74.5t-18 -74.5t-24 -75t-31.5 -64.5t-42 -54.5t-54.5 -34t-69 -14q-57 0 -100.5 22t-43.5 43q0 19 18 19q6 0 19.5 -2.5t23.5 -2.5q20 0 38 6t34.5 19.5t30 26.5t27 38t23.5 42
t21.5 49.5t18 49.5t17 54t14.5 51t14 51q11 42 27 74.5t31 48t27.5 25.5t20.5 12l8 2q-68 35 -182 35q-45 0 -73.5 -21t-28.5 -55q0 -27 12 -47t24.5 -31t12.5 -16q0 -19 -21 -19q-47 0 -98 37.5t-51 91.5q0 37 19.5 64t50.5 40.5t63 20t64 6.5q64 0 210 -31t223 -31
q22 0 60.5 17t52.5 17q32 0 61 -30t29 -58q0 -13 -5 -30t-13 -34t-18.5 -35t-22.5 -35t-23.5 -32.5t-23 -29t-19.5 -23.5t-14 -17l-6 -6q33 25 72 25t69 -34t30 -73q0 -117 -72 -209q30 0 59.5 17t44.5 34l14 17q8 14 20 14q8 0 14.5 -6t6.5 -14q0 -4 -2.5 -10t-4.5 -10
l-2 -4q-2 -3 -6.5 -9t-21 -21t-35 -26t-48.5 -20.5t-63 -9.5z" />
    <glyph glyph-name="T_f" unicode="Tf" horiz-adv-x="774" 
d="M803 609q0 20 -21 20q-26 0 -77 -112t-90 -248q48 36 118 164.5t70 175.5zM558 33q-8 -68 -8 -122q0 -37 6.5 -62t15.5 -34t18 -9q17 0 25.5 21t8.5 49q0 39 -16.5 78t-33.5 59zM806 113q-14 -20 -26 -33.5t-33 -31t-50.5 -26.5t-65.5 -9q6 -5 15.5 -15.5t25.5 -45
t16 -73.5q0 -42 -28.5 -79.5t-73.5 -37.5q-55 0 -101.5 42t-46.5 128q0 159 49 337.5t121 296.5q-26 6 -55.5 16t-46.5 17l-16 7q-30 -12 -61 -160q-4 -20 -12.5 -65t-14.5 -74.5t-18 -74.5t-24 -75t-31.5 -64.5t-42 -54.5t-54.5 -34t-69 -14q-57 0 -100.5 22t-43.5 43
q0 19 18 19q6 0 19.5 -2.5t23.5 -2.5q20 0 38 6t34.5 19.5t30 26.5t27 38t23.5 42t21.5 49.5t18 49.5t17 54t14.5 51t14 51q11 42 27 74.5t31 48t27.5 25.5t20.5 12l8 2q-68 35 -182 35q-45 0 -73.5 -21t-28.5 -55q0 -27 12 -47t24.5 -31t12.5 -16q0 -19 -21 -19
q-47 0 -98 37.5t-51 91.5q0 37 19.5 64t50.5 40.5t63 20t64 6.5q62 0 198 -31t226 -31q14 0 54 17t60 17q33 0 62.5 -30t29.5 -58q0 -63 -92 -209.5t-173 -211.5q-15 -42 -20 -101q23 -29 65 -29q32 0 61 15t45 31t34 40q8 14 20 14q8 0 14.5 -6t6.5 -14q0 -4 -2.5 -10
t-4.5 -10z" />
    <glyph glyph-name="T_k" unicode="Tk" horiz-adv-x="918" 
d="M818 609q0 20 -18 20q-27 0 -74.5 -83.5t-96.5 -217.5q56 50 122.5 144.5t66.5 136.5zM778 -10q-53 0 -110.5 56.5t-57.5 104.5q0 8 22.5 22.5t49 29t49 39.5t22.5 52q0 28 -23 28q-59 0 -110.5 -88.5t-51.5 -223.5q0 -20 -18 -20q-30 0 -64 13t-34 40q0 97 45.5 256
t113.5 267q-26 5 -56 15t-47 17l-18 8q-30 -12 -61 -160q-4 -20 -12.5 -65t-14.5 -74.5t-18 -74.5t-24 -75t-31.5 -64.5t-42 -54.5t-54.5 -34t-69 -14q-57 0 -100.5 22t-43.5 43q0 19 18 19q6 0 19.5 -2.5t23.5 -2.5q20 0 38 6t34.5 19.5t30 26.5t27 38t23.5 42t21.5 49.5
t18 49.5t17 54t14.5 51t14 51q11 42 27 74.5t31 48t27.5 25.5t20.5 12l8 2q-68 35 -182 35q-45 0 -73.5 -21t-28.5 -55q0 -27 12 -47t24.5 -31t12.5 -16q0 -19 -21 -19q-47 0 -98 37.5t-51 91.5q0 37 19.5 64t50.5 40.5t63 20t64 6.5q62 0 198 -31t226 -31q26 0 67 17t63 17
q32 0 60.5 -30t28.5 -58q0 -13 -4.5 -30t-13 -34t-18.5 -34.5t-22 -34.5t-23.5 -32.5t-22.5 -29t-19 -23t-14 -16.5l-6 -6q46 23 86 23q26 0 46.5 -23.5t20.5 -53.5q0 -33 -39.5 -68.5t-79.5 -54.5l-40 -19q0 -22 30.5 -57.5t71.5 -35.5q26 0 50.5 16t35.5 32l12 16
q8 14 20 14q8 0 14.5 -6t6.5 -14q0 -4 -2.5 -10t-4.5 -10l-2 -4q-3 -5 -8.5 -13.5t-24 -29.5t-37.5 -37t-47 -29.5t-55 -13.5z" />
    <glyph glyph-name="T_l" unicode="Tl" horiz-adv-x="754" 
d="M808 615q0 14 -12 14q-28 0 -84.5 -113.5t-86.5 -235.5q51 42 117 165t66 170zM614 -10q-52 0 -92.5 39.5t-40.5 98.5q0 99 38 224t97 217l-126 37q-30 -12 -61 -160q-4 -20 -12.5 -65t-14.5 -74.5t-18 -74.5t-24 -75t-31.5 -64.5t-42 -54.5t-54.5 -34t-69 -14
q-57 0 -100.5 22t-43.5 43q0 19 18 19q6 0 19.5 -2.5t23.5 -2.5q20 0 38 6t34.5 19.5t30 26.5t27 38t23.5 42t21.5 49.5t18 49.5t17 54t14.5 51t14 51q11 42 27 74.5t31 48t27.5 25.5t20.5 12l8 2q-68 35 -182 35q-45 0 -73.5 -21t-28.5 -55q0 -27 12 -47t24.5 -31t12.5 -16
q0 -19 -21 -19q-47 0 -98 37.5t-51 91.5q0 37 19.5 64t50.5 40.5t63 20t64 6.5q62 0 208 -31t236 -31q17 0 48 17t58 17q32 0 58 -27t26 -55q0 -63 -85.5 -200t-162.5 -202q-11 -54 -11 -89q0 -66 48 -66q24 0 50.5 21.5t41.5 43.5l15 21q8 14 20 14q8 0 14.5 -6t6.5 -14
q0 -4 -2.5 -10t-4.5 -10l-2 -4q-3 -5 -8.5 -13.5t-23.5 -29.5t-37 -37t-47 -29.5t-56 -13.5z" />
    <glyph glyph-name="g_j" unicode="gj" horiz-adv-x="675" 
d="M107 -285q-46 0 -79.5 28t-33.5 67q0 53 53 85.5t153 59.5q18 63 28 120q-7 -10 -20.5 -24t-50.5 -37.5t-71 -23.5q-41 0 -70.5 29.5t-29.5 74.5q0 108 73.5 202.5t156.5 94.5q36 0 63 -11.5t37 -23.5l9 -12q27 0 49 -11.5t22 -35.5q0 -20 -56 -226q-2 -8 -10 -39
t-13 -49l97 24q65 210 103 385q5 19 28 19q21 0 49.5 -22.5t28.5 -34.5q0 -42 -84 -305q94 39 136 94q10 14 22 14q9 0 15 -6t6 -14q0 -4 -3 -10l-5 -10l-3 -4q-55 -74 -186 -119q-26 -78 -53 -153q-22 -60 -40 -97t-42.5 -69t-56 -46t-73.5 -14q-52 0 -95 32t-46 69
q-1 0 -3.5 -0.5t-4.5 -0.5zM304 -64q-54 -179 -146 -212q13 -56 65 -56q73 0 158 237l18 54zM274 290q0 21 -10.5 32t-26.5 11q-42 0 -85.5 -78t-43.5 -144q0 -45 29 -45q36 0 86.5 83t50.5 141zM701 576q0 -40 -24.5 -71.5t-56.5 -31.5q-23 0 -38.5 15.5t-15.5 41.5
q0 39 25.5 70t58.5 31q22 0 36.5 -15.5t14.5 -39.5zM82 -232q53 0 101 135q-58 -20 -88.5 -47.5t-30.5 -67.5q0 -20 18 -20z" />
    <glyph glyph-name="j_j" unicode="jj" horiz-adv-x="390" 
d="M59 372q5 19 28 19q21 0 49.5 -22.5t28.5 -34.5q0 -10 -11 -60t-33.5 -132.5t-47.5 -159.5q-1 -2 -3.5 -8.5t-3.5 -10.5q15 5 40.5 12.5t35.5 10.5l4 2q65 205 109 404q5 19 28 19q21 0 49.5 -22.5t28.5 -34.5q0 -46 -87 -314q72 41 116 103q10 14 22 14q9 0 15 -6t6 -14
q0 -4 -2.5 -10t-5.5 -10l-3 -4q-63 -81 -167 -130q-32 -96 -49 -142q-22 -60 -40 -97t-42.5 -69t-56 -46t-73.5 -14q-65 0 -110 45q-26 -13 -49 -13q-46 0 -90 37t-44 76q0 76 242 163q12 30 28 83q31 101 59 231t29 135zM127 -70l-82 -27q-61 -159 -127 -219q18 -16 43 -16
q73 0 158 237zM436 596q0 -40 -24.5 -71.5t-56.5 -31.5q-23 0 -41 18.5t-18 44.5q0 33 28 64t61 31q22 0 36.5 -15.5t14.5 -39.5zM241 576q0 -40 -24.5 -71.5t-56.5 -31.5q-23 0 -38.5 15.5t-15.5 41.5q0 39 25.5 70t58.5 31q22 0 36.5 -15.5t14.5 -39.5zM-208 -282
q59 0 123 138q-150 -61 -150 -112q0 -11 8 -18.5t19 -7.5z" />
    <glyph glyph-name="y_j" unicode="yj" horiz-adv-x="681" 
d="M346 71q-4 -14 -12 -44t-12 -44l98 24q65 210 103 385q5 19 28 19q21 0 49.5 -22.5t28.5 -34.5q0 -42 -84 -305q94 39 136 94q10 14 22 14q9 0 15 -6t6 -14q0 -4 -3 -10l-5 -10l-3 -4q-55 -74 -186 -119q-26 -78 -53 -153q-22 -60 -40 -97t-42.5 -69t-56 -46t-73.5 -14
q-52 0 -95 32t-46 69q-1 0 -4 -0.5t-4 -0.5q-46 0 -79.5 28t-33.5 67q0 53 53 85.5t152 59.5q17 60 26 110q-27 -31 -64 -53t-73 -22q-37 0 -70.5 29t-33.5 68q0 48 27 138.5t51 146.5q9 19 27 19q21 0 50 -22.5t29 -34.5q0 -25 -32.5 -111.5t-32.5 -139.5q0 -30 23 -30
q22 0 46.5 22t41.5 49q27 41 52.5 137.5t31.5 110.5q9 19 28 19q21 0 49.5 -22.5t28.5 -34.5q0 -45 -64 -263zM405 -41q-14 -4 -46.5 -11.5t-49.5 -11.5q-55 -178 -145 -212q13 -56 65 -56q73 0 158 237zM707 576q0 -40 -24.5 -71.5t-56.5 -31.5q-23 0 -38.5 15.5
t-15.5 41.5q0 39 25.5 70t58.5 31q22 0 36.5 -15.5t14.5 -39.5zM88 -232q54 0 102 135q-59 -20 -89.5 -47t-30.5 -68q0 -20 18 -20z" />
    <glyph glyph-name="f_j" unicode="fj" horiz-adv-x="522" 
d="M366 372q5 19 28 19q21 0 49.5 -22.5t28.5 -34.5q0 -21 -32 -131t-54 -167q92 46 136 107q10 14 22 14q9 0 15 -6t6 -14q0 -4 -2.5 -10t-5.5 -10l-3 -4q-54 -69 -180 -128q-2 -10 -6 -26.5t-17.5 -64.5t-27.5 -91.5t-35.5 -97t-43 -91.5t-48.5 -64.5t-53 -26.5
q-24 0 -44 16.5t-20 37.5q0 22 16 44t52 56.5t50 50.5q43 100 100 335q-54 -50 -133 -50q45 -72 45 -157q0 -36 -26.5 -65t-63.5 -29q-55 0 -101.5 42t-46.5 128q0 160 48.5 339.5t125 302t150.5 122.5q33 0 62.5 -30t29.5 -58q0 -63 -92 -209.5t-173 -211.5
q-15 -42 -20 -101q23 -29 65 -29q32 0 61 15t45 31t34 40q4 7 11 11q10 43 21 95t17.5 82.5t9.5 40.5zM336 609q0 20 -21 20q-26 0 -77 -112t-90 -248q48 36 118 164.5t70 175.5zM548 576q0 -40 -24.5 -71.5t-56.5 -31.5q-23 0 -38.5 15.5t-15.5 41.5q0 39 25.5 70t58.5 31
q22 0 36.5 -15.5t14.5 -39.5zM91 33q-8 -68 -8 -122q0 -37 6.5 -62t15.5 -34t18 -9q26 0 26 46q0 39 -14.5 84t-28.5 71z" />
    <glyph glyph-name="T_h" unicode="Th" horiz-adv-x="975" 
d="M836 95q0 -38 32 -38q24 0 51 21.5t41 43.5l15 21q8 14 20 14q8 0 14.5 -6t6.5 -14q0 -4 -2 -10t-4 -10l-3 -4q-3 -5 -8.5 -13.5t-23.5 -29.5t-37 -37t-47 -29.5t-56 -13.5q-57 0 -92 30.5t-35 79.5q0 47 26 108t26 74q0 29 -22 29q-56 0 -103 -85.5t-47 -215.5
q0 -20 -18 -20q-36 0 -67 14t-31 40q0 93 45.5 253t113.5 269q-26 5 -61 15t-58 17l-22 8q-30 -12 -61 -160q-4 -20 -12.5 -65t-14.5 -74.5t-18 -74.5t-24 -75t-31.5 -64.5t-42 -54.5t-54.5 -34t-69 -14q-57 0 -100.5 22t-43.5 43q0 19 18 19q6 0 19.5 -2.5t23.5 -2.5
q20 0 38 6t34.5 19.5t30 26.5t27 38t23.5 42t21.5 49.5t18 49.5t17 54t14.5 51t14 51q11 42 27 74.5t31 48t27.5 25.5t20.5 12l8 2q-68 35 -182 35q-45 0 -73.5 -21t-28.5 -55q0 -27 12 -47t24.5 -31t12.5 -16q0 -19 -21 -19q-47 0 -98 37.5t-51 91.5q0 37 19.5 64
t50.5 40.5t63 20t64 6.5q62 0 208 -31t236 -31q26 0 66.5 17t62.5 17q32 0 61 -30t29 -58q0 -81 -134 -242q37 25 83 25q23 0 43.5 -22t20.5 -47q0 -29 -32 -107.5t-32 -119.5zM838 609q0 20 -19 20q-27 0 -74 -86.5t-97 -224.5q55 45 122.5 146t67.5 145z" />
    <glyph glyph-name=".notdef" horiz-adv-x="253" 
 />
    <glyph glyph-name=".null" horiz-adv-x="0" 
 />
    <glyph glyph-name="nonmarkingreturn" horiz-adv-x="333" 
 />
    <glyph glyph-name="space" unicode=" " horiz-adv-x="210" 
 />
    <glyph glyph-name="exclam" unicode="!" horiz-adv-x="288" 
d="M52 44q0 28 24 55t54 27q23 0 37.5 -13.5t14.5 -37.5q0 -29 -23 -56.5t-55 -27.5q-24 0 -38 14.5t-14 38.5zM238 678q0 17 28 17q26 0 61.5 -27t35.5 -54q0 -17 -29.5 -87t-72.5 -167t-62 -150q-9 -26 -28 -35q-27 -13 -52 -13q-19 0 -19 17q0 7 69 232t69 267z" />
    <glyph glyph-name="quotedbl" unicode="&#x22;" horiz-adv-x="272" 
d="M77 478q-16 0 -20.5 7t-4.5 23q0 26 22 151q7 40 61 40q53 0 53 -35q0 -10 -10.5 -34.5t-22.5 -47t-25.5 -47t-14.5 -27.5q-16 -30 -38 -30zM227 478q-16 0 -20.5 7t-4.5 23q0 26 22 151q7 40 61 40q53 0 53 -35q0 -10 -10.5 -34.5t-22.5 -47t-25.5 -47t-14.5 -27.5
q-16 -30 -38 -30z" />
    <glyph glyph-name="numbersign" unicode="#" horiz-adv-x="452" 
d="M305 476l38 105q5 15 38 15q11 0 19 -8t8 -19q0 -3 -31 -93h56q23 0 23 -18q0 -15 -8.5 -29.5t-20.5 -14.5h-71l-34 -97h49q16 0 16 -26q0 -12 -8 -23.5t-21 -11.5h-61l-34 -102q-7 -17 -32 -17q-13 0 -23.5 6.5t-10.5 16.5q0 6 31 96h-86l-41 -107q-5 -12 -37 -12
q-12 0 -19 7.5t-7 18.5q0 5 33 93h-42q-9 0 -15 6.5t-6 13.5q0 14 10.5 28t23.5 14h54l40 96h-56q-18 0 -18 21q0 14 7 27.5t20 13.5h69l41 103q6 17 36 17q12 0 20.5 -8t8.5 -19l-36 -93h77zM251 318l35 95h-78l-40 -95h83z" />
    <glyph glyph-name="dollar" unicode="$" horiz-adv-x="460" 
d="M325 563q-28 0 -46 -18.5t-18 -51.5q0 -26 19.5 -58t43 -58t43 -65t19.5 -78q0 -71 -44.5 -120t-114.5 -65l-11 -33q-8 -25 -49 -25q-51 0 -51 25l10 32q-52 11 -86 40.5t-34 70.5q0 48 46 84.5t94 36.5q15 0 15 -10q0 -4 -8.5 -15.5t-17.5 -33t-9 -50.5q0 -33 17.5 -52
t47.5 -19q29 0 47.5 22.5t18.5 58.5q0 35 -20 72.5t-44 64.5t-44 63t-20 69q0 58 44.5 106t113.5 61l13 37q8 25 49 25q51 0 51 -25l-12 -38q44 -10 65.5 -35.5t21.5 -54.5q0 -40 -43 -74.5t-75 -34.5q-15 0 -15 15q0 1 11.5 28t11.5 57q0 46 -40 46z" />
    <glyph glyph-name="percent" unicode="%" horiz-adv-x="594" 
d="M557 693q0 -15 -16 -43l-357 -639q-7 -17 -27 -17q-80 0 -80 31q0 5 6 21l361 652q11 18 26 18q33 0 60 -7t27 -16zM91 561q0 -25 17.5 -43t43.5 -18t43.5 18t17.5 43t-17.5 43t-43.5 18t-43.5 -18t-17.5 -43zM12 561q0 58 41 99.5t99 41.5t99.5 -41t41.5 -100
q0 -58 -41.5 -99t-99.5 -41t-99 41t-41 99zM422 143q0 -25 18 -43.5t44 -18.5q25 0 42.5 18t17.5 44q0 25 -17 42.5t-43 17.5t-44 -17.5t-18 -42.5zM343 143q0 58 41.5 99t99.5 41t99 -41t41 -99t-41 -99.5t-99 -41.5t-99.5 41t-41.5 100z" />
    <glyph glyph-name="ampersand" unicode="&#x26;" horiz-adv-x="713" 
d="M297 25q68 0 123 50.5t75 115.5q-65 -31 -109 -31q-73 0 -73 51q0 46 63.5 86t120.5 40q52 0 78 -25q37 47 37 81q0 29 -27 29q-15 0 -38 -13t-26 -13q-17 0 -17 16t50.5 48t91.5 32q28 0 46 -17t18 -45q0 -78 -109 -169q1 -6 1 -19q0 -94 -106.5 -182.5t-237.5 -88.5
q-59 0 -110.5 17.5t-88.5 60t-37 103.5q0 36 11.5 69t30 56.5t41 44t45.5 33.5t41.5 22.5t30.5 13.5l11 4q-8 5 -20 14t-32.5 39.5t-20.5 63.5q-140 29 -140 97q0 34 42.5 70t68.5 36q9 0 9 -9q0 -1 -9 -17.5t-9 -30.5q0 -47 53 -81q32 62 111 104.5t158 42.5q54 0 91.5 -25
t37.5 -64q0 -56 -79.5 -96t-189.5 -40h-18q0 -22 6 -42.5t12 -30.5l6 -10q28 6 69 6q59 0 59 -35q0 -16 -18.5 -31t-45.5 -15q-21 0 -41.5 4.5t-30.5 9.5l-9 5q-5 -3 -14 -8.5t-32 -25t-40 -41t-31.5 -57t-14.5 -73.5q0 -62 36 -96t100 -34zM441 681q-46 0 -90 -38t-59 -95
q86 0 143 27.5t57 70.5q0 15 -15 25t-36 10zM416 213q38 0 86 32q-3 49 -42 49q-19 0 -43 -21t-24 -41q0 -19 23 -19z" />
    <glyph glyph-name="quotesingle" unicode="'" horiz-adv-x="146" 
d="M76 478q-16 0 -20.5 7t-4.5 23q0 26 22 151q7 40 61 40q53 0 53 -35q0 -10 -10.5 -34.5t-22.5 -47t-25.5 -47t-14.5 -27.5q-16 -30 -38 -30z" />
    <glyph glyph-name="parenleft" unicode="(" horiz-adv-x="192" 
d="M327 749q20 17 32 17q9 0 15.5 -7t6.5 -15q0 -10 -21 -33q-38 -42 -75 -93.5t-75.5 -120t-62 -149.5t-23.5 -157q0 -72 11 -114t34 -84q6 -15 6 -19q0 -7 -6.5 -13t-13.5 -6t-23 13q-12 10 -28 26.5t-42.5 50t-44 80.5t-17.5 96q0 80 33 162.5t88 152.5t104 119.5
t102 93.5z" />
    <glyph glyph-name="parenright" unicode=")" horiz-adv-x="301" 
d="M34 -28q-20 -17 -32 -17q-9 0 -15.5 7t-6.5 15q0 10 21 33q38 42 75 93.5t75.5 120t62 149.5t23.5 157q0 72 -11 114t-34 84q-6 15 -6 19q0 7 6.5 13t13.5 6t23 -13q12 -10 28 -26.5t42.5 -50t44 -80.5t17.5 -96q0 -80 -33 -162.5t-88 -152.5t-104 -119.5t-102 -93.5z
" />
    <glyph glyph-name="asterisk" unicode="*" horiz-adv-x="270" 
d="M170 706q0 -3 -2 -38t-2 -43q3 2 20.5 16t30.5 22.5t21 8.5q11 0 21.5 -16.5t10.5 -29.5q0 -14 -11 -18q-53 -23 -74 -28l72 -30q13 -6 13 -20t-9.5 -29t-22.5 -15q-7 0 -34.5 16.5t-39.5 27.5q6 -60 6 -82q0 -9 -9 -17.5t-26 -8.5q-16 0 -25.5 8.5t-9.5 17.5q0 23 5 83
q-13 -14 -36 -30t-36 -16q-11 0 -22 15t-11 27q0 15 13 21q12 7 26.5 13t26.5 11t15 6q-14 7 -27 13t-24 11t-16 7q-13 6 -13 20q0 13 10.5 28.5t23.5 15.5q7 0 18 -7t29.5 -23t20.5 -18q0 8 -1.5 38t-1.5 43q0 10 9.5 17.5t25.5 7.5q17 0 26 -7.5t9 -17.5z" />
    <glyph glyph-name="plus" unicode="+" horiz-adv-x="458" 
d="M181 395v146q0 10 14.5 15.5t30.5 5.5t31.5 -5.5t15.5 -13.5v-148h146q10 0 15.5 -14.5t5.5 -30.5t-5.5 -31.5t-13.5 -15.5h-148v-145q0 -10 -15.5 -15.5t-31.5 -5.5q-15 0 -30 5.5t-15 13.5v147h-145q-10 0 -15.5 15.5t-5.5 31.5q0 15 5.5 30t13.5 15h147z" />
    <glyph glyph-name="comma" unicode="," horiz-adv-x="180" 
d="M50 51q0 23 16 38t41 15q53 0 53 -54q0 -47 -45.5 -97.5t-66.5 -50.5q-15 0 -15 13q0 6 16 33.5t16 55.5q0 9 -7.5 23t-7.5 24z" />
    <glyph glyph-name="hyphen" unicode="-" horiz-adv-x="435" 
d="M95 304q56 0 138 11.5t107 11.5q24 0 54.5 -33t30.5 -48q0 -6 -5.5 -11t-9.5 -5q-1 0 -23.5 10t-42.5 10q-52 0 -127 -26.5t-102 -26.5q-34 0 -66 47.5t-32 69.5q0 6 4 10t9 4q4 0 24.5 -12t40.5 -12z" />
    <glyph glyph-name="period" unicode="." horiz-adv-x="246" 
d="M59 44q0 28 24 55t54 27q23 0 37.5 -13.5t14.5 -37.5q0 -29 -22.5 -56.5t-55.5 -27.5q-24 0 -38 14.5t-14 38.5z" />
    <glyph glyph-name="slash" unicode="/" horiz-adv-x="363" 
d="M410 708q0 -9 -6 -23l-265 -677q-6 -14 -22 -14h-42q-34 0 -34 16q0 5 5 17l264 688q6 15 22 15q27 0 52.5 -6.5t25.5 -15.5z" />
    <glyph glyph-name="zero" unicode="0" horiz-adv-x="617" 
d="M451 705q70 0 113 -39t43 -111q0 -69 -35.5 -165t-91.5 -185.5t-136 -152.5t-158 -63q-75 0 -125.5 47.5t-50.5 136.5q0 94 44 192.5t110 172t144 120.5t143 47zM427 635q-37 0 -86.5 -44.5t-92 -111.5t-72.5 -155t-30 -167q0 -48 20.5 -75t53.5 -27q61 0 122.5 99
t97 218t35.5 194q0 33 -13 51t-35 18z" />
    <glyph glyph-name="one" unicode="1" horiz-adv-x="328" 
d="M66 446q-22 0 -38 14t-16 36q0 45 69 111q10 10 17 10q10 0 10 -10q0 -55 42 -55q15 0 32 3.5t26 6.5l9 4q2 5 7 14t19 31t28.5 39t35.5 31t40 14q20 0 35.5 -15t15.5 -34q0 -21 -22.5 -52.5t-58.5 -59.5q-25 -20 -72.5 -113.5t-87.5 -214.5t-40 -196q0 -20 -18 -20
q-20 0 -53 29t-33 54q0 20 7 49t17.5 59.5t25 66t28.5 66.5t29.5 62t26 51.5t19.5 37.5l9 17q-60 -36 -109 -36z" />
    <glyph glyph-name="two" unicode="2" horiz-adv-x="560" 
d="M432 705q80 0 130 -42t50 -113q0 -81 -98.5 -203.5t-230.5 -225.5q65 -15 113 -15q33 0 62 13t45.5 26t20.5 13q12 0 12 -10q0 -12 -21.5 -48t-63 -73t-83.5 -37q-23 0 -56.5 11.5t-54.5 21.5t-66 33q-103 -66 -160 -66q-48 0 -79 26.5t-31 63.5q0 40 33 70.5t83 30.5
q37 0 156 -35q107 89 190 214t83 217q0 32 -22 51t-54 19q-59 0 -126 -69t-67 -144q0 -25 9 -40.5t17.5 -18.5t17.5 -3q12 0 12 -10q0 -12 -23 -28t-58 -16q-43 0 -78.5 27t-35.5 70q0 49 23 95t62 80.5t87.5 61t100.5 40t101 13.5zM36 114q-21 0 -33 -8t-12 -19
q0 -14 11 -21t25 -7q36 0 91 33q-52 22 -82 22z" />
    <glyph glyph-name="three" unicode="3" horiz-adv-x="550" 
d="M412 606q3 4 7.5 10.5t18.5 24t28.5 30.5t34.5 23.5t38 10.5q22 0 35.5 -12.5t13.5 -33.5q0 -31 -33 -57t-92 -39l-105 -97q66 0 116.5 -38.5t50.5 -120.5q0 -84 -53 -159t-132 -116.5t-159 -41.5q-89 0 -147 35t-58 91q0 41 58.5 77t80.5 36q15 0 15 -11q0 -6 -8 -16
q-33 -42 -33 -76q0 -30 24 -53.5t66 -23.5q76 0 137.5 78t61.5 195q0 43 -20 67.5t-56 24.5q-26 -28 -64.5 -53t-75.5 -25q-21 0 -34 11.5t-13 30.5q0 30 36 51.5t72 28.5l36 6l91 84q-31 0 -62 2t-71 8.5t-64.5 21.5t-24.5 37q0 34 56 61t90 27q16 0 16 -13
q0 -4 -10.5 -15.5t-10.5 -21.5q0 -21 43.5 -35t99.5 -14z" />
    <glyph glyph-name="four" unicode="4" horiz-adv-x="647" 
d="M355 705q40 0 67 -19.5t27 -57.5q0 -43 -40.5 -114t-81.5 -120l-41 -50q52 -29 117 -43q46 112 100 212.5t94 139.5q24 24 67 38t64 14q9 0 9 -10q0 -3 -8 -13t-24.5 -31t-31.5 -44q-26 -40 -74 -128t-87 -183q49 9 88 39q9 7 14 7q4 0 7.5 -3.5t3.5 -6.5q0 -6 -5 -15
q-10 -17 -22.5 -34t-32 -39t-44 -37t-49.5 -19q-32 -108 -32 -180q0 -18 -17 -18q-25 0 -58.5 25.5t-33.5 58.5q0 37 37 138q-26 13 -60 33.5t-55.5 33t-30.5 12.5q-59 -41 -122 -41q-27 0 -49 19t-22 44q0 31 26.5 48t59.5 17q22 0 45 -3t35 -6l12 -3q5 5 13 14.5t28 36.5
t35.5 53.5t28.5 61t13 63.5q0 17 -10.5 28t-26.5 11q-18 0 -43 -12.5t-27 -12.5q-5 0 -10 5t-5 10q0 17 54 49t98 32z" />
    <glyph glyph-name="five" unicode="5" horiz-adv-x="515" 
d="M150 49q76 0 132 74t56 180q0 108 -95 108q-8 0 -18 -2.5t-15 -5.5l-6 -3q-6 -11 -16 -27t-38 -42.5t-52 -26.5q-21 0 -33.5 13t-12.5 32q0 21 23 43t46 34l23 11l66 137q-46 39 -46 72q0 27 18 43t41 16q26 0 42.5 -19.5t20.5 -39.5l3 -19q23 -8 46 -8q58 0 121 22.5
t102 54.5q12 9 20 9q5 0 10.5 -5t5.5 -10q0 -8 -10 -24q-32 -52 -79.5 -97t-84.5 -45q-21 0 -57 7t-61 13l-25 7l-45 -101q19 10 57 10q76 0 136 -40.5t60 -113.5q0 -84 -53 -158.5t-132 -116t-159 -41.5q-89 0 -147 35t-58 91q0 41 58.5 77t80.5 36q15 0 15 -11
q0 -6 -8 -16q-33 -42 -33 -76q0 -31 26 -54t75 -23z" />
    <glyph glyph-name="six" unicode="6" horiz-adv-x="564" 
d="M468 705q100 0 100 -65q0 -39 -40 -77.5t-62 -38.5q-19 0 -19 17q0 3 14 27.5t14 49.5q0 11 -8 19t-21 8q-56 0 -124 -64.5t-117.5 -169t-49.5 -205.5q0 -76 30 -116t74 -40q64 0 119 83t55 186q0 29 -16 44.5t-38 15.5q-66 0 -132 -66q-9 -9 -14 -9t-10 4t-5 10
q0 33 75.5 90.5t149.5 57.5q54 0 89 -30.5t35 -89.5q0 -131 -108 -243.5t-227 -112.5q-34 0 -70 12t-71 36.5t-57 70.5t-22 106q0 88 45.5 179t113.5 158.5t148.5 110t148.5 42.5z" />
    <glyph glyph-name="seven" unicode="7" horiz-adv-x="392" 
d="M150 705q13 0 13 -11q0 -2 -9 -17t-9 -27q0 -32 45.5 -52.5t137.5 -20.5q90 118 153 118q21 0 35 -13t14 -34q0 -65 -141 -122q-74 -86 -145.5 -233t-71.5 -227q0 -16 4 -37.5t4 -24.5q0 -14 -15 -14q-45 0 -86.5 31t-41.5 78q0 32 25 86.5t60.5 109t71 104.5t60.5 81
l25 31q-38 0 -61 0.5t-59.5 2.5t-58.5 7t-45 13.5t-34 22.5t-11 33q0 39 54 77t86 38z" />
    <glyph glyph-name="eight" unicode="8" horiz-adv-x="508" 
d="M404 705q58 0 113 -27t55 -72q0 -23 -15 -47t-45.5 -50.5t-60.5 -49t-75 -53.5q-19 -13 -29 -20q29 -29 44 -47t29.5 -49t14.5 -62q0 -59 -21.5 -106t-57 -75t-78 -42.5t-87.5 -14.5q-81 0 -150 38.5t-69 98.5q0 23 8 45t30 46t37.5 39t54 41.5t54 36.5t62.5 40
q-50 52 -62 75q-13 23 -13 48q0 47 43.5 86.5t92 58t80.5 18.5q22 0 22 -14q0 -10 -19 -19q-101 -44 -101 -96q0 -49 43 -101q70 49 108.5 93.5t38.5 94.5q0 34 -50 59q-14 7 -14 14q0 13 17 13zM110 98q0 -24 18 -40t43 -16q50 0 89 50t39 118q0 62 -36 113
q-153 -121 -153 -225z" />
    <glyph glyph-name="nine" unicode="9" horiz-adv-x="576" 
d="M441 705q77 0 121 -38t44 -115q0 -95 -48.5 -196.5t-124.5 -181.5t-176 -132t-197 -52q-50 0 -50 22q0 6 5.5 11t12.5 5q75 0 154 51.5t137.5 129.5t96.5 172t38 176q0 39 -19.5 61.5t-49.5 22.5q-68 0 -129.5 -79.5t-61.5 -168.5q0 -93 76 -127q20 -9 20 -20
q0 -15 -34 -15q-41 0 -85.5 17t-81 58.5t-36.5 98.5q0 50 31.5 103.5t83 97t124.5 71.5t149 28z" />
    <glyph glyph-name="colon" unicode=":" horiz-adv-x="244" 
d="M79 123q0 27 22 52t50 25q20 0 32 -13.5t12 -34.5q0 -28 -21.5 -53t-52.5 -25q-18 0 -30 14t-12 35zM129 291q0 27 22 52t50 25q19 0 31.5 -14t12.5 -34q0 -28 -22 -53t-53 -25q-18 0 -29.5 14t-11.5 35z" />
    <glyph glyph-name="semicolon" unicode=";" horiz-adv-x="235" 
d="M78 141q0 23 15.5 38t40.5 15q53 0 53 -54q0 -47 -45.5 -97.5t-66.5 -50.5q-15 0 -15 13q0 6 16 33.5t16 55.5q0 9 -7 23t-7 24zM119 311q0 27 22 52t50 25q19 0 31.5 -14t12.5 -34q0 -28 -22 -53t-53 -25q-18 0 -29.5 14t-11.5 35z" />
    <glyph glyph-name="less" unicode="&#x3c;" horiz-adv-x="312" 
d="M30 390q223 160 230 160q11 0 20 -26t9 -40q0 -10 -9 -17l-170 -114l168 -110q9 -6 9 -19t-7.5 -39.5t-19.5 -26.5q-3 0 -62.5 40t-117.5 80l-57 39q-15 12 -15 35q0 19 22 38z" />
    <glyph glyph-name="equal" unicode="=" horiz-adv-x="455" 
d="M370 233h-335q-15 0 -15 16q0 13 15.5 44.5t26.5 31.5h335q18 0 18 -14q0 -12 -17 -45t-28 -33zM390 377h-335q-15 0 -15 16q0 13 15.5 44.5t26.5 31.5h335q18 0 18 -14q0 -12 -17 -45t-28 -33z" />
    <glyph glyph-name="greater" unicode="&#x3e;" horiz-adv-x="332" 
d="M289 400q22 -19 22 -38q0 -23 -15 -35q-230 -159 -237 -159q-12 0 -19.5 26.5t-7.5 39.5t9 19l168 110l-170 114q-9 7 -9 17q0 14 9 40t20 26q3 0 60.5 -40t113.5 -80z" />
    <glyph glyph-name="question" unicode="?" horiz-adv-x="436" 
d="M279 639q-40 0 -70.5 -30t-30.5 -77q0 -29 11.5 -53t11.5 -25q0 -10 -17 -10q-42 0 -85 33t-43 78q0 63 64.5 104t156.5 41q99 0 154 -40.5t55 -116.5q0 -43 -24.5 -83.5t-61 -72t-74.5 -60t-71.5 -59t-44.5 -56.5q-10 -22 -29 -25q-15 -2 -35 -8.5t-26 -6.5t-10.5 4.5
t-4.5 11.5q0 26 24.5 61t59 71t69 75t59 86.5t24.5 92.5q0 31 -18 48t-44 17zM62 44q0 28 24 55t54 27q23 0 37.5 -13.5t14.5 -37.5q0 -29 -23 -56.5t-55 -27.5q-24 0 -38 14.5t-14 38.5z" />
    <glyph glyph-name="at" unicode="@" horiz-adv-x="687" 
d="M520 49q39 0 66 52.5t27 117.5q0 75 -57.5 120.5t-144.5 45.5q-136 0 -216 -86.5t-80 -199.5q0 -67 43 -102t118 -35q42 0 84 25q8 4 13 4q8 0 8 -12q0 -7 -17.5 -24.5t-49.5 -35t-63 -17.5q-88 0 -149.5 52t-61.5 142q0 138 105.5 242.5t265.5 104.5q112 0 187 -63.5
t75 -163.5q0 -85 -51 -155.5t-131 -70.5q-73 0 -84 75q-6 -8 -17.5 -20.5t-44 -33.5t-62.5 -21q-37 0 -62.5 26t-25.5 65q0 95 64.5 178t137.5 83q20 0 37 -4t27.5 -10t18 -12.5t10.5 -10.5l3 -4q23 0 42.5 -10.5t19.5 -30.5q0 -10 -26.5 -83t-26.5 -106q0 -22 18 -22z
M447 253q0 38 -32 38q-37 0 -75 -68.5t-38 -126.5q0 -39 26 -39q31 0 75 72.5t44 123.5z" />
    <glyph glyph-name="A" unicode="A" horiz-adv-x="976" 
d="M836 -10q-58 0 -100 39t-42 99t15 127q-23 11 -69.5 37t-64.5 36q-9 -16 -32.5 -58.5t-31.5 -56.5t-28 -48t-29.5 -45.5t-28 -36.5t-31 -34t-31.5 -24t-36 -20.5t-39 -10t-45 -4.5q-90 0 -166.5 80.5t-76.5 182.5q0 100 69 166.5t180 66.5q106 0 268 -64
q100 163 166.5 232.5t140.5 69.5q46 0 80 -29q36 22 81 22q30 0 30 -14q0 -5 -24 -33q-21 -27 -66.5 -136.5t-77.5 -218.5h12q22 0 49.5 12.5t30.5 12.5q9 0 9 -12q0 -18 -40 -55.5t-83 -45.5q-13 -63 -13 -104q0 -33 16.5 -49.5t40.5 -16.5t50.5 21.5t41.5 43.5l15 21
q8 14 20 14q8 0 14.5 -6t6.5 -14q0 -4 -2.5 -10t-4.5 -10l-2 -4q-3 -5 -8.5 -13.5t-23.5 -29.5t-37 -37t-47 -29.5t-56 -13.5zM220 91q28 0 54 12.5t47 30.5t50.5 58t51.5 75t63 102q-87 34 -162 34q-106 0 -168 -51.5t-62 -137.5q0 -54 36.5 -88.5t89.5 -34.5zM607 384
q87 -35 123 -46q48 161 138 325q-12 4 -22 4q-51 0 -98.5 -59.5t-140.5 -223.5z" />
    <glyph glyph-name="B" unicode="B" horiz-adv-x="848" 
d="M622 379q4 2 10 6t22.5 17.5t29 29.5t22.5 41.5t10 53.5q0 65 -53 102.5t-125 37.5q-134 0 -213 -64.5t-79 -159.5q0 -27 12 -47t24.5 -31t12.5 -15q0 -19 -21 -19q-48 0 -103.5 37t-55.5 91q0 72 62 134t159.5 96.5t203.5 34.5q122 0 207 -51t85 -143q0 -33 -14.5 -64
t-34.5 -51.5t-42 -37t-36 -24t-18 -8.5q4 -1 13.5 -6t28 -18.5t33.5 -31t27 -47t12 -62.5q0 -63 -36.5 -108t-86 -63.5t-105.5 -18.5q-101 0 -245 77q-68 -77 -168 -77q-64 0 -112 31.5t-48 82.5q0 52 40 85t88 33q63 0 151 -45l11 19q22 39 57 133.5t64.5 168t47.5 84.5
q61 41 122 41q17 0 17 -14q0 -3 -9 -14.5t-24 -33t-25 -44.5q-1 -3 -26 -72t-57.5 -148t-61.5 -131q-8 -15 -24 -41q101 -57 164 -57q58 0 99 38.5t41 99.5q0 46 -19.5 76t-42.5 32q-29 -12 -51 -12t-37.5 12t-15.5 31q0 21 15 33t36 12q12 0 27.5 -3t24.5 -5zM135 146
q-23 0 -38 -14.5t-15 -35.5q0 -20 17 -32.5t42 -12.5q54 0 99 63q-64 32 -105 32z" />
    <glyph glyph-name="C" unicode="C" horiz-adv-x="659" 
d="M433 -29q-103 0 -180.5 62.5t-77.5 179.5q0 53 16 112q-87 21 -139 66.5t-52 94.5q0 75 80 135.5t133 60.5q17 0 17 -11q0 -8 -19 -22q-21 -16 -34 -28t-28.5 -43t-15.5 -69q0 -84 80 -118q57 136 168.5 234.5t208.5 98.5q57 0 100 -46.5t43 -93.5q0 -40 -29 -86.5
t-79.5 -87.5t-129 -69t-166.5 -30q-12 -51 -12 -101q0 -179 149 -179q52 0 105 32t88 80q8 14 20 14q9 0 15 -6t6 -14q0 -4 -2 -10t-4 -10l-3 -4q-39 -58 -106.5 -100t-151.5 -42zM601 656q-64 0 -139 -85t-115 -200q65 2 122 27.5t93.5 63t57 79t20.5 77.5q0 17 -10.5 27.5
t-28.5 10.5z" />
    <glyph glyph-name="D" unicode="D" horiz-adv-x="928" 
d="M530 77q104 0 174.5 107t70.5 242q0 118 -69 179.5t-168 61.5q-134 0 -213 -64.5t-79 -159.5q0 -27 12 -47t24.5 -31t12.5 -15q0 -19 -21 -19q-48 0 -103.5 37.5t-55.5 91.5q0 72 62 133.5t159.5 96t203.5 34.5q60 0 121.5 -19.5t117 -57.5t90.5 -104t35 -149
q0 -101 -40.5 -193.5t-116 -151.5t-165.5 -59q-97 0 -239 72q-73 -72 -183 -72q-64 0 -112 31.5t-48 82.5q0 52 40 85t88 33q68 0 168 -52q5 8 13 26q18 39 52 136.5t62 168t46 81.5q61 41 122 41q16 0 16 -14q0 -3 -9 -14.5t-23.5 -33t-24.5 -44.5q-1 -2 -50 -137t-85 -214
q-8 -17 -26 -47q82 -42 141 -42zM135 146q-23 0 -38 -14.5t-15 -35.5q0 -20 17 -32.5t42 -12.5q67 0 115 57q-78 38 -121 38z" />
    <glyph glyph-name="E" unicode="E" horiz-adv-x="476" 
d="M258 -29q-59 0 -110.5 17.5t-88.5 60t-37 103.5q0 46 20.5 87.5t44.5 66t61 47.5t50.5 28.5t31.5 12.5l2 1q-6 2 -18 10t-30 32t-23 54q-151 13 -151 89q0 45 47 90t74 45q9 0 9 -9q0 -1 -9 -17.5t-9 -30.5q0 -47 53 -81q32 62 111 104.5t158 42.5q54 0 91.5 -25
t37.5 -64q0 -52 -79.5 -93.5t-207.5 -50.5q1 -20 7 -38.5t11 -27.5l6 -9q28 6 69 6q59 0 59 -35q0 -16 -18.5 -31t-45.5 -15q-21 0 -41.5 4.5t-30.5 9.5l-9 5q-5 -3 -14 -8.5t-32 -25t-40 -41t-31.5 -57t-14.5 -73.5q0 -124 131 -124q53 0 101.5 30t82.5 82q8 14 20 14
q9 0 15 -6t6 -14l-8 -23q-36 -60 -101 -101.5t-150 -41.5zM441 681q-46 0 -90 -38t-59 -95q86 0 143 27.5t57 70.5q0 15 -15 25t-36 10z" />
    <glyph glyph-name="F" unicode="F" horiz-adv-x="665" 
d="M574 285q0 20 -11.5 29.5t-39.5 11.5q-8 -61 -24 -113.5t-47 -106t-85.5 -85t-126.5 -31.5q-97 0 -167.5 60.5t-70.5 119.5q0 48 63 89.5t112 41.5q25 0 25 -17q0 -10 -18 -22q-27 -19 -48 -49.5t-21 -63.5q0 -39 27 -66t66 -27q134 0 192 262q-70 -7 -71 -7
q-34 0 -55 15t-21 38q0 34 38.5 63t59.5 29q10 0 10 -10q0 -2 -7.5 -16t-7.5 -28q0 -31 64 -31h1l14 85q6 37 15.5 68t18.5 48.5t17 29.5t13 16l5 5q-58 30 -172 30q-45 0 -73.5 -21t-28.5 -55q0 -27 12.5 -47t25 -31t12.5 -16q0 -19 -21 -19q-47 0 -98.5 37.5t-51.5 91.5
q0 37 19.5 64t50.5 40.5t63 20t64 6.5q60 0 120 -13t90 -27l30 -13q54 44 115 44q24 0 38.5 -12.5t14.5 -31.5q0 -23 -26.5 -42t-54.5 -19q-17 0 -25 1q-68 -27 -68 -165q0 -11 -2 -65q60 10 98 10q18 0 28.5 -1.5t20 -10t9.5 -24.5q0 -21 -37.5 -51.5t-58.5 -30.5
q-14 0 -14 12z" />
    <glyph glyph-name="G" unicode="G" horiz-adv-x="705" 
d="M616 241q-11 -107 -33 -195q82 33 122 97q8 14 20 14q9 0 15 -6t6 -14l-8 -22q-51 -79 -173 -128q-43 -128 -111.5 -200t-150.5 -72q-74 0 -124 42t-50 93q0 38 24.5 66t71 46t94 28.5t114.5 19.5l40 6q30 76 37 138q-10 -9 -26.5 -23t-62.5 -37t-85 -23q-78 0 -127 46.5
t-49 125.5q0 50 15 98q-79 17 -127 54.5t-48 90.5q0 75 75.5 135.5t127.5 60.5q17 0 17 -11q0 -9 -19 -23q-22 -17 -34 -28t-27.5 -42.5t-15.5 -68.5q0 -32 19.5 -59.5t56.5 -44.5q60 128 180.5 223.5t218.5 95.5q58 0 98 -37.5t40 -82.5q0 -92 -124 -179t-295 -95
q-10 -37 -10 -77q0 -48 21.5 -73t60.5 -25q31 0 67.5 23.5t57.5 47.5l21 23q2 5 5 14t13.5 32t22 40.5t29.5 32t36 14.5q38 0 38 -39q0 -22 -16 -47.5t-32 -39.5zM609 658q-67 0 -149 -82t-124 -190q113 11 212.5 87t99.5 146q0 18 -10.5 28.5t-28.5 10.5zM271 -222
q35 0 82 48t87 122l-16 -5q-83 -21 -137.5 -53.5t-54.5 -68.5q0 -43 39 -43z" />
    <glyph glyph-name="H" unicode="H" horiz-adv-x="959" 
d="M1007 703q0 -8 -24 -36q-22 -27 -70 -135.5t-81 -215.5h9q27 0 58.5 13.5t32.5 13.5q10 0 10 -12q0 -19 -44.5 -58.5t-88.5 -44.5q-14 -61 -14 -105q0 -66 46 -66q27 0 56.5 21.5t45.5 43.5l16 21q8 14 21 14q7 0 13.5 -5.5t6.5 -14.5q0 -4 -2.5 -10.5t-5.5 -10.5l-2 -5
q-3 -5 -8.5 -13t-24 -29t-38 -37t-49.5 -29t-61 -13q-53 0 -95 39.5t-42 98.5q0 49 16 119q-22 6 -74 23t-80 25q-45 -149 -116 -227t-185 -78q-102 0 -167.5 56t-65.5 137q0 53 27 91.5t73.5 58.5t98.5 29.5t113 9.5q55 0 115 -5q60 174 107 248q-20 0 -66 7t-61 7
q-40 0 -69 -24t-29 -58q0 -27 12.5 -47t24.5 -31t12 -15q0 -19 -21 -19q-46 0 -100 42t-54 96q0 63 54.5 97.5t118.5 34.5q68 0 130 -16t83 -16q36 51 96 51q21 0 35.5 -13.5t14.5 -31.5q0 -23 -25.5 -45.5t-50.5 -26.5q-20 -31 -88 -256q148 -25 158 -26q28 91 66.5 184
t67.5 142q21 35 61 50.5t74 15.5q29 0 29 -14zM198 58q32 0 60 15t48.5 37t41 60t33 69.5t30.5 79.5q-26 2 -39 2q-114 0 -187 -52t-73 -124q0 -37 25.5 -62t60.5 -25z" />
    <glyph glyph-name="I" unicode="I" horiz-adv-x="537" 
d="M582 724q17 0 30 -11t13 -30q0 -26 -21 -45t-46 -24q-12 -12 -22.5 -61t-34.5 -195q-28 -171 -100.5 -269.5t-194.5 -98.5q-81 0 -139.5 58.5t-58.5 111.5q0 20 15 20q6 0 16 -12q48 -74 119 -74q160 0 233 277q19 71 38 130.5t29 84.5l10 24q-10 -2 -26 -7t-57 -25
t-72.5 -45t-57.5 -69.5t-26 -96.5q0 -45 35 -73q16 -14 16 -19q0 -13 -20 -13q-43 0 -94.5 45.5t-51.5 108.5q0 44 25.5 82.5t64 65t91 49t98.5 35.5t95 23q39 53 94 53z" />
    <glyph glyph-name="J" unicode="J" horiz-adv-x="584" 
d="M420 371q20 71 35 120t20 63l5 13q-9 -5 -24.5 -13.5t-54.5 -37.5t-69 -61t-54.5 -82.5t-24.5 -102.5q0 -44 35 -74q16 -13 16 -18q0 -13 -20 -13q-44 0 -95 45t-51 109q0 32 14 63.5t33.5 56t54.5 52t61.5 45t71 41.5t67 34.5t64.5 30.5q20 26 32.5 40.5t31 28
t34.5 13.5q23 0 37.5 -13t14.5 -32q0 -26 -23 -48t-48 -28q-33 -33 -63 -260q-25 -188 -56 -303q73 32 120 103q8 14 20 14q9 0 15 -6t6 -14l-9 -24q-57 -91 -170 -134q-86 -264 -262 -264q-75 0 -129.5 44.5t-54.5 95.5q0 34 19.5 58t70 40.5t80.5 22.5t107 18q20 3 30 5
q38 104 113 372zM148 -228q66 0 134 163q-80 -18 -131.5 -49t-51.5 -66q0 -20 15 -34t34 -14z" />
    <glyph glyph-name="K" unicode="K" horiz-adv-x="904" 
d="M936 113q-3 -5 -8.5 -13.5t-23.5 -29.5t-36.5 -37t-46 -29.5t-53.5 -13.5q-44 0 -73.5 15.5t-43.5 46.5t-19 64.5t-5 81.5q0 82 -31 116h-1h-36q-11 -56 -22 -95t-31.5 -86t-46.5 -75.5t-67 -48t-93 -19.5q-87 0 -159.5 59t-72.5 114t62 96.5t113 41.5q10 0 17.5 -4.5
t7.5 -10.5q0 -9 -20 -29q-22 -20 -42.5 -51.5t-20.5 -62.5q0 -37 22 -59t52 -22q28 0 51.5 12t43 38.5t33.5 51t28.5 67.5t22 68t20.5 72q23 83 43.5 141.5t29.5 75.5l9 16q-5 0 -13.5 -0.5t-32.5 -3t-46.5 -8t-49.5 -16.5t-46 -26.5t-32.5 -40.5t-13.5 -56q0 -44 35 -74
q16 -11 16 -18q0 -13 -20 -13q-46 0 -100.5 39t-54.5 101q0 47 37.5 83.5t97.5 57t122 31t123 12.5q39 52 88 52q23 0 36 -12t13 -32q0 -25 -24 -44.5t-51 -25.5q-5 -5 -8.5 -14.5t-8.5 -32t-8.5 -43t-11.5 -65t-15 -80.5q26 11 50 30t49 49.5t39 48.5t40 56q59 86 104 121
t91 35q20 0 40 -17.5t20 -28.5q0 -13 -15 -13q-78 0 -152 -131q-36 -63 -50.5 -87t-43 -57t-58.5 -48q41 -26 55 -125q16 -125 76 -125q43 0 88 60q8 14 20 14q8 0 14.5 -6t6.5 -14q0 -4 -2.5 -10t-4.5 -10z" />
    <glyph glyph-name="L" unicode="L" horiz-adv-x="874" 
d="M906 113q-3 -5 -8 -13.5t-23.5 -29.5t-38.5 -37t-51 -29.5t-63 -13.5q-47 0 -97.5 22t-80 43.5t-84.5 65.5q-92 -131 -236 -131q-93 0 -159 56t-66 131q0 66 48.5 107.5t114.5 41.5q93 0 229 -68q7 15 45 103q-125 18 -213 77t-88 131q0 71 52.5 108.5t121.5 37.5
q86 0 160 -74q14 -14 14 -24q0 -6 -4 -11t-9 -5q-9 0 -26 12q-47 34 -96 34q-78 0 -78 -69q0 -54 51 -98.5t141 -58.5l9 18q71 154 135.5 219.5t148.5 65.5q66 0 106 -40.5t40 -89.5q0 -83 -93.5 -154t-238.5 -83q-38 -106 -65 -161q59 -33 95 -50.5t85 -33.5t88 -16
q66 0 102 47q8 14 20 14q8 0 14.5 -6t6.5 -14q0 -4 -2.5 -10t-4.5 -10zM186 68q97 0 173 129q-78 49 -146 49q-55 0 -87 -26t-32 -71q0 -34 26.5 -57.5t65.5 -23.5zM777 659q-45 0 -84.5 -48.5t-96.5 -186.5q87 20 151 82t64 119q0 13 -9.5 23.5t-24.5 10.5z" />
    <glyph glyph-name="M" unicode="M" horiz-adv-x="1083" 
d="M976 57q24 0 51 21.5t41 43.5l15 21q8 14 20 14q8 0 14.5 -6t6.5 -14q0 -4 -2 -10t-4 -10l-3 -4q-3 -5 -8.5 -13.5t-23.5 -29.5t-37 -37t-47 -29.5t-56 -13.5q-54 0 -98 39.5t-44 98.5q0 131 110 388q-84 -106 -243 -447q-13 -29 -46 -54t-47 -25q-25 0 -49 35t-24 78
q0 27 14 174.5t14 193.5q-16 -52 -26 -83.5t-30 -88t-37 -93t-41.5 -81.5t-48 -71.5t-53.5 -45t-61 -18.5q-87 0 -160 59t-73 114t62 96.5t113 41.5q25 0 25 -15q0 -12 -20 -29q-23 -17 -43 -48t-20 -66q0 -32 20.5 -52.5t49.5 -20.5q53 0 130 111.5t131.5 243t54.5 194.5
q0 20 -13 32.5t-39 12.5q-52 0 -120.5 -60t-68.5 -127q0 -27 12.5 -49.5t25 -35.5t12.5 -17q0 -20 -21 -20q-47 0 -103 42.5t-56 96.5q0 59 54 113.5t132.5 85.5t151.5 31q35 0 74 -17.5t70.5 -58.5t31.5 -95q0 -75 -12.5 -233.5t-12.5 -173.5q7 12 53.5 102.5t109.5 200.5
t121 187q60 81 197 81q29 0 29 -14q0 -8 -25 -36q-38 -48 -112.5 -243.5t-74.5 -300.5q0 -66 57 -66z" />
    <glyph glyph-name="N" unicode="N" horiz-adv-x="855" 
d="M716 69q-13 -29 -46 -54t-48 -25q-23 0 -45 34t-27 79q-13 115 -13 360q-15 -49 -25 -81t-29.5 -86.5t-36 -91.5t-42 -81t-50 -70.5t-56.5 -44.5t-65 -18q-87 0 -160 59t-73 114t62 96.5t113 41.5q25 0 25 -15q0 -12 -20 -29q-63 -52 -63 -114q0 -32 20.5 -52.5
t49.5 -20.5q53 0 130 111.5t131.5 243t54.5 194.5q0 20 -13 32.5t-39 12.5q-52 0 -120.5 -60t-68.5 -127q0 -27 12.5 -49.5t25 -35.5t12.5 -17q0 -20 -21 -20q-47 0 -103 42.5t-56 96.5q0 59 54 113.5t132.5 85.5t151.5 31q35 0 73.5 -17.5t70.5 -58.5t34 -95q1 -29 3 -95
t3.5 -109t6 -100t10.5 -100q3 9 26 83.5t48.5 147.5t58 153.5t68 131t66.5 50.5q41 0 79 -23t38 -43q0 -19 -18 -19q-44 0 -87.5 -45.5t-79 -120t-63 -146.5t-53.5 -148t-38 -101z" />
    <glyph glyph-name="O" unicode="O" horiz-adv-x="577" 
d="M381 724q97 0 162.5 -64t65.5 -161q0 -114 -50.5 -231t-143 -197.5t-198.5 -80.5q-88 0 -152 66.5t-64 165.5q0 127 58.5 245t147 187.5t174.5 69.5zM409 669q-59 0 -107.5 -57t-48.5 -135q0 -44 21.5 -72t49.5 -28q8 0 15 2t9 2q12 0 12 -12q0 -7 -8 -16t-28.5 -17
t-48.5 -8q-42 0 -78.5 41.5t-36.5 100.5q-4 -9 -10.5 -25.5t-17 -75t-10.5 -124.5q0 -88 35 -140.5t82 -52.5q65 0 122.5 85t89 206.5t31.5 236.5q0 41 -21 65t-52 24z" />
    <glyph glyph-name="P" unicode="P" horiz-adv-x="814" 
d="M588 239q-73 0 -73 25q0 7 4.5 12t10.5 5q84 0 151 65t67 161q0 73 -53 116t-147 43q-137 0 -215 -56t-78 -148q0 -27 12.5 -47t25 -31t12.5 -15q0 -19 -21 -19q-48 0 -103.5 37t-55.5 91q0 72 62 129t158.5 87t204.5 30q150 0 241.5 -65t91.5 -162q0 -59 -30.5 -109.5
t-76.5 -82t-96 -49t-92 -17.5zM458 573q21 21 64 35.5t60 14.5q19 0 19 -14q0 -3 -8.5 -13t-23 -31t-25.5 -48q-31 -76 -62 -214q-38 -172 -96.5 -242.5t-148.5 -70.5q-97 0 -167.5 60.5t-70.5 119.5q0 48 63 89.5t112 41.5q25 0 25 -16q0 -11 -18 -23q-28 -19 -48.5 -49.5
t-20.5 -63.5q0 -39 27 -66t66 -27q95 0 160 266q29 122 46 170t47 81z" />
    <glyph glyph-name="Q" unicode="Q" horiz-adv-x="642" 
d="M545 571q0 44 -26 70t-66 26q-84 0 -160 -57.5t-120 -145.5t-44 -177q0 -39 17.5 -61t46.5 -22q53 0 92.5 73.5t39.5 148.5q0 31 -13.5 56t-13.5 26q0 6 6.5 11.5t11.5 5.5q32 0 71.5 -37.5t39.5 -82.5q0 -88 -77.5 -171.5t-175.5 -83.5q-60 0 -117 42.5t-57 119.5
q0 69 36 142.5t96 133t146 98t177 38.5q98 0 163 -59t65 -142q0 -136 -110 -279t-255 -217q7 -5 39 -29.5t42.5 -31.5t34.5 -21.5t41.5 -19t36.5 -4.5q32 0 65 16.5t35 16.5q15 0 15 -13q0 -22 -52 -78.5t-96 -56.5q-27 0 -59.5 20.5t-56 43.5t-63 64.5t-58.5 60.5
q-57 -18 -103 -18q-41 0 -68.5 16.5t-27.5 47.5q0 23 23 40.5t57 17.5q62 0 129 -40q115 70 204 224.5t89 287.5z" />
    <glyph glyph-name="R" unicode="R" horiz-adv-x="875" 
d="M735 -10q-118 0 -149 82q-15 40 -15 141q0 43 -20 67q-27 -3 -55 -3h-20q-38 -157 -95 -222t-144 -65q-97 0 -167.5 60.5t-70.5 119.5q0 57 62 99t113 42q11 0 18 -5t7 -11q0 -10 -18 -23q-22 -17 -43 -52t-21 -68q0 -39 24.5 -67.5t63.5 -28.5q93 0 160 266
q30 122 47 170t46 81q21 21 64 35.5t60 14.5q19 0 19 -14q0 -3 -8.5 -13t-23 -31t-25.5 -48q-30 -75 -55 -180q98 2 169 60.5t71 139.5q0 129 -181 129q-135 0 -214 -53t-79 -132q0 -27 12.5 -47t25 -31t12.5 -15q0 -19 -21 -19q-48 0 -103.5 37t-55.5 91q0 61 61.5 114
t159.5 83t204 30q148 0 231 -54t83 -138q0 -79 -65.5 -141.5t-164.5 -92.5q37 -23 46 -85q12 -84 31.5 -120t56.5 -36q24 0 51 21.5t41 43.5l15 21q8 14 20 14q8 0 14.5 -6t6.5 -14q0 -4 -2 -10t-4 -10l-3 -4q-3 -5 -8.5 -13.5t-23.5 -29.5t-37 -37t-47 -29.5t-56 -13.5z
" />
    <glyph glyph-name="S" unicode="S" horiz-adv-x="584" 
d="M502 665q-51 0 -85.5 -34t-34.5 -79q0 -41 23 -90.5t50 -88t50 -86.5t23 -88q0 -86 -75 -147.5t-168 -61.5q-120 0 -194 59t-74 128q0 39 38.5 76.5t85.5 58t81 20.5q17 0 17 -17q0 -9 -21 -24q-22 -18 -33 -28.5t-22.5 -33.5t-11.5 -50q0 -43 34 -80t85 -37
q57 0 92 33.5t35 89.5q0 33 -22.5 77.5t-49 82t-49 88t-22.5 93.5q0 88 81.5 143t179.5 55q60 0 99.5 -21t39.5 -61q0 -48 -54.5 -97.5t-86.5 -49.5q-7 0 -12 5t-5 10q0 7 13 24q42 54 42 90q0 19 -13.5 30t-35.5 11z" />
    <glyph glyph-name="T" unicode="T" horiz-adv-x="467" 
d="M37 74q6 0 19.5 -2.5t23.5 -2.5q20 0 38 6t34.5 19.5t30 26.5t27 38t23.5 42t21.5 49.5t18 49.5t17 54t14.5 51t14 51q11 42 27 74.5t31 48t27.5 25.5t20.5 12l8 2q-68 35 -182 35q-45 0 -73.5 -21t-28.5 -55q0 -27 12 -47t24.5 -31t12.5 -16q0 -19 -21 -19
q-47 0 -98 37.5t-51 91.5q0 37 19.5 64t50.5 40.5t63 20t64 6.5q62 0 171 -16.5t199 -16.5q45 0 74 8.5t40.5 16.5t14.5 8q9 0 15 -6t6 -14q0 -21 -45.5 -68t-92.5 -47q-28 0 -57 4.5t-44 8.5l-15 4q-30 -12 -61 -160q-4 -20 -12.5 -65t-14.5 -74.5t-18 -74.5t-24 -75
t-31.5 -64.5t-42 -54.5t-54.5 -34t-69 -14q-57 0 -100.5 22t-43.5 43q0 19 18 19z" />
    <glyph glyph-name="U" unicode="U" horiz-adv-x="836" 
d="M696 -10q-56 0 -101 39.5t-45 98.5q0 23 2 36q-118 -174 -245 -174q-56 0 -97.5 34.5t-41.5 80.5q0 54 48.5 157t97 204.5t48.5 152.5q0 45 -43 45q-53 0 -125.5 -60t-72.5 -127q0 -27 12.5 -49.5t25 -35.5t12.5 -17q0 -20 -21 -20q-47 0 -103.5 42.5t-56.5 96.5
q0 59 59.5 113.5t142 85.5t156.5 31q62 0 101 -29t39 -76q0 -44 -28.5 -118t-63 -140t-63 -137t-28.5 -111q0 -43 44 -43q71 0 234 240q26 93 67 191t71 150q21 35 61 50.5t74 15.5q29 0 29 -14q0 -8 -24 -36q-39 -48 -113.5 -243t-74.5 -301q0 -33 16 -49.5t40 -16.5
t50.5 21.5t41.5 43.5l15 21q8 14 20 14q8 0 14.5 -6t6.5 -14q0 -4 -2.5 -10t-4.5 -10l-2 -4q-3 -5 -8.5 -13.5t-23.5 -29.5t-37 -37t-47 -29.5t-56 -13.5z" />
    <glyph glyph-name="V" unicode="V" horiz-adv-x="739" 
d="M419 121q119 106 219.5 261t100.5 281q0 13 -4 29.5t-4 18.5q0 13 12 13q33 0 77 -31t44 -69q0 -60 -41.5 -141t-110 -163t-136.5 -152t-140 -134q-50 -44 -68 -44q-21 0 -51 38t-30 72q0 73 66 266t66 253q0 19 -11 32t-32 13q-49 0 -103 -41t-88.5 -98.5t-34.5 -105.5
q0 -26 7.5 -48t17 -32.5t17 -19t7.5 -12.5q0 -19 -21 -19q-46 0 -107 46.5t-61 101.5q0 67 68.5 136t161 110.5t165.5 41.5q60 0 98 -32.5t38 -81.5q0 -74 -61 -257.5t-61 -231.5z" />
    <glyph glyph-name="W" unicode="W" horiz-adv-x="1003" 
d="M929 621q0 25 -3 45t-6 31t-3 14q0 13 12 13q34 0 80 -31t46 -69q0 -92 -30.5 -203t-79.5 -206.5t-118.5 -160t-138.5 -64.5q-31 0 -55.5 12t-37.5 28.5t-21 33.5t-10 29l-3 12q-4 -5 -11.5 -12.5t-30 -27.5t-45.5 -35t-55 -27.5t-61 -12.5q-50 0 -86.5 30t-36.5 79
q0 46 28.5 119.5t63.5 139t63.5 139.5t28.5 122q0 19 -11 32t-32 13q-62 0 -144 -87t-82 -158q0 -26 7.5 -48t17 -32.5t17 -19t7.5 -12.5q0 -19 -21 -19q-46 0 -107 46.5t-61 101.5q0 67 68.5 136t161 110.5t165.5 41.5q63 0 99.5 -31.5t36.5 -91.5q0 -51 -42.5 -148.5
t-85 -193t-42.5 -141.5q0 -19 12 -31t31 -12q23 0 57.5 27.5t57.5 55.5l23 27q1 7 2 18t6.5 44t13 63t20.5 66.5t28.5 62.5t38.5 44t50 18q25 0 40.5 -15.5t15.5 -38.5q0 -44 -35 -114.5t-70 -119.5l-35 -49q0 -4 1.5 -9.5t6 -20.5t10.5 -26.5t17 -21t24 -9.5
q62 0 119.5 91.5t90.5 217t33 235.5z" />
    <glyph glyph-name="X" unicode="X" horiz-adv-x="861" 
d="M721 -10q-79 0 -130 45.5t-51 117.5v89q-106 -149 -149 -193q-57 -59 -101 -59q-87 0 -160 59t-73 114t62 96.5t114 41.5q24 0 24 -15q0 -11 -20 -30q-63 -57 -63 -113q0 -34 16.5 -51t43.5 -17q29 0 58.5 16t70 59.5t72 82t94.5 120.5q2 3 3.5 4.5t3 4t3.5 4.5
q-1 74 -1 241q0 30 -10 43.5t-37 13.5q-51 0 -110.5 -55t-59.5 -122q0 -27 12.5 -49.5t25 -36t12.5 -17.5q0 -19 -21 -19q-47 0 -103 42t-56 96q0 60 52 112t127.5 80.5t148.5 28.5q62 0 103 -31.5t43 -82.5q1 -9 1.5 -38t0.5 -42q159 194 247 194q27 0 54.5 -25t27.5 -40
q0 -20 -20 -20q-126 0 -308 -224v-205q0 -68 24 -110.5t62 -42.5q24 0 51 21.5t41 43.5l15 21q8 14 20 14q8 0 14.5 -6t6.5 -14q0 -4 -2 -10t-4 -10l-3 -4q-3 -5 -8.5 -13.5t-23.5 -29.5t-37 -37t-47 -29.5t-56 -13.5z" />
    <glyph glyph-name="Y" unicode="Y" horiz-adv-x="773" 
d="M805 113q-51 -85 -195 -135q-48 -130 -109.5 -196.5t-156.5 -66.5q-75 0 -129.5 44.5t-54.5 95.5q0 22 10 40t24.5 31t42 24t49.5 18t60.5 13.5t62.5 10t67 8.5q5 0 8 1q30 75 66 187q-107 -102 -197 -102q-52 0 -95 35.5t-43 81.5q0 40 23 98.5t50.5 108.5t50.5 109
t23 100q0 45 -43 45q-53 0 -125.5 -60t-72.5 -127q0 -27 12.5 -49.5t25 -35.5t12.5 -17q0 -20 -21 -20q-46 0 -98 42t-52 97q0 59 56.5 113.5t137 85.5t154.5 31q61 0 103.5 -33t42.5 -81q0 -58 -32 -132t-63.5 -140t-31.5 -103q0 -25 12.5 -41.5t34.5 -16.5q29 0 67.5 30
t65 61.5t50.5 65.5l12 37q34 106 56 155t66 125q21 36 56.5 51t68.5 15q29 0 29 -14q0 -8 -24 -36q-21 -26 -64 -117.5t-71 -185.5q-93 -317 -96 -328q98 37 143 107q8 14 20 14q8 0 14.5 -6t6.5 -14q0 -4 -2 -10t-4 -10zM308 -228q41 0 77 41t73 126q-85 -16 -142 -49
t-57 -70q0 -20 15 -34t34 -14z" />
    <glyph glyph-name="Z" unicode="Z" horiz-adv-x="612" 
d="M644 113q-3 -5 -8.5 -13.5t-24 -29.5t-38 -37t-50.5 -29.5t-63 -13.5q-55 0 -121.5 23t-125.5 23q-32 0 -75 -24t-55 -24q-25 0 -54.5 29t-29.5 57q0 53 299 359q176 179 204 198q-18 0 -87 8.5t-113 8.5q-47 0 -76.5 -19t-29.5 -52q0 -27 12.5 -47t25 -31t12.5 -16
q0 -19 -21 -19q-48 0 -106.5 40t-58.5 94q0 52 53.5 89t130.5 37q78 0 171 -10t104 -10q24 0 60 10t52 10q19 0 44.5 -23t25.5 -34q0 -14 -25 -29q-66 -41 -287 -273q-59 -62 -122.5 -132.5t-96.5 -110.5l-34 -39q77 36 162 36q44 0 109.5 -11.5t102.5 -11.5q31 0 56.5 12
t35.5 24l10 11q8 14 20 14q8 0 14.5 -6t6.5 -14q0 -4 -2.5 -10t-4.5 -10z" />
    <glyph glyph-name="bracketleft" unicode="[" horiz-adv-x="219" 
d="M-2 -45v774q0 28 26 28h152q2 0 5.5 -0.5t9.5 -6t6 -15.5q0 -28 -24 -28h-65v-728h65q24 0 24 -28q0 -10 -5.5 -15.5t-10.5 -5.5l-5 -1q-123 1 -152 1q-26 0 -26 25z" />
    <glyph glyph-name="backslash" unicode="\" horiz-adv-x="337" 
d="M-19 705q0 9 25.5 15.5t52.5 6.5q16 0 22 -15l244 -685q5 -12 5 -17q0 -16 -34 -16h-42q-16 0 -22 14l-245 674q-6 14 -6 23z" />
    <glyph glyph-name="bracketright" unicode="]" horiz-adv-x="275" 
d="M225 731v-774q0 -27 -26 -27l-152 -1q-2 0 -5.5 0.5t-9.5 6t-6 15.5q0 28 24 28h65v728h-65q-24 0 -24 28q0 10 5 15.5t11 5.5l5 1h152q26 0 26 -26z" />
    <glyph glyph-name="asciicircum" unicode="^" horiz-adv-x="411" 
d="M244 635q160 -223 160 -230q0 -11 -26 -20t-40 -9q-10 0 -17 9l-114 170l-110 -168q-6 -9 -19 -9t-39.5 7.5t-26.5 19.5q0 3 39.5 62.5t79.5 116.5l40 58q12 15 35 15q19 0 38 -22z" />
    <glyph glyph-name="underscore" unicode="_" horiz-adv-x="635" 
d="M578 -109h-533q-15 0 -15 16q0 13 10.5 34.5t21.5 21.5h533q18 0 18 -14q0 -12 -12 -35t-23 -23z" />
    <glyph glyph-name="grave" unicode="`" horiz-adv-x="202" 
d="M63 656q16 0 24 -20q14 -35 41.5 -72t49.5 -50q16 -9 16 -19q0 -15 -18 -15q-23 0 -66.5 20.5t-74.5 47.5q-24 20 -24 42q0 16 20 41t32 25z" />
    <glyph glyph-name="a" unicode="a" horiz-adv-x="475" 
d="M507 113q-3 -5 -8.5 -13.5t-23.5 -29.5t-37 -37t-47 -29.5t-56 -13.5q-43 0 -71.5 22t-33.5 63q-7 -10 -20.5 -24t-50.5 -37.5t-71 -23.5q-41 0 -70.5 29.5t-29.5 74.5q0 108 73.5 202.5t156.5 94.5q36 0 63 -11.5t37 -23.5l9 -12q27 0 49 -11.5t22 -35.5
q0 -10 -29 -91.5t-29 -120.5q0 -12 7.5 -20t20.5 -8q24 0 51 21.5t41 43.5l15 21q8 14 20 14q8 0 14.5 -6t6.5 -14q0 -4 -2.5 -10t-4.5 -10zM275 290q0 21 -10 32t-26 11q-42 0 -85.5 -78t-43.5 -144q0 -45 29 -45q36 0 86 83t50 141z" />
    <glyph glyph-name="b" unicode="b" horiz-adv-x="445" 
d="M477 113q-2 -3 -6.5 -9t-21 -21t-35 -26t-48.5 -20.5t-63 -9.5q-22 0 -34 2q-51 -39 -120 -39q-54 0 -104.5 45t-50.5 106q0 119 36.5 246.5t103 218t139.5 90.5q32 0 61 -30t29 -58q0 -13 -5 -30t-13 -34t-18.5 -35t-22.5 -35t-23.5 -32.5t-23 -29t-19.5 -23.5t-14 -17
l-6 -6q33 25 72 25t69 -34t30 -73q0 -118 -72 -208q3 -1 10 -1q30 0 59.5 17t43.5 34l15 17q8 14 20 14q8 0 14.5 -6t6.5 -14q0 -4 -2 -10t-4 -10zM106 116q0 -31 12 -52t31 -21q16 0 33 14q-8 8 -8 17q0 16 18.5 32.5t31.5 16.5h3q37 77 37 151q0 32 -8 46.5t-31 14.5
q-35 0 -77 -60t-42 -159zM304 609q0 20 -19 20q-27 0 -72.5 -89t-73.5 -199q55 53 110 139t55 129z" />
    <glyph glyph-name="c" unicode="c" horiz-adv-x="370" 
d="M402 113q-3 -5 -9.5 -13.5t-28.5 -29.5t-46.5 -37t-62.5 -29.5t-78 -13.5q-74 0 -127.5 37.5t-53.5 114.5q0 97 72 173t152 76q50 0 82 -30t32 -67q0 -25 -20 -50.5t-40 -25.5t-35.5 12.5t-15.5 29.5q0 19 20 35.5t20 25.5q0 8 -8.5 14.5t-20.5 6.5q-43 0 -79 -59.5
t-36 -128.5q0 -50 27.5 -76t71.5 -26q40 0 78 22.5t56 45.5l18 23q10 14 22 14q9 0 15 -6t6 -14q0 -4 -2.5 -10t-5.5 -10z" />
    <glyph glyph-name="d" unicode="d" horiz-adv-x="539" 
d="M282 319q-11 16 -28 16q-46 0 -91 -77.5t-45 -142.5q0 -57 37 -57q19 0 46.5 21t45.5 41l18 21q1 71 17 178zM389 277q18 29 44.5 73.5t70.5 137t44 131.5q0 17 -14 17q-26 0 -72.5 -114.5t-72.5 -244.5zM399 -10q-51 0 -87 33t-40 65q-9 -11 -25 -27.5t-59 -43.5
t-80 -27q-45 0 -79.5 35t-34.5 88q0 114 80 196t158 82q17 0 33 -4t23 -8l7 -4q38 135 97 228t124 93q31 0 59 -29.5t28 -63.5q0 -43 -55 -143t-110 -178l-55 -79q-4 -23 -4 -50q0 -43 13.5 -69.5t40.5 -26.5q24 0 50.5 21.5t40.5 43.5l15 21q8 14 20 14q8 0 14.5 -6
t6.5 -14q0 -4 -2 -10t-4 -10l-3 -4q-3 -5 -8.5 -13.5t-23.5 -29.5t-37 -37t-47 -29.5t-56 -13.5z" />
    <glyph glyph-name="e" unicode="e" horiz-adv-x="357" 
d="M120 185q50 0 90 49t40 86q0 20 -18 20q-39 0 -75.5 -56t-36.5 -99zM389 113q-3 -5 -8.5 -13.5t-26 -29.5t-44 -37t-62.5 -29.5t-82 -13.5q-76 0 -125 41.5t-49 105.5q0 107 70.5 180.5t143.5 73.5q45 0 77.5 -32t32.5 -73q0 -20 -8 -43.5t-25.5 -48t-51.5 -40.5t-78 -16
l-38 6q0 -43 25.5 -68t62.5 -25q42 0 80.5 23t56.5 46l17 23q8 14 20 14q8 0 14.5 -6t6.5 -14q0 -4 -2 -10t-4 -10z" />
    <glyph glyph-name="f" unicode="f" horiz-adv-x="307" 
d="M91 33q-8 -68 -8 -122q0 -37 6.5 -62t15.5 -34t18 -9q17 0 25.5 21t8.5 49q0 39 -16.5 78t-32.5 59zM336 609q0 20 -21 20q-26 0 -77 -112t-90 -248q48 36 118 164.5t70 175.5zM339 113q-14 -20 -25.5 -32.5t-33 -30.5t-51 -27.5t-65.5 -9.5q6 -5 15.5 -15.5t25.5 -45
t16 -73.5q0 -42 -28.5 -79.5t-73.5 -37.5q-55 0 -101.5 42t-46.5 128q0 160 48.5 339.5t125 302t150.5 122.5q33 0 62.5 -30t29.5 -58q0 -63 -92 -209.5t-173 -211.5q-15 -42 -20 -101q23 -29 65 -29q32 0 61 15t45 31t34 40q8 14 20 14q8 0 14.5 -6t6.5 -14q0 -4 -2 -10
t-4 -10z" />
    <glyph glyph-name="g" unicode="g" horiz-adv-x="460" 
d="M396 297q0 -20 -56 -226l-9 -33q86 46 129 105q10 14 22 14q9 0 15 -6t6 -14q0 -4 -2.5 -10t-5.5 -10l-3 -4q-51 -69 -175 -130q-14 -55 -29 -95.5t-39.5 -83.5t-60.5 -66t-81 -23q-46 0 -79.5 28t-33.5 67q0 93 214 175q12 48 20 90q-7 -10 -20.5 -24t-50.5 -37.5
t-71 -23.5q-41 0 -70.5 29.5t-29.5 74.5q0 108 73.5 202.5t156.5 94.5q36 0 63 -11.5t37 -23.5l9 -12q27 0 49 -11.5t22 -35.5zM274 290q0 21 -10.5 32t-26.5 11q-42 0 -85.5 -78t-43.5 -144q0 -45 29 -45q36 0 86.5 83t50.5 141zM82 -232q58 0 109 158q-54 -30 -90.5 -72
t-36.5 -66q0 -20 18 -20z" />
    <glyph glyph-name="h" unicode="h" horiz-adv-x="488" 
d="M348 -10q-57 0 -92 30.5t-35 79.5q0 40 26 104t26 78q0 29 -22 29q-56 0 -103 -85.5t-47 -215.5q0 -20 -18 -20q-36 0 -67 14t-31 40q0 66 25.5 173t66.5 215t104.5 186t128.5 78q32 0 61 -30t29 -58q0 -37 -35 -99t-59.5 -94t-39.5 -49q4 3 13.5 8t30 11t39.5 6
q23 0 43.5 -22t20.5 -47q0 -29 -32 -107.5t-32 -119.5q0 -38 32 -38q24 0 50.5 21.5t41.5 43.5l15 21q8 14 20 14q8 0 14.5 -6t6.5 -14q0 -4 -2.5 -10t-4.5 -10l-2 -4q-3 -5 -8.5 -13.5t-23.5 -29.5t-37 -37t-47 -29.5t-56 -13.5zM351 609q0 20 -19 20q-27 0 -74 -86.5
t-97 -224.5q55 45 122.5 146t67.5 145z" />
    <glyph glyph-name="i" unicode="i" horiz-adv-x="253" 
d="M258 576q0 -40 -24.5 -71.5t-56.5 -31.5q-23 0 -38.5 15.5t-15.5 41.5q0 39 25.5 70t58.5 31q22 0 36.5 -15.5t14.5 -39.5zM114 95q0 -38 32 -38q24 0 50.5 21.5t41.5 43.5l15 21q8 14 20 14q8 0 14.5 -6t6.5 -14q0 -4 -2 -10t-4 -10l-3 -4q-3 -5 -8.5 -13.5t-23.5 -29.5
t-37 -37t-47 -29.5t-56 -13.5q-57 0 -92 30.5t-35 79.5q0 47 26 129t52 143q9 19 27 19q21 0 50 -22.5t29 -34.5q0 -25 -28 -105.5t-28 -133.5z" />
    <glyph glyph-name="j" unicode="j" horiz-adv-x="215" 
d="M59 372q7 19 28 19t49.5 -22.5t28.5 -34.5q0 -41 -82 -285q-1 -3 -4 -13q92 46 136 107q10 14 22 14q9 0 15 -6t6 -14q0 -4 -3 -10l-5 -10l-3 -4q-58 -74 -188 -132q-20 -58 -40 -100t-48.5 -82.5t-65.5 -62t-81 -21.5q-46 0 -79.5 28t-33.5 67q0 101 234 176q7 21 16 52
q41 135 98 334zM241 576q0 -40 -24.5 -71.5t-56.5 -31.5q-23 0 -38.5 15.5t-15.5 41.5q0 39 25.5 70t58.5 31q22 0 36.5 -15.5t14.5 -39.5zM-204 -232q68 0 128 156q-60 -29 -101.5 -70.5t-41.5 -69.5q0 -16 15 -16z" />
    <glyph glyph-name="k" unicode="k" 
d="M498 113q-3 -5 -8.5 -13.5t-24 -29.5t-37.5 -37t-47 -29.5t-55 -13.5q-54 0 -118.5 57t-64.5 104q0 8 22.5 22.5t49 29t49 39.5t22.5 52q0 28 -23 28q-59 0 -110.5 -88.5t-51.5 -223.5q0 -20 -18 -20q-30 0 -64 13t-34 40q0 70 25.5 178t67 215t105 183.5t128.5 76.5
q32 0 60.5 -30t28.5 -58q0 -13 -4.5 -30t-13 -34t-18.5 -34.5t-22 -34.5t-23.5 -32.5t-22.5 -29t-19 -23t-14 -16.5l-6 -6q46 23 86 23q26 0 46.5 -23.5t20.5 -53.5q0 -33 -40 -68.5t-80 -54.5l-39 -19q0 -20 38 -56.5t79 -36.5q26 0 50.5 16t35.5 32l12 16q8 14 20 14
q8 0 14.5 -6t6.5 -14q0 -4 -2.5 -10t-4.5 -10zM351 609q0 20 -18 20q-27 0 -74.5 -83.5t-96.5 -217.5q56 50 122.5 144.5t66.5 136.5z" />
    <glyph glyph-name="l" unicode="l" horiz-adv-x="286" 
d="M321 615q0 14 -12 14q-28 0 -84.5 -113.5t-86.5 -235.5q51 42 117 165t66 170zM146 -10q-62 0 -107 41t-45 109q0 101 42.5 231t112.5 227.5t138 97.5q32 0 58 -27t26 -55q0 -63 -85.5 -200t-162.5 -202q-8 -41 -8 -76t17 -57t47 -22q24 0 50.5 21.5t41.5 43.5l15 21
q8 14 20 14q8 0 14.5 -6t6.5 -14q0 -4 -2.5 -10t-4.5 -10l-2 -4q-3 -5 -8.5 -13.5t-23.5 -29.5t-37 -37t-47 -29.5t-56 -13.5z" />
    <glyph glyph-name="m" unicode="m" horiz-adv-x="684" 
d="M417 100q0 50 25.5 113t25.5 80q0 19 -18 19t-47.5 -34t-52.5 -91q-42 -101 -42 -177q0 -20 -22 -20q-40 0 -67 15.5t-27 39.5q0 46 29.5 136t29.5 110q0 21 -18 21q-43 0 -88.5 -85t-45.5 -217q0 -20 -22 -20q-40 0 -67 15.5t-27 39.5q0 116 81 317q8 19 27 19
q35 0 70 -54q8 7 22 17.5t50.5 28.5t66.5 18q57 0 82 -74q9 8 23.5 20.5t54.5 33t72 20.5q27 0 51 -23.5t24 -49.5q0 -24 -31 -101.5t-31 -121.5q0 -38 32 -38q24 0 50.5 21.5t41.5 43.5l15 21q8 14 20 14q8 0 14.5 -6t6.5 -14q0 -4 -2.5 -10t-4.5 -10l-2 -4
q-3 -5 -8.5 -13.5t-23.5 -29.5t-37 -37t-47 -29.5t-56 -13.5q-57 0 -92 30.5t-35 79.5z" />
    <glyph glyph-name="n" unicode="n" horiz-adv-x="489" 
d="M350 95q0 -38 32 -38q24 0 51 21.5t41 43.5l15 21q8 14 20 14q8 0 14.5 -6t6.5 -14q0 -4 -2 -10t-4 -10l-3 -4q-3 -5 -8.5 -13.5t-23.5 -29.5t-37 -37t-47 -29.5t-56 -13.5q-56 0 -91.5 29t-35.5 72q0 44 25.5 115.5t25.5 98.5q0 7 -6 11.5t-14 4.5q-51 0 -102.5 -89
t-51.5 -222q0 -20 -22 -20q-40 0 -67 15.5t-27 39.5q0 116 81 317q8 19 27 19q35 0 70 -54q8 7 22.5 17.5t55.5 28.5t79 18q32 0 58.5 -28t26.5 -58q0 -29 -26.5 -101t-26.5 -109z" />
    <glyph glyph-name="o" unicode="o" horiz-adv-x="445" 
d="M477 113q-2 -3 -6.5 -9t-21 -21t-35 -26t-48.5 -20.5t-63 -9.5q-18 0 -39 3q-51 -40 -114 -40t-109.5 41.5t-46.5 99.5q0 118 73 189t159 71q64 0 105.5 -40t41.5 -108q0 -87 -62 -166q10 -2 16 -2q30 0 59.5 17t43.5 34l15 17q8 14 20 14q8 0 14.5 -6t6.5 -14
q0 -4 -2 -10t-4 -10zM112 106q0 -30 13 -49t35 -19q16 0 31 12q-17 11 -17 24q0 16 18.5 32.5t31.5 16.5q5 0 11 -2q31 77 31 156q0 63 -39 63q-37 0 -76 -70t-39 -164z" />
    <glyph glyph-name="p" unicode="p" horiz-adv-x="465" 
d="M497 113q-2 -3 -6.5 -9t-21 -21t-35 -26t-48.5 -20.5t-63 -9.5q-9 0 -31 2q-50 -39 -107 -39q-28 0 -53 12.5t-36 25.5l-11 13q-18 -47 -36 -138.5t-18 -147.5q0 -22 -19 -22q-35 0 -63 17t-28 54q0 52 50.5 251t90.5 307q8 19 28 19q34 0 69 -54q8 7 21.5 17.5t48 28.5
t60.5 18q51 0 85.5 -39.5t34.5 -85.5q0 -43 -19 -95.5t-52 -94.5q3 -1 9 -1q30 0 59.5 17t43.5 34l15 17q8 14 20 14q8 0 14.5 -6t6.5 -14q0 -4 -2 -10t-4 -10zM111 122q0 -31 15.5 -54t39.5 -23q16 0 33 15q-5 7 -5 14q0 15 17.5 31.5t31.5 17.5q43 88 43 151q0 49 -34 49
q-39 0 -90 -73.5t-51 -127.5z" />
    <glyph glyph-name="q" unicode="q" horiz-adv-x="463" 
d="M275 -205q51 70 51 130q0 11 -4 22.5t-8 17.5l-4 6q-11 -34 -19.5 -78t-12.5 -71zM274 290q0 21 -10.5 32t-26.5 11q-42 0 -85.5 -78t-43.5 -144q0 -45 29 -45q36 0 86.5 83t50.5 141zM349 -11q41 -43 41 -94q0 -36 -67 -108t-95 -72q-20 0 -35 18.5t-15 43.5q0 33 6 78
t12.5 76t17.5 80.5t14 63.5q-7 -10 -20.5 -24t-50.5 -37.5t-71 -23.5q-41 0 -70.5 29.5t-29.5 74.5q0 108 73.5 202.5t156.5 94.5q36 0 63 -11.5t37 -23.5l9 -12q27 0 49 -11.5t22 -35.5q0 -9 -11 -49t-28 -102t-27 -108q30 0 63 26t51 52l19 27q8 14 20 14q8 0 14.5 -6
t6.5 -14q0 -4 -2 -10t-4 -10l-3 -4q-7 -11 -19.5 -29t-50.5 -51.5t-76 -43.5z" />
    <glyph glyph-name="r" unicode="r" horiz-adv-x="393" 
d="M253 92q0 -35 33 -35q24 0 51 21.5t41 43.5l15 21q8 14 20 14q8 0 14.5 -6t6.5 -14q0 -4 -2 -10t-4 -10l-3 -4q-3 -5 -8.5 -13.5t-23.5 -29.5t-37 -37t-47 -29.5t-56 -13.5q-56 0 -91.5 29t-35.5 71q0 38 16 78.5t31.5 69.5t15.5 40q0 9 -15 15t-30 7l-15 2
q-43 -109 -97 -189q-11 -15 -22 -15q-8 0 -14.5 7t-6.5 14q0 6 11 24q58 84 87 178q-33 24 -33 74q0 29 19.5 51.5t38.5 22.5q20 0 41 -18t21 -34q0 -14 -6.5 -32.5t-6.5 -25.5q0 -21 42 -21q25 0 49.5 6.5t33.5 6.5q18 0 29.5 -14t11.5 -34q0 -18 -37 -92t-37 -119z" />
    <glyph glyph-name="s" unicode="s" horiz-adv-x="409" 
d="M159 267q-74 -113 -74 -126q0 -49 12 -81.5t37 -32.5q23 0 39.5 25t16.5 59q0 27 -15.5 82t-15.5 74zM441 113q-3 -5 -9.5 -14t-31 -31.5t-54 -39.5t-80.5 -31t-108 -14q-70 0 -125.5 49.5t-55.5 97.5q0 26 24 46t48 27l24 7q21 33 67 104q63 94 104 94q15 0 32 -14.5
t17 -22.5q0 -5 -12 -28t-12 -38q0 -42 19.5 -93.5t19.5 -79.5q0 -23 -6 -42t-12 -26l-5 -8q35 9 66 31t45 39l13 17q8 14 20 14q8 0 14.5 -6t6.5 -14q0 -4 -2 -10t-4 -10z" />
    <glyph glyph-name="t" unicode="t" horiz-adv-x="272" 
d="M165 57q24 0 50.5 21.5t41.5 43.5l15 21q8 14 20 14q8 0 14.5 -6t6.5 -14q0 -4 -2.5 -10t-4.5 -10l-2 -4q-3 -5 -8.5 -13.5t-23.5 -29.5t-37 -37t-47 -29.5t-56 -13.5q-51 0 -96.5 34.5t-45.5 84.5q0 83 64 273h-27q-8 0 -8 9t10 22t20 13h20q33 90 58 134q9 19 27 19
q22 0 50 -23t28 -37q0 -3 -33 -93h67q8 0 8 -9q0 -8 -10.5 -21.5t-19.5 -13.5h-62q-70 -189 -70 -273q0 -22 15.5 -37t37.5 -15z" />
    <glyph glyph-name="u" unicode="u" horiz-adv-x="488" 
d="M349 95q0 -38 32 -38q24 0 50.5 21.5t41.5 43.5l15 21q8 14 20 14q8 0 14.5 -6t6.5 -14q0 -4 -2.5 -10t-4.5 -10l-2 -4q-3 -5 -8.5 -13.5t-23.5 -29.5t-37 -37t-47 -29.5t-56 -13.5q-97 0 -121 75q-27 -31 -64 -53t-73 -22q-37 0 -70.5 29t-33.5 68q0 48 27 138.5
t51 146.5q9 19 27 19q21 0 50 -22.5t29 -34.5q0 -25 -32.5 -111.5t-32.5 -139.5q0 -30 23 -30t49 22.5t39 48.5q12 23 42.5 122.5t41.5 125.5q9 19 28 19q21 0 49.5 -22.5t28.5 -34.5q0 -25 -28.5 -105.5t-28.5 -133.5z" />
    <glyph glyph-name="v" unicode="v" horiz-adv-x="416" 
d="M448 113q-2 -3 -6.5 -9t-21 -21t-35 -26t-48.5 -20.5t-63 -9.5q-50 0 -101 22q-93 -59 -137 -59q-17 0 -33.5 22t-16.5 48q0 130 78 312q9 19 27 19q21 0 50 -27t29 -40q0 -30 -32.5 -110t-32.5 -113q0 -27 17 -27q6 0 14 5v5q0 16 18.5 32.5t31.5 16.5h1q87 120 87 238
q0 20 21 20q26 0 53 -24.5t27 -56.5q0 -38 -40 -100t-96 -112q27 -23 59 -23q30 0 59.5 17t44.5 34l14 17q8 14 20 14q8 0 14.5 -6t6.5 -14q0 -4 -2.5 -10t-4.5 -10z" />
    <glyph glyph-name="w" unicode="w" horiz-adv-x="673" 
d="M705 113q-2 -3 -6.5 -9t-21 -21t-35 -26t-48.5 -20.5t-63 -9.5q-31 0 -68 8q-56 -45 -115 -45q-32 0 -61.5 20t-42.5 40l-14 20q-3 -3 -7.5 -8.5t-19.5 -19.5t-30.5 -24.5t-38 -19t-44.5 -8.5q-37 0 -70.5 29t-33.5 68q0 48 27 138.5t51 146.5q9 19 27 19q21 0 50 -22.5
t29 -34.5q0 -25 -32.5 -111.5t-32.5 -139.5q0 -30 23 -30t51.5 29.5t46.5 73.5q15 38 41 115.5t35 100.5q9 19 28 19q21 0 49.5 -22.5t28.5 -34.5q0 -24 -31 -112t-31 -143q0 -30 26 -30q16 0 34 13q-4 5 -4 12q0 15 18 31.5t31 17.5q58 109 58 248q0 20 21 20
q25 0 52.5 -24.5t27.5 -56.5q0 -50 -25.5 -111.5t-67.5 -112.5q18 -11 38 -11q30 0 59.5 17t43.5 34l15 17q8 14 20 14q8 0 14.5 -6t6.5 -14q0 -4 -2 -10t-4 -10z" />
    <glyph glyph-name="x" unicode="x" horiz-adv-x="454" 
d="M119 279q-35 -89 -87 -166q-11 -15 -22 -15q-8 0 -14.5 7t-6.5 14q0 6 11 24q58 84 87 178q10 31 46.5 50.5t69.5 19.5q36 0 50.5 -37t18.5 -129q23 30 36 63.5t13 50.5q0 16 41.5 34t56.5 18q19 0 19 -18q0 -22 -54 -91.5t-110 -111.5q7 -113 73 -113q24 0 50.5 21.5
t41.5 43.5l15 21q8 14 20 14q8 0 14.5 -6t6.5 -14q0 -4 -2.5 -10t-4.5 -10l-2 -4q-3 -5 -8.5 -13.5t-23.5 -29.5t-37 -37t-47 -29.5t-56 -13.5q-119 0 -148 104q-106 -104 -151 -104q-14 0 -14 15t17 45t32 33q44 10 107 60q-15 131 -17 137q-3 11 -9 11q-7 0 -12 -12z" />
    <glyph glyph-name="y" unicode="y" 
d="M346 71l-12 -45q82 48 132 117q10 14 22 14q9 0 15 -6t6 -14q0 -4 -2.5 -10t-5.5 -10l-3 -4q-62 -83 -179 -144q-15 -53 -30 -91.5t-39.5 -79t-59 -62t-77.5 -21.5q-46 0 -79.5 28t-33.5 67q0 47 51.5 82t157.5 77q9 32 22 96q-27 -31 -64 -53t-73 -22q-37 0 -70.5 29
t-33.5 68q0 48 27 138.5t51 146.5q9 19 27 19q21 0 50 -22.5t29 -34.5q0 -22 -32.5 -112t-32.5 -139q0 -30 23 -30q22 0 48 22.5t40 48.5q13 24 26.5 60.5t21.5 62t20.5 70t15.5 55.5q5 19 28 19q21 0 49.5 -22.5t28.5 -34.5q0 -45 -64 -263zM88 -232q57 0 103 139
q-52 -30 -86.5 -64t-34.5 -55q0 -20 18 -20z" />
    <glyph glyph-name="z" unicode="z" horiz-adv-x="470" 
d="M95 225q-39 -78 -63 -112q-11 -15 -22 -15q-8 0 -14.5 7t-6.5 14q0 6 11 24q58 84 87 178q13 42 34.5 56t58.5 14q35 0 82.5 -9.5t68.5 -9.5q18 0 39.5 9.5t26.5 9.5q14 0 27.5 -19.5t13.5 -36.5q0 -12 -45.5 -49.5t-113.5 -91t-102 -87.5q49 0 103.5 -25t82.5 -25
q24 0 50.5 21.5t41.5 43.5l15 21q8 14 20 14q8 0 14.5 -6t6.5 -14q0 -4 -2.5 -10t-4.5 -10l-2 -4q-3 -5 -8.5 -13.5t-23.5 -29.5t-37 -37t-47 -29.5t-56 -13.5q-27 0 -69 9.5t-76 9.5q-26 0 -59 -9.5t-42 -9.5q-17 0 -32.5 17t-15.5 32q0 18 46 59t109 92.5t87 80.5
q-19 0 -55.5 10t-56.5 10q-21 0 -37 -15t-34 -51z" />
    <glyph glyph-name="braceleft" unicode="{" horiz-adv-x="271" 
d="M48 380q64 33 101 129q7 17 18.5 48.5t16.5 43.5t13.5 31t16.5 31t18 23q30 33 73.5 47.5t72.5 14.5q20 0 20 -14q0 -11 -23 -19q-27 -9 -45 -27.5t-32 -56.5q-12 -31 -21.5 -78.5t-21.5 -77.5q-12 -32 -47 -62t-64 -44l-28 -14q6 -4 14.5 -11t23 -30t14.5 -47
q0 -45 -39.5 -120t-39.5 -116q0 -33 20 -53q14 -14 14 -21q0 -15 -19 -15q-44 0 -78 32t-34 85q0 44 27.5 112.5t27.5 110.5q0 21 -15 41t-15 24q0 17 31 33z" />
    <glyph glyph-name="bar" unicode="|" horiz-adv-x="260" 
d="M180 699v-730q0 -22 -48 -22q-52 0 -52 24v728q0 25 49 25q51 0 51 -25z" />
    <glyph glyph-name="braceright" unicode="}" horiz-adv-x="271" 
d="M342 310q-64 -33 -101 -129q-7 -17 -18.5 -48.5t-16.5 -43.5t-13.5 -31t-16.5 -31t-18 -23q-30 -33 -73.5 -47.5t-72.5 -14.5q-20 0 -20 14q0 11 23 19q27 9 45 27.5t32 56.5q12 31 21.5 78.5t21.5 77.5q12 32 47 62t64 44l28 14q-6 4 -14.5 11t-23 30t-14.5 47
q0 45 39.5 120t39.5 116q0 33 -20 53q-14 14 -14 21q0 15 19 15q44 0 78 -32t34 -85q0 -44 -27.5 -112.5t-27.5 -110.5q0 -21 15 -41t15 -24q0 -17 -31 -33z" />
    <glyph glyph-name="asciitilde" unicode="~" 
d="M114 279q-25 0 -53 -16l-28 -16q-12 0 -12 11q0 20 24 52q20 27 44.5 41t65.5 14q36 0 93 -27t92 -27q26 0 47 8.5t32.5 17t14.5 8.5q12 0 12 -11q0 -26 -33 -62q-16 -17 -26 -26t-29.5 -17.5t-41.5 -8.5q-32 0 -97 29.5t-105 29.5z" />
    <glyph glyph-name="exclamdown" unicode="&#xa1;" horiz-adv-x="288" 
d="M314 509q0 -28 -24 -55t-54 -27q-23 0 -37.5 13.5t-14.5 37.5q0 29 23 56.5t55 27.5q24 0 38 -14.5t14 -38.5zM128 -125q0 -17 -28 -17q-26 0 -61.5 27t-35.5 54q0 17 29.5 87t72.5 167t62 150q9 26 28 35q27 13 52 13q19 0 19 -17q0 -7 -69 -232t-69 -267z" />
    <glyph glyph-name="cent" unicode="&#xa2;" horiz-adv-x="355" 
d="M260 368v-25q38 -5 57 -21.5t19 -39.5q0 -17 -9.5 -26.5t-22.5 -9.5q-11 0 -18.5 8t-7.5 21q0 18 -18 22v-214q23 6 47 23q18 13 24 13q14 0 14 -13t-23 -35q-31 -31 -62 -44v-37q0 -11 -9.5 -18.5t-24.5 -7.5q-14 0 -26.5 7t-12.5 18v20h-10q-74 0 -120.5 37t-46.5 102
q0 74 48 128t129 66v26q0 12 11.5 19t24.5 7q15 0 26 -7t11 -19zM146 169q0 -52 41 -79v174q-41 -50 -41 -95z" />
    <glyph glyph-name="sterling" unicode="&#xa3;" horiz-adv-x="439" 
d="M289 590q-33 0 -53.5 -33t-20.5 -88q0 -41 -2 -105h50q17 0 17 -14q0 -12 -11.5 -34t-22.5 -22h-39q-12 -121 -47 -172q20 2 34 2q21 0 60.5 -2.5t51.5 -2.5q31 0 45 7t31 27q13 16 20 16q15 0 15 -18q0 -42 -41.5 -99t-106.5 -57q-34 0 -83.5 13t-81.5 13
q-12 0 -32 -10.5t-31 -10.5q-15 0 -27 23.5t-12 42.5q0 10 24 40t35 67q9 31 12 121h-47q-14 0 -14 15q0 13 10 34t21 21h31v26q0 125 54.5 194t151.5 69q86 0 129 -31.5t43 -77.5q0 -52 -45 -97.5t-82 -45.5q-15 0 -15 17q0 1 10.5 40t10.5 71q0 61 -42 61z" />
    <glyph glyph-name="yen" unicode="&#xa5;" horiz-adv-x="465" 
d="M125 -5q-24 0 -37 7t-14 14l-1 7l28 139h-77q-12 2 -12 31q0 12 6 20.5t12 10.5l5 3h78l10 46h-87q-12 12 -12 30q0 14 6 23t12 11l5 2h81l-100 273q0 4 1 9.5t10 15t26 9.5q27 0 43.5 -7.5t19.5 -14.5l3 -8l75 -205l139 205q2 4 6 9t24 14t48 9q34 0 34 -25l-2 -12
l-202 -272h71q2 0 5.5 -1t9 -9t5.5 -22q0 -15 -8 -23.5t-16 -9.5l-7 -1h-90l-10 -46h103q16 0 16 -33q0 -14 -7.5 -22t-14.5 -9l-8 -1h-100l-28 -139q-1 -3 -3 -7.5t-14 -12.5t-32 -8z" />
    <glyph glyph-name="brokenbar" unicode="&#xa6;" horiz-adv-x="125" 
d="M23 -157v295q0 11 27.5 23t40.5 12q14 0 14 -18v-295q0 -11 -26 -21.5t-40 -10.5q-16 0 -16 15zM23 293v295q0 11 27.5 23t40.5 12q14 0 14 -18v-295q0 -11 -26 -21.5t-40 -10.5q-16 0 -16 15z" />
    <glyph glyph-name="section" unicode="&#xa7;" horiz-adv-x="377" 
d="M295 607q32 0 52 -15t20 -39t-13 -38t-33 -14q-18 0 -29 8.5t-14 19.5t-8 19.5t-14 8.5q-18 0 -26.5 -14.5t-8.5 -35.5q0 -23 18.5 -51.5t40 -53.5t40 -67.5t18.5 -89.5q0 -106 -75.5 -188.5t-177.5 -82.5q-37 0 -56 15t-19 40q0 23 15.5 37t33.5 14q15 0 25 -9t14 -19.5
t10.5 -19.5t14.5 -9q34 0 34 53q0 23 -18.5 54t-41.5 58.5t-41.5 71t-18.5 87.5q0 104 78.5 182t179.5 78zM162 501q-17 -14 -32.5 -45t-15.5 -69q0 -30 17 -64.5t37.5 -61.5t37.5 -63.5t17 -70.5l-7 -50q5 6 13 16.5t21.5 40.5t13.5 58q0 33 -27.5 78t-55 92t-27.5 86
q0 14 2 27.5t4 19.5z" />
    <glyph glyph-name="dieresis" unicode="&#xa8;" horiz-adv-x="298" 
d="M21 530q0 27 21 52t48 25q19 0 30.5 -13.5t11.5 -34.5q0 -28 -20.5 -53t-50.5 -25q-17 0 -28.5 14t-11.5 35zM166 530q0 27 21 52t48 25q19 0 30.5 -13.5t11.5 -34.5q0 -28 -20.5 -53t-50.5 -25q-17 0 -28.5 14t-11.5 35z" />
    <glyph glyph-name="copyright" unicode="&#xa9;" horiz-adv-x="500" 
d="M329 357q20 0 20 -29q0 -20 -31 -29.5t-64 -9.5q-68 0 -109.5 36t-41.5 106q0 65 44 106t115 41q28 0 54.5 -10t26.5 -21q0 -40 -19 -40q-3 0 -22.5 9t-37.5 9q-45 0 -71.5 -24.5t-26.5 -67.5t25 -68t69 -25q24 0 44.5 8.5t24.5 8.5zM12 434q0 96 69.5 165.5t166.5 69.5
t167 -69.5t70 -165.5q0 -98 -69.5 -167.5t-167.5 -69.5q-97 0 -166.5 70t-69.5 167zM71 434q0 -75 51.5 -126.5t125.5 -51.5q75 0 127 51.5t52 126.5q0 74 -52 125.5t-127 51.5q-74 0 -125.5 -51.5t-51.5 -125.5z" />
    <glyph glyph-name="ordfeminine" unicode="&#xaa;" horiz-adv-x="330" 
d="M322 524q-2 -3 -5.5 -8t-14.5 -18.5t-22.5 -23.5t-29 -18t-34.5 -8q-26 0 -44 13.5t-21 38.5q-5 -6 -13 -14.5t-31 -23t-44 -14.5q-25 0 -43 18t-18 46q0 67 45.5 125t96.5 58q22 0 39 -7.5t23 -14.5l5 -7q16 0 30 -7.5t14 -21.5q0 -7 -18 -57t-18 -74q0 -7 5 -12t12 -5
q15 0 31.5 13.5t25.5 26.5l9 13q5 9 13 9q5 0 9 -4t4 -9zM179 633q0 26 -22 26q-26 0 -53 -48t-27 -89q0 -27 18 -27q22 0 53 51t31 87z" />
    <glyph glyph-name="guillemotleft" unicode="&#xab;" horiz-adv-x="551" 
d="M238 543q18 16 31 16t32.5 -20t19.5 -35q0 -10 -16 -26q-108 -98 -151 -144q-26 -28 -26 -50q0 -18 22 -42q52 -57 156 -155q15 -14 15 -26q0 -14 -18.5 -34t-33.5 -20q-13 0 -26 11q-103 92 -179 173q-14 15 -20.5 23.5t-15 28t-8.5 40.5q0 8 1 16t2 13t4.5 12.5
t4.5 10.5t7 11l7.5 10t10 12.5t10.5 12.5q33 40 171 162zM448 543q18 16 31 16t32.5 -20t19.5 -35q0 -10 -16 -26q-108 -98 -151 -144q-26 -28 -26 -50q0 -18 22 -42q52 -57 156 -155q15 -14 15 -26q0 -14 -18.5 -34t-33.5 -20q-13 0 -26 11q-103 92 -179 173
q-14 15 -20.5 23.5t-15 28t-8.5 40.5q0 8 1 16t2 13t4.5 12.5t4.5 10.5t7 11l7.5 10t10 12.5t10.5 12.5q33 40 171 162z" />
    <glyph glyph-name="registered" unicode="&#xae;" horiz-adv-x="491" 
d="M6 434q0 97 69 166.5t166 69.5t167 -69.5t70 -166.5t-69.5 -166t-167.5 -69q-97 0 -166 69t-69 166zM62 434q0 -74 53 -125.5t126 -51.5q74 0 126.5 51.5t52.5 125.5t-52.5 126.5t-126.5 52.5q-73 0 -126 -52.5t-53 -126.5zM146 320v238q0 10 11 12q51 6 71 6
q56 0 88 -23q26 -18 26 -56q0 -39 -37 -64q18 -16 25 -44l20 -66q1 -2 1 -5q0 -11 -11 -11h-38q-2 0 -5 2.5t-3 3.5q-10 14 -22 61q-10 38 -44 39h-23v-93q0 -13 -11 -13h-36q-12 0 -12 13zM205 460h25q24 0 38 9t14 24q0 33 -53 33q-17 0 -24 -2v-64z" />
    <glyph glyph-name="macron" unicode="&#xaf;" horiz-adv-x="359" 
d="M301 487h-255q-16 0 -16 16q0 14 9.5 37t21.5 23h255q11 0 15 -3t4 -12q0 -14 -11 -37.5t-23 -23.5z" />
    <glyph glyph-name="degree" unicode="&#xb0;" horiz-adv-x="242" 
d="M75 515q0 -19 13.5 -33t33.5 -14q19 0 32.5 13.5t13.5 33.5q0 19 -13 32.5t-33 13.5t-33.5 -13.5t-13.5 -32.5zM15 515q0 44 31.5 75.5t75.5 31.5t75.5 -31.5t31.5 -75.5t-31.5 -75.5t-75.5 -31.5t-75.5 31.5t-31.5 75.5z" />
    <glyph glyph-name="plusminus" unicode="&#xb1;" horiz-adv-x="496" 
d="M400 1h-365q-15 0 -15 16q0 13 15.5 44.5t26.5 31.5h365q18 0 18 -14q0 -12 -17 -45t-28 -33zM201 385v146q0 10 14.5 15.5t30.5 5.5t31.5 -5.5t15.5 -13.5v-148h146q10 0 15.5 -14.5t5.5 -30.5t-5.5 -31.5t-13.5 -15.5h-148v-145q0 -10 -15.5 -15.5t-31.5 -5.5
q-15 0 -30 5.5t-15 13.5v147h-145q-10 0 -15.5 15.5t-5.5 31.5q0 15 5.5 30t13.5 15h147z" />
    <glyph glyph-name="twosuperior" unicode="&#xb2;" horiz-adv-x="403" 
d="M299 706q56 0 86 -25t30 -72t-56.5 -115t-134.5 -127q28 -6 57 -6q20 0 35.5 6.5t24 13t10.5 6.5q10 0 10 -9q0 -15 -32 -54t-67 -39q-29 0 -103 38q-62 -38 -96 -38q-28 0 -46.5 15.5t-18.5 37.5q0 24 20 42t49 18q21 0 95 -18q62 54 109.5 126t47.5 125
q0 18 -12.5 29.5t-31.5 11.5q-35 0 -74.5 -40.5t-39.5 -84.5q0 -37 26 -37q7 0 7 -6q0 -7 -13.5 -16.5t-34.5 -9.5q-25 0 -46 16t-21 41q0 71 71.5 121t148.5 50zM66 358q-26 0 -26 -16t21 -16t53 19q-33 13 -48 13z" />
    <glyph glyph-name="threesuperior" unicode="&#xb3;" horiz-adv-x="379" 
d="M264 648q4 6 11.5 16t27 26t36.5 16q14 0 23 -7.5t9 -20.5q0 -41 -67 -55l-61 -58q39 0 68.5 -22.5t29.5 -70.5q0 -75 -69 -131t-144 -56q-52 0 -86 20.5t-34 53.5q0 28 35.5 48.5t52.5 20.5q13 0 13 -10q0 -5 -6 -11q-19 -17 -19 -42q0 -18 14.5 -31.5t38.5 -13.5
q44 0 75.5 45.5t31.5 115.5q0 25 -11.5 39.5t-32.5 14.5q-46 -52 -78 -52q-15 0 -23.5 8.5t-8.5 22.5q0 17 21 29.5t42 16.5l21 4l54 50q-131 0 -131 40q0 21 33 36.5t53 15.5q10 0 10 -8q0 -2 -6.5 -8.5t-6.5 -12.5q0 -12 25.5 -20.5t58.5 -8.5z" />
    <glyph glyph-name="acute" unicode="&#xb4;" horiz-adv-x="197" 
d="M143 642q12 0 31.5 -25t19.5 -41q0 -22 -24 -42q-29 -25 -73.5 -39.5t-72.5 -14.5q-18 0 -18 15q0 10 16 19q46 28 97 108q12 20 24 20z" />
    <glyph glyph-name="paragraph" unicode="&#xb6;" horiz-adv-x="464" 
d="M5 500q0 54 34.5 92t82.5 53.5t103 15.5h207q13 0 18.5 -7.5t5.5 -28.5q0 -34 -23 -34h-46v-575q0 -10 -12.5 -16.5t-24.5 -6.5q-13 0 -24.5 6.5t-11.5 16.5v575h-56v-575q0 -10 -12.5 -16.5t-24.5 -6.5q-14 0 -26.5 6.5t-12.5 16.5v319q-75 2 -126 46t-51 119z" />
    <glyph glyph-name="periodcentered" unicode="&#xb7;" horiz-adv-x="146" 
d="M20 302q0 25 20 49t46 24q18 0 29 -13t11 -33q0 -27 -20 -50.5t-48 -23.5q-16 0 -27 13.5t-11 33.5z" />
    <glyph glyph-name="cedilla" unicode="&#xb8;" horiz-adv-x="262" 
d="M96 0h56q0 -46 19 -46q9 0 27.5 2t25.5 2q30 0 30 -36q0 -48 -46.5 -94.5t-125.5 -46.5q-33 0 -54.5 13.5t-21.5 34.5q0 17 12 30.5t27 13.5q13 0 29 -16t39 -16q30 0 59 20.5t29 31.5q0 5 -5 5q-16 0 -47 -7.5t-41 -7.5q-12 0 -19.5 8.5t-7.5 17.5q0 13 3.5 35.5
t7.5 39.5z" />
    <glyph glyph-name="onesuperior" unicode="&#xb9;" horiz-adv-x="250" 
d="M110 579q-33 -22 -66 -22q-13 0 -22.5 8.5t-9.5 21.5q0 27 39 66q6 6 13 6q6 0 6 -6q0 -32 25 -32q9 0 19 2t16 4l5 2q4 9 11 21.5t27.5 34t39.5 21.5q18 0 28.5 -10.5t10.5 -27.5q0 -29 -48 -67q-26 -20 -72.5 -128.5t-46.5 -175.5q0 -12 -11 -12q-12 0 -36.5 18
t-24.5 32q0 30 24 91t49 107z" />
    <glyph glyph-name="ordmasculine" unicode="&#xba;" horiz-adv-x="258" 
d="M10 533q0 73 45.5 117.5t98.5 44.5q40 0 66 -25t26 -67q0 -55 -40.5 -106.5t-98.5 -51.5q-39 0 -68 26t-29 62zM83 518q0 -19 8.5 -31t21.5 -12q28 0 47 51t19 98q0 39 -24 39q-23 0 -47.5 -43t-24.5 -102z" />
    <glyph glyph-name="guillemotright" unicode="&#xbb;" horiz-adv-x="551" 
d="M313 543q138 -122 171 -162q3 -3 9.5 -11.5t8.5 -11t7 -9t7 -10t5.5 -9.5t4.5 -10t2.5 -10.5t2 -13t0.5 -13.5q0 -21 -8.5 -40.5t-15 -28t-20.5 -23.5q-76 -81 -179 -173q-13 -11 -26 -11q-15 0 -33.5 20t-18.5 34q0 12 15 26q104 98 156 155q22 24 22 42q0 22 -26 50
q-43 46 -151 144q-16 16 -16 26q0 15 19.5 35t32.5 20t31 -16zM103 543q138 -122 171 -162q3 -3 9.5 -11.5t8.5 -11t7 -9t7 -10t5.5 -9.5t4.5 -10t2.5 -10.5t2 -13t0.5 -13.5q0 -21 -8.5 -40.5t-15 -28t-20.5 -23.5q-76 -81 -179 -173q-13 -11 -26 -11q-15 0 -33.5 20
t-18.5 34q0 12 15 26q104 98 156 155q22 24 22 42q0 22 -26 50q-43 46 -151 144q-16 16 -16 26q0 15 19.5 35t32.5 20t31 -16z" />
    <glyph glyph-name="onequarter" unicode="&#xbc;" horiz-adv-x="631" 
d="M110 579q-11 -20 -27 -51t-43 -97t-27 -96q0 -14 24.5 -32t36.5 -18q11 0 11 12q0 67 46.5 175.5t72.5 128.5q48 38 48 67q0 17 -10.5 27.5t-28.5 10.5q-19 0 -38.5 -19t-29.5 -39l-10 -19q-20 -8 -40 -8q-25 0 -25 32q0 6 -6 6q-7 0 -13 -6q-39 -39 -39 -66
q0 -13 9.5 -21.5t22.5 -8.5q15 0 31.5 5.5t25.5 11.5zM399 694q0 -11 -5 -23l-265 -657q-4 -14 -18 -14h-34q-28 0 -28 16q0 2 4 16l265 669q5 14 18 14q22 0 42.5 -6.5t20.5 -14.5zM429 425q-26 0 -58 -19t-32 -29q0 -3 3 -6t6 -3q2 0 16 7.5t25 7.5q22 0 22 -23
q0 -27 -17.5 -60.5t-35.5 -53.5l-17 -21q-25 7 -55 7q-19 0 -34.5 -10.5t-15.5 -28.5q0 -15 13 -26t29 -11q17 0 35 6t27 12l10 7q5 0 18 -7.5t33 -20t36 -20.5q-22 -57 -22 -82q0 -19 19.5 -34t34.5 -15q11 0 11 11q0 47 19 107q45 6 87 75q3 6 3 10q0 5 -6 5q-5 0 -9 -4
q-21 -17 -52 -23q31 78 95 184q9 14 19 26.5t14.5 18t4.5 7.5q0 6 -5 6q-14 0 -39 -8t-39 -22q-51 -51 -114 -209q-17 4 -34.5 10.5t-26.5 11.5l-9 4q11 12 27 32t43 65t27 71q0 21 -16.5 33t-39.5 12z" />
    <glyph glyph-name="onehalf" unicode="&#xbd;" horiz-adv-x="622" 
d="M486 422q-77 0 -148.5 -50t-71.5 -121q0 -25 21 -41t46 -16q21 0 34.5 9.5t13.5 16.5q0 6 -7 6q-26 0 -26 37q0 44 39.5 84.5t74.5 40.5q19 0 31.5 -11.5t12.5 -29.5q0 -53 -47.5 -125t-109.5 -126q-74 18 -95 18q-29 0 -49 -18t-20 -42q0 -22 18.5 -37.5t46.5 -15.5
q34 0 96 38q74 -38 103 -38q35 0 67 39t32 54q0 9 -10 9q-2 0 -10.5 -6.5t-24 -13t-35.5 -6.5q-28 0 -57 6q78 59 134.5 127t56.5 115t-30 72t-86 25zM399 694q0 -11 -5 -23l-265 -657q-4 -14 -18 -14h-34q-28 0 -28 16q0 2 4 16l265 669q5 14 18 14q22 0 42.5 -6.5
t20.5 -14.5zM110 579q-11 -20 -27 -51t-43 -97t-27 -96q0 -14 24.5 -32t36.5 -18q11 0 11 12q0 67 46.5 175.5t72.5 128.5q48 38 48 67q0 17 -10.5 27.5t-28.5 10.5q-19 0 -38.5 -19t-29.5 -39l-10 -19q-20 -8 -40 -8q-25 0 -25 32q0 6 -6 6q-7 0 -13 -6q-39 -39 -39 -66
q0 -13 9.5 -21.5t22.5 -8.5q15 0 31.5 5.5t25.5 11.5zM253 74q15 0 48 -13q-32 -19 -53 -19t-21 16t26 16z" />
    <glyph glyph-name="threequarters" unicode="&#xbe;" horiz-adv-x="812" 
d="M264 648q-33 0 -58.5 8.5t-25.5 20.5q0 6 6.5 12.5t6.5 8.5q0 8 -10 8q-20 0 -53 -15.5t-33 -36.5q0 -40 131 -40l-54 -50q-3 0 -9 -1t-20.5 -5t-25.5 -9.5t-20 -14.5t-9 -20q0 -14 8.5 -22.5t23.5 -8.5q32 0 78 52q21 0 32.5 -14.5t11.5 -39.5q0 -70 -31.5 -115.5
t-75.5 -45.5q-24 0 -38.5 13.5t-14.5 31.5q0 25 19 42q6 6 6 11q0 10 -13 10q-17 0 -52.5 -20.5t-35.5 -48.5q0 -33 34 -53.5t86 -20.5q75 0 144 56t69 131q0 48 -29.5 70.5t-68.5 22.5l61 58q67 14 67 55q0 13 -9 20.5t-23 7.5q-17 0 -35.5 -14.5t-29.5 -29.5zM569 694
q0 -11 -5 -23l-265 -657q-4 -14 -18 -14h-34q-28 0 -28 16q0 2 4 16l265 669q5 14 18 14q22 0 42.5 -6.5t20.5 -14.5zM599 425q-26 0 -58 -19t-32 -29q0 -3 3 -6t6 -3q2 0 16 7.5t25 7.5q22 0 22 -23q0 -27 -17.5 -60.5t-35.5 -53.5l-17 -21q-25 7 -55 7q-19 0 -34.5 -10.5
t-15.5 -28.5q0 -15 13 -26t29 -11q17 0 35 6t27 12l10 7q5 0 18 -7.5t33 -20t36 -20.5q-22 -57 -22 -82q0 -19 19.5 -34t34.5 -15q11 0 11 11q0 47 19 107q45 6 87 75q3 6 3 10q0 5 -6 5q-5 0 -9 -4q-21 -17 -52 -23q31 78 95 184q9 14 19 26.5t14.5 18t4.5 7.5q0 6 -5 6
q-14 0 -39 -8t-39 -22q-51 -51 -114 -209q-17 4 -34.5 10.5t-26.5 11.5l-9 4q11 12 27 32t43 65t27 71q0 21 -16.5 33t-39.5 12z" />
    <glyph glyph-name="questiondown" unicode="&#xbf;" horiz-adv-x="436" 
d="M209 -75q40 0 70.5 30t30.5 77q0 29 -11.5 53t-11.5 25q0 10 17 10q42 0 85 -33t43 -78q0 -63 -64.5 -104t-156.5 -41q-99 0 -154 40.5t-55 116.5q0 43 24.5 83.5t61 72t74.5 60t71.5 59t44.5 56.5q10 22 29 25q15 2 35 8.5t26 6.5t10.5 -4.5t4.5 -11.5q0 -26 -24.5 -61
t-59 -71t-69 -75t-59 -86.5t-24.5 -92.5q0 -31 18 -48t44 -17zM426 520q0 -28 -24 -55t-54 -27q-23 0 -37.5 13.5t-14.5 37.5q0 29 23 56.5t55 27.5q24 0 38 -14.5t14 -38.5z" />
    <glyph glyph-name="Agrave" unicode="&#xc0;" horiz-adv-x="976" 
d="M836 -10q-58 0 -100 39t-42 99t15 127q-23 11 -69.5 37t-64.5 36q-9 -16 -32.5 -58.5t-31.5 -56.5t-28 -48t-29.5 -45.5t-28 -36.5t-31 -34t-31.5 -24t-36 -20.5t-39 -10t-45 -4.5q-90 0 -166.5 80.5t-76.5 182.5q0 100 69 166.5t180 66.5q106 0 268 -64
q100 163 166.5 232.5t140.5 69.5q46 0 80 -29q36 22 81 22q30 0 30 -14q0 -5 -24 -33q-21 -27 -66.5 -136.5t-77.5 -218.5h12q22 0 49.5 12.5t30.5 12.5q9 0 9 -12q0 -18 -40 -55.5t-83 -45.5q-13 -63 -13 -104q0 -33 16.5 -49.5t40.5 -16.5t50.5 21.5t41.5 43.5l15 21
q8 14 20 14q8 0 14.5 -6t6.5 -14q0 -4 -2.5 -10t-4.5 -10l-2 -4q-3 -5 -8.5 -13.5t-23.5 -29.5t-37 -37t-47 -29.5t-56 -13.5zM220 91q28 0 54 12.5t47 30.5t50.5 58t51.5 75t63 102q-87 34 -162 34q-106 0 -168 -51.5t-62 -137.5q0 -54 36.5 -88.5t89.5 -34.5zM607 384
q87 -35 123 -46q47 160 131 313l7 12q-12 4 -22 4q-51 0 -98.5 -59.5t-140.5 -223.5zM818 933q16 0 24 -20q14 -35 41.5 -72t49.5 -50q16 -9 16 -19q0 -15 -18 -15q-23 0 -66.5 20.5t-74.5 47.5q-24 20 -24 42q0 16 20 41t32 25z" />
    <glyph glyph-name="Aacute" unicode="&#xc1;" horiz-adv-x="976" 
d="M836 -10q-58 0 -100 39t-42 99t15 127q-23 11 -69.5 37t-64.5 36q-9 -16 -32.5 -58.5t-31.5 -56.5t-28 -48t-29.5 -45.5t-28 -36.5t-31 -34t-31.5 -24t-36 -20.5t-39 -10t-45 -4.5q-90 0 -166.5 80.5t-76.5 182.5q0 100 69 166.5t180 66.5q106 0 268 -64
q100 163 166.5 232.5t140.5 69.5q46 0 80 -29q36 22 81 22q30 0 30 -14q0 -5 -24 -33q-21 -27 -66.5 -136.5t-77.5 -218.5h12q22 0 49.5 12.5t30.5 12.5q9 0 9 -12q0 -18 -40 -55.5t-83 -45.5q-13 -63 -13 -104q0 -33 16.5 -49.5t40.5 -16.5t50.5 21.5t41.5 43.5l15 21
q8 14 20 14q8 0 14.5 -6t6.5 -14q0 -4 -2.5 -10t-4.5 -10l-2 -4q-3 -5 -8.5 -13.5t-23.5 -29.5t-37 -37t-47 -29.5t-56 -13.5zM220 91q28 0 54 12.5t47 30.5t50.5 58t51.5 75t63 102q-87 34 -162 34q-106 0 -168 -51.5t-62 -137.5q0 -54 36.5 -88.5t89.5 -34.5zM607 384
q87 -35 123 -46q47 160 131 313l7 12q-12 4 -22 4q-51 0 -98.5 -59.5t-140.5 -223.5zM998 918q12 0 31.5 -25t19.5 -41q0 -22 -24 -42q-29 -25 -73.5 -39.5t-72.5 -14.5q-18 0 -18 15q0 10 16 19q46 28 97 108q12 20 24 20z" />
    <glyph glyph-name="Acircumflex" unicode="&#xc2;" horiz-adv-x="976" 
d="M836 -10q-58 0 -100 39t-42 99t15 127q-23 11 -69.5 37t-64.5 36q-9 -16 -32.5 -58.5t-31.5 -56.5t-28 -48t-29.5 -45.5t-28 -36.5t-31 -34t-31.5 -24t-36 -20.5t-39 -10t-45 -4.5q-90 0 -166.5 80.5t-76.5 182.5q0 100 69 166.5t180 66.5q106 0 268 -64
q100 163 166.5 232.5t140.5 69.5q46 0 80 -29q36 22 81 22q30 0 30 -14q0 -5 -24 -33q-21 -27 -66.5 -136.5t-77.5 -218.5h12q22 0 49.5 12.5t30.5 12.5q9 0 9 -12q0 -18 -40 -55.5t-83 -45.5q-13 -63 -13 -104q0 -33 16.5 -49.5t40.5 -16.5t50.5 21.5t41.5 43.5l15 21
q8 14 20 14q8 0 14.5 -6t6.5 -14q0 -4 -2.5 -10t-4.5 -10l-2 -4q-3 -5 -8.5 -13.5t-23.5 -29.5t-37 -37t-47 -29.5t-56 -13.5zM220 91q28 0 54 12.5t47 30.5t50.5 58t51.5 75t63 102q-87 34 -162 34q-106 0 -168 -51.5t-62 -137.5q0 -54 36.5 -88.5t89.5 -34.5zM607 384
q87 -35 123 -46q47 160 131 313l7 12q-12 4 -22 4q-51 0 -98.5 -59.5t-140.5 -223.5zM894 823q-4 0 -14 -6q-96 -54 -119 -54q-7 0 -12.5 5.5t-5.5 11.5q0 13 16 24q56 38 98 83q2 2 5.5 6.5t5 6.5t5 5.5l5.5 5.5t5.5 4t7 3t7.5 2t9 1q10 0 16.5 -3.5t9 -7t7 -12.5t8.5 -15
q30 -49 66 -78q18 -12 18 -23q0 -7 -5.5 -13t-13.5 -6q-12 0 -43 13.5t-65 40.5q-6 6 -11 6z" />
    <glyph glyph-name="Atilde" unicode="&#xc3;" horiz-adv-x="976" 
d="M836 -10q-58 0 -100 39t-42 99t15 127q-23 11 -69.5 37t-64.5 36q-9 -16 -32.5 -58.5t-31.5 -56.5t-28 -48t-29.5 -45.5t-28 -36.5t-31 -34t-31.5 -24t-36 -20.5t-39 -10t-45 -4.5q-90 0 -166.5 80.5t-76.5 182.5q0 100 69 166.5t180 66.5q106 0 268 -64
q100 163 166.5 232.5t140.5 69.5q46 0 80 -29q36 22 81 22q30 0 30 -14q0 -5 -24 -33q-21 -27 -66.5 -136.5t-77.5 -218.5h12q22 0 49.5 12.5t30.5 12.5q9 0 9 -12q0 -18 -40 -55.5t-83 -45.5q-13 -63 -13 -104q0 -33 16.5 -49.5t40.5 -16.5t50.5 21.5t41.5 43.5l15 21
q8 14 20 14q8 0 14.5 -6t6.5 -14q0 -4 -2.5 -10t-4.5 -10l-2 -4q-3 -5 -8.5 -13.5t-23.5 -29.5t-37 -37t-47 -29.5t-56 -13.5zM220 91q28 0 54 12.5t47 30.5t50.5 58t51.5 75t63 102q-87 34 -162 34q-106 0 -168 -51.5t-62 -137.5q0 -54 36.5 -88.5t89.5 -34.5zM607 384
q87 -35 123 -46q47 160 131 313l7 12q-12 4 -22 4q-51 0 -98.5 -59.5t-140.5 -223.5zM972 755q-24 0 -88 18t-87 18q-14 0 -36 -10t-25 -10q-13 0 -13 13q0 8 11 23q16 22 41.5 42t49.5 20t83 -19t84 -19q19 0 42.5 11.5t26.5 11.5q13 0 13 -10q0 -9 -6 -19q-49 -70 -96 -70
z" />
    <glyph glyph-name="Adieresis" unicode="&#xc4;" horiz-adv-x="976" 
d="M836 -10q-58 0 -100 39t-42 99t15 127q-23 11 -69.5 37t-64.5 36q-9 -16 -32.5 -58.5t-31.5 -56.5t-28 -48t-29.5 -45.5t-28 -36.5t-31 -34t-31.5 -24t-36 -20.5t-39 -10t-45 -4.5q-90 0 -166.5 80.5t-76.5 182.5q0 100 69 166.5t180 66.5q106 0 268 -64
q100 163 166.5 232.5t140.5 69.5q46 0 80 -29q36 22 81 22q30 0 30 -14q0 -5 -24 -33q-21 -27 -66.5 -136.5t-77.5 -218.5h12q22 0 49.5 12.5t30.5 12.5q9 0 9 -12q0 -18 -40 -55.5t-83 -45.5q-13 -63 -13 -104q0 -33 16.5 -49.5t40.5 -16.5t50.5 21.5t41.5 43.5l15 21
q8 14 20 14q8 0 14.5 -6t6.5 -14q0 -4 -2.5 -10t-4.5 -10l-2 -4q-3 -5 -8.5 -13.5t-23.5 -29.5t-37 -37t-47 -29.5t-56 -13.5zM220 91q28 0 54 12.5t47 30.5t50.5 58t51.5 75t63 102q-87 34 -162 34q-106 0 -168 -51.5t-62 -137.5q0 -54 36.5 -88.5t89.5 -34.5zM607 384
q87 -35 123 -46q47 160 131 313l7 12q-12 4 -22 4q-51 0 -98.5 -59.5t-140.5 -223.5zM932 827q0 27 21 52t48 25q19 0 30.5 -13.5t11.5 -34.5q0 -28 -20.5 -53t-50.5 -25q-17 0 -28.5 14t-11.5 35zM787 827q0 27 21 52t48 25q19 0 30.5 -13.5t11.5 -34.5q0 -28 -20.5 -53
t-50.5 -25q-17 0 -28.5 14t-11.5 35z" />
    <glyph glyph-name="Aring" unicode="&#xc5;" horiz-adv-x="976" 
d="M836 -10q-58 0 -100 39t-42 99t15 127q-23 11 -69.5 37t-64.5 36q-9 -16 -32.5 -58.5t-31.5 -56.5t-28 -48t-29.5 -45.5t-28 -36.5t-31 -34t-31.5 -24t-36 -20.5t-39 -10t-45 -4.5q-90 0 -166.5 80.5t-76.5 182.5q0 100 69 166.5t180 66.5q106 0 268 -64
q100 163 166.5 232.5t140.5 69.5q46 0 80 -29q36 22 81 22q30 0 30 -14q0 -5 -24 -33q-21 -27 -66.5 -136.5t-77.5 -218.5h12q22 0 49.5 12.5t30.5 12.5q9 0 9 -12q0 -18 -40 -55.5t-83 -45.5q-13 -63 -13 -104q0 -33 16.5 -49.5t40.5 -16.5t50.5 21.5t41.5 43.5l15 21
q8 14 20 14q8 0 14.5 -6t6.5 -14q0 -4 -2.5 -10t-4.5 -10l-2 -4q-3 -5 -8.5 -13.5t-23.5 -29.5t-37 -37t-47 -29.5t-56 -13.5zM220 91q28 0 54 12.5t47 30.5t50.5 58t51.5 75t63 102q-87 34 -162 34q-106 0 -168 -51.5t-62 -137.5q0 -54 36.5 -88.5t89.5 -34.5zM807 868
q0 44 30.5 74t73.5 30t73.5 -30t30.5 -74t-30.5 -74t-73.5 -30t-73.5 30t-30.5 74zM607 384q87 -35 123 -46q47 160 131 313l7 12q-12 4 -22 4q-51 0 -98.5 -59.5t-140.5 -223.5zM867 868q0 -18 13 -31t31 -13t30 13t12 31t-12 30t-30 12t-31 -12t-13 -30z" />
    <glyph glyph-name="AE" unicode="&#xc6;" horiz-adv-x="1151" 
d="M932 671q72 53 187 53q54 0 91.5 -25t37.5 -64q0 -35 -44 -73.5t-64 -38.5q-17 0 -17 12q0 4 22 40t22 71q0 15 -15 25t-36 10q-56 0 -105.5 -53.5t-49.5 -128.5q0 -22 6 -42.5t12 -30.5l6 -10q28 6 69 6q59 0 59 -35q0 -16 -18.5 -31t-45.5 -15q-21 0 -41.5 4.5
t-29.5 9.5l-10 5q-5 -3 -14 -8.5t-32 -25t-40 -41t-31.5 -57t-14.5 -73.5q0 -124 131 -124q49 0 99.5 34t84.5 78q9 14 21 14q9 0 15 -6t6 -14q0 -4 -2.5 -10t-5.5 -10l-3 -4q-39 -54 -103.5 -98t-145.5 -44q-59 0 -110.5 17.5t-88.5 60t-37 103.5q0 22 5 47q1 11 4.5 31
t4.5 24q-22 11 -68 36.5t-68 37.5q-9 -16 -32.5 -58.5t-31.5 -56.5t-28 -48t-29.5 -45.5t-28 -36.5t-31 -34t-31.5 -24t-36 -20.5t-39 -10t-45 -4.5q-90 0 -166.5 80.5t-76.5 182.5q0 100 69 166.5t180 66.5q106 0 268 -64q100 163 166.5 232.5t140.5 69.5q18 0 44.5 -13
t41 -23t22.5 -17zM220 91q28 0 54 12.5t47 30.5t50.5 58t51.5 75t63 102q-87 34 -162 34q-106 0 -168 -51.5t-62 -137.5q0 -54 36.5 -88.5t89.5 -34.5zM861 651l7 12q-12 4 -22 4q-51 0 -98.5 -59.5t-140.5 -223.5q95 -38 124 -47q46 160 130 314zM879 414l-13 -36
q10 4 19.5 8t15 6.5t6.5 2.5q-6 0 -28 19z" />
    <glyph glyph-name="Ccedilla" unicode="&#xc7;" horiz-adv-x="659" 
d="M691 113q-35 -53 -95 -93t-134 -48q0 -40 19 -40q9 0 27.5 2t25.5 2q30 0 30 -36q0 -48 -46.5 -94.5t-125.5 -46.5q-33 0 -54.5 13.5t-21.5 34.5q0 17 12 30.5t27 13.5q13 0 29 -16t39 -16q30 0 59 20.5t29 31.5q0 5 -5 5q-16 0 -47 -7.5t-41 -7.5q-12 0 -19.5 8.5
t-7.5 17.5q0 30 13 86q-95 8 -162 69.5t-67 170.5q0 53 16 112q-87 21 -139 66.5t-52 94.5q0 75 80 135.5t133 60.5q17 0 17 -11q0 -4 -2 -7t-8.5 -8t-8.5 -7q-21 -16 -34 -28t-28.5 -43t-15.5 -69q0 -84 80 -118q57 136 168.5 234.5t208.5 98.5q57 0 100 -46.5t43 -93.5
q0 -40 -29 -86.5t-79.5 -87.5t-129 -69t-166.5 -30q-12 -51 -12 -101q0 -179 149 -179q52 0 105 32t88 80q8 14 20 14q9 0 15 -6t6 -14q0 -4 -2 -10t-4 -10zM601 656q-64 0 -139 -85t-115 -200q65 2 122 27.5t93.5 63t57 79t20.5 77.5q0 17 -10.5 27.5t-28.5 10.5z" />
    <glyph glyph-name="Egrave" unicode="&#xc8;" horiz-adv-x="476" 
d="M258 -29q-59 0 -110.5 17.5t-88.5 60t-37 103.5q0 46 20.5 87.5t44.5 66t61 47.5t50.5 28.5t31.5 12.5l2 1q-6 2 -18 10t-30 32t-23 54q-151 13 -151 89q0 45 47 90t74 45q9 0 9 -9q0 -1 -9 -17.5t-9 -30.5q0 -47 53 -81q32 62 111 104.5t158 42.5q54 0 91.5 -25
t37.5 -64q0 -52 -79.5 -93.5t-207.5 -50.5q1 -20 7 -38.5t11 -27.5l6 -9q28 6 69 6q59 0 59 -35q0 -16 -18.5 -31t-45.5 -15q-21 0 -41.5 4.5t-30.5 9.5l-9 5q-5 -3 -14 -8.5t-32 -25t-40 -41t-31.5 -57t-14.5 -73.5q0 -124 131 -124q53 0 101.5 30t82.5 82q8 14 20 14
q9 0 15 -6t6 -14l-8 -23q-36 -60 -101 -101.5t-150 -41.5zM441 681q-46 0 -90 -38t-59 -95q86 0 143 27.5t57 70.5q0 15 -15 25t-36 10zM401 941q16 0 24 -20q14 -35 41.5 -72t49.5 -50q16 -9 16 -19q0 -15 -18 -15q-23 0 -66.5 20.5t-74.5 47.5q-24 20 -24 42q0 16 20 41
t32 25z" />
    <glyph glyph-name="Eacute" unicode="&#xc9;" horiz-adv-x="476" 
d="M258 -29q-59 0 -110.5 17.5t-88.5 60t-37 103.5q0 46 20.5 87.5t44.5 66t61 47.5t50.5 28.5t31.5 12.5l2 1q-6 2 -18 10t-30 32t-23 54q-151 13 -151 89q0 45 47 90t74 45q9 0 9 -9q0 -1 -9 -17.5t-9 -30.5q0 -47 53 -81q32 62 111 104.5t158 42.5q54 0 91.5 -25
t37.5 -64q0 -52 -79.5 -93.5t-207.5 -50.5q1 -20 7 -38.5t11 -27.5l6 -9q28 6 69 6q59 0 59 -35q0 -16 -18.5 -31t-45.5 -15q-21 0 -41.5 4.5t-30.5 9.5l-9 5q-5 -3 -14 -8.5t-32 -25t-40 -41t-31.5 -57t-14.5 -73.5q0 -124 131 -124q53 0 101.5 30t82.5 82q8 14 20 14
q9 0 15 -6t6 -14l-8 -23q-36 -60 -101 -101.5t-150 -41.5zM441 681q-46 0 -90 -38t-59 -95q86 0 143 27.5t57 70.5q0 15 -15 25t-36 10zM501 927q12 0 31.5 -25t19.5 -41q0 -22 -24 -42q-29 -25 -73.5 -39.5t-72.5 -14.5q-18 0 -18 15q0 10 16 19q46 28 97 108q12 20 24 20z
" />
    <glyph glyph-name="Ecircumflex" unicode="&#xca;" horiz-adv-x="476" 
d="M258 -29q-59 0 -110.5 17.5t-88.5 60t-37 103.5q0 46 20.5 87.5t44.5 66t61 47.5t50.5 28.5t31.5 12.5l2 1q-6 2 -18 10t-30 32t-23 54q-151 13 -151 89q0 45 47 90t74 45q9 0 9 -9q0 -1 -9 -17.5t-9 -30.5q0 -47 53 -81q32 62 111 104.5t158 42.5q54 0 91.5 -25
t37.5 -64q0 -52 -79.5 -93.5t-207.5 -50.5q1 -20 7 -38.5t11 -27.5l6 -9q28 6 69 6q59 0 59 -35q0 -16 -18.5 -31t-45.5 -15q-21 0 -41.5 4.5t-30.5 9.5l-9 5q-5 -3 -14 -8.5t-32 -25t-40 -41t-31.5 -57t-14.5 -73.5q0 -124 131 -124q53 0 101.5 30t82.5 82q8 14 20 14
q9 0 15 -6t6 -14l-8 -23q-36 -60 -101 -101.5t-150 -41.5zM445 810q-4 0 -14 -6q-96 -54 -119 -54q-7 0 -12.5 5.5t-5.5 11.5q0 13 16 24q56 38 98 83q2 2 5.5 6.5t5 6.5t5 5.5l5.5 5.5t5.5 4t7 3t7.5 2t9 1q10 0 16.5 -3.5t9 -7t7 -12.5t8.5 -15q30 -49 66 -78
q18 -12 18 -23q0 -7 -5.5 -13t-13.5 -6q-12 0 -43 13.5t-65 40.5q-6 6 -11 6zM441 681q-46 0 -90 -38t-59 -95q86 0 143 27.5t57 70.5q0 15 -15 25t-36 10z" />
    <glyph glyph-name="Edieresis" unicode="&#xcb;" horiz-adv-x="476" 
d="M258 -29q-59 0 -110.5 17.5t-88.5 60t-37 103.5q0 46 20.5 87.5t44.5 66t61 47.5t50.5 28.5t31.5 12.5l2 1q-6 2 -18 10t-30 32t-23 54q-151 13 -151 89q0 45 47 90t74 45q9 0 9 -9q0 -1 -9 -17.5t-9 -30.5q0 -47 53 -81q32 62 111 104.5t158 42.5q54 0 91.5 -25
t37.5 -64q0 -52 -79.5 -93.5t-207.5 -50.5q1 -20 7 -38.5t11 -27.5l6 -9q28 6 69 6q59 0 59 -35q0 -16 -18.5 -31t-45.5 -15q-21 0 -41.5 4.5t-30.5 9.5l-9 5q-5 -3 -14 -8.5t-32 -25t-40 -41t-31.5 -57t-14.5 -73.5q0 -124 131 -124q53 0 101.5 30t82.5 82q8 14 20 14
q9 0 15 -6t6 -14l-8 -23q-36 -60 -101 -101.5t-150 -41.5zM441 681q-46 0 -90 -38t-59 -95q86 0 143 27.5t57 70.5q0 15 -15 25t-36 10zM332 810q0 27 21 52t48 25q19 0 30.5 -13.5t11.5 -34.5q0 -28 -20.5 -53t-50.5 -25q-17 0 -28.5 14t-11.5 35zM477 810q0 27 21 52
t48 25q19 0 30.5 -13.5t11.5 -34.5q0 -28 -20.5 -53t-50.5 -25q-17 0 -28.5 14t-11.5 35z" />
    <glyph glyph-name="Igrave" unicode="&#xcc;" horiz-adv-x="537" 
d="M582 724q-55 0 -94 -53q-49 -10 -95 -23t-98.5 -35.5t-91 -49t-64 -65t-25.5 -82.5q0 -63 51.5 -108.5t94.5 -45.5q20 0 20 13q0 5 -16 19q-35 28 -35 73q0 52 24.5 96t59.5 70t70.5 44.5t60.5 25.5l24 7q-35 -80 -77 -239q-73 -277 -233 -277q-71 0 -119 74
q-10 12 -16 12q-15 0 -15 -20q0 -53 58.5 -111.5t139.5 -58.5q122 0 194.5 98.5t100.5 269.5q24 146 34.5 195t22.5 61q25 5 46 24t21 45q0 19 -13 30t-30 11zM513 945q16 0 24 -20q14 -35 41.5 -72t49.5 -50q16 -9 16 -19q0 -15 -18 -15q-23 0 -66.5 20.5t-74.5 47.5
q-24 20 -24 42q0 16 20 41t32 25z" />
    <glyph glyph-name="Iacute" unicode="&#xcd;" horiz-adv-x="537" 
d="M582 724q-55 0 -94 -53q-49 -10 -95 -23t-98.5 -35.5t-91 -49t-64 -65t-25.5 -82.5q0 -63 51.5 -108.5t94.5 -45.5q20 0 20 13q0 5 -16 19q-35 28 -35 73q0 52 24.5 96t59.5 70t70.5 44.5t60.5 25.5l24 7q-35 -80 -77 -239q-73 -277 -233 -277q-71 0 -119 74
q-10 12 -16 12q-15 0 -15 -20q0 -53 58.5 -111.5t139.5 -58.5q122 0 194.5 98.5t100.5 269.5q24 146 34.5 195t22.5 61q25 5 46 24t21 45q0 19 -13 30t-30 11zM573 909q12 0 31.5 -25t19.5 -41q0 -22 -24 -42q-29 -25 -73.5 -39.5t-72.5 -14.5q-18 0 -18 15q0 10 16 19
q46 28 97 108q12 20 24 20z" />
    <glyph glyph-name="Icircumflex" unicode="&#xce;" horiz-adv-x="537" 
d="M582 724q-55 0 -94 -53q-49 -10 -95 -23t-98.5 -35.5t-91 -49t-64 -65t-25.5 -82.5q0 -63 51.5 -108.5t94.5 -45.5q20 0 20 13q0 5 -16 19q-35 28 -35 73q0 52 24.5 96t59.5 70t70.5 44.5t60.5 25.5l24 7q-35 -80 -77 -239q-73 -277 -233 -277q-71 0 -119 74
q-10 12 -16 12q-15 0 -15 -20q0 -53 58.5 -111.5t139.5 -58.5q122 0 194.5 98.5t100.5 269.5q24 146 34.5 195t22.5 61q25 5 46 24t21 45q0 19 -13 30t-30 11zM577 806q-4 0 -14 -6q-96 -54 -119 -54q-7 0 -12.5 5.5t-5.5 11.5q0 13 16 24q56 38 98 83q2 2 5.5 6.5t5 6.5
t5 5.5l5.5 5.5t5.5 4t7 3t7.5 2t9 1q10 0 16.5 -3.5t9 -7t7 -12.5t8.5 -15q30 -49 66 -78q18 -12 18 -23q0 -7 -5.5 -13t-13.5 -6q-12 0 -43 13.5t-65 40.5q-6 6 -11 6z" />
    <glyph glyph-name="Idieresis" unicode="&#xcf;" horiz-adv-x="537" 
d="M582 724q-55 0 -94 -53q-49 -10 -95 -23t-98.5 -35.5t-91 -49t-64 -65t-25.5 -82.5q0 -63 51.5 -108.5t94.5 -45.5q20 0 20 13q0 5 -16 19q-35 28 -35 73q0 52 24.5 96t59.5 70t70.5 44.5t60.5 25.5l24 7q-35 -80 -77 -239q-73 -277 -233 -277q-71 0 -119 74
q-10 12 -16 12q-15 0 -15 -20q0 -53 58.5 -111.5t139.5 -58.5q122 0 194.5 98.5t100.5 269.5q24 146 34.5 195t22.5 61q25 5 46 24t21 45q0 19 -13 30t-30 11zM458 812q0 27 21 52t48 25q19 0 30.5 -13.5t11.5 -34.5q0 -28 -20.5 -53t-50.5 -25q-17 0 -28.5 14t-11.5 35z
M603 812q0 27 21 52t48 25q19 0 30.5 -13.5t11.5 -34.5q0 -28 -20.5 -53t-50.5 -25q-17 0 -28.5 14t-11.5 35z" />
    <glyph glyph-name="Eth" unicode="&#xd0;" horiz-adv-x="928" 
d="M292 326q48 0 67 2q4 12 13 37t14 38.5t13 35.5t13 35t12.5 30.5t12.5 28.5t11 22t11 17.5t10 9.5q61 41 122 41q16 0 16 -14q0 -3 -9 -14.5t-23.5 -33t-24.5 -44.5q-3 -7 -12 -32t-24.5 -68t-28.5 -78h2q24 0 54.5 -33t30.5 -48q0 -6 -5.5 -11t-9.5 -5q-1 0 -23.5 10
t-42.5 10q-19 0 -36 -3q-16 -40 -40 -93q-8 -17 -26 -47q82 -42 141 -42q104 0 174.5 107t70.5 242q0 118 -69 179.5t-168 61.5q-290 0 -290 -176q0 -27 12 -47t24.5 -31t12.5 -15q0 -19 -21 -19q-48 0 -103.5 37.5t-55.5 91.5q0 71 62.5 121.5t156 72.5t204.5 22
q60 0 121.5 -19.5t117 -57.5t90.5 -104t35 -149q0 -101 -40.5 -193.5t-116 -151.5t-165.5 -59q-97 0 -239 72q-73 -72 -183 -72q-64 0 -112 31.5t-48 82.5q0 52 40 85t88 33q68 0 168 -52q5 8 13 26l10 23h-7q-34 0 -66 47.5t-32 69.5q0 6 4 10t9 4q4 0 24.5 -12t40.5 -12z
M135 146q-23 0 -38 -14.5t-15 -35.5q0 -20 17 -32.5t42 -12.5q67 0 115 57q-78 38 -121 38z" />
    <glyph glyph-name="Ntilde" unicode="&#xd1;" horiz-adv-x="855" 
d="M716 69q12 25 38 101t53.5 148t63 146.5t79 120t87.5 45.5q18 0 18 19q0 20 -38 43t-79 23q-31 0 -66.5 -50.5t-68 -131t-58 -153.5t-48.5 -147.5t-26 -83.5q-6 43 -10.5 100t-6 100t-3.5 109t-3 95q-2 54 -34 95t-70.5 58.5t-73.5 17.5q-73 0 -151.5 -31t-132.5 -85.5
t-54 -113.5q0 -54 56 -96.5t103 -42.5q21 0 21 20q0 4 -12.5 17t-25 35.5t-12.5 49.5q0 67 68.5 127t120.5 60q26 0 39 -12.5t13 -32.5q0 -63 -54.5 -194.5t-131.5 -243t-130 -111.5q-29 0 -49.5 20.5t-20.5 52.5q0 62 63 114q20 17 20 29q0 15 -25 15q-51 0 -113 -41.5
t-62 -96.5t73 -114t160 -59q33 0 65 18t56.5 44.5t50 70.5t42 81t36 91.5t29.5 86.5t25 81q0 -245 13 -360q5 -45 27 -79t45 -34q15 0 48 25t46 54zM815 743q-24 0 -88 18t-87 18q-14 0 -36 -10t-25 -10q-13 0 -13 13q0 8 11 23q16 22 41.5 42t49.5 20t83 -19t84 -19
q19 0 42.5 11.5t26.5 11.5q13 0 13 -10q0 -9 -6 -19q-49 -70 -96 -70z" />
    <glyph glyph-name="Ograve" unicode="&#xd2;" horiz-adv-x="577" 
d="M381 724q97 0 162.5 -64t65.5 -161q0 -114 -50.5 -231t-143 -197.5t-198.5 -80.5q-88 0 -152 66.5t-64 165.5q0 127 58.5 245t147 187.5t174.5 69.5zM409 669q-59 0 -107.5 -57t-48.5 -135q0 -44 21.5 -72t49.5 -28q8 0 15 2t9 2q12 0 12 -12q0 -7 -8 -16t-28.5 -17
t-48.5 -8q-42 0 -78.5 41.5t-36.5 100.5q-4 -9 -10.5 -25.5t-17 -75t-10.5 -124.5q0 -88 35 -140.5t82 -52.5q65 0 122.5 85t89 206.5t31.5 236.5q0 41 -21 65t-52 24zM410 932q16 0 24 -20q14 -35 41.5 -72t49.5 -50q16 -9 16 -19q0 -15 -18 -15q-23 0 -66.5 20.5
t-74.5 47.5q-24 20 -24 42q0 16 20 41t32 25z" />
    <glyph glyph-name="Oacute" unicode="&#xd3;" horiz-adv-x="577" 
d="M381 724q97 0 162.5 -64t65.5 -161q0 -114 -50.5 -231t-143 -197.5t-198.5 -80.5q-88 0 -152 66.5t-64 165.5q0 127 58.5 245t147 187.5t174.5 69.5zM409 669q-59 0 -107.5 -57t-48.5 -135q0 -44 21.5 -72t49.5 -28q8 0 15 2t9 2q12 0 12 -12q0 -7 -8 -16t-28.5 -17
t-48.5 -8q-42 0 -78.5 41.5t-36.5 100.5q-4 -9 -10.5 -25.5t-17 -75t-10.5 -124.5q0 -88 35 -140.5t82 -52.5q65 0 122.5 85t89 206.5t31.5 236.5q0 41 -21 65t-52 24zM472 933q12 0 31.5 -25t19.5 -41q0 -22 -24 -42q-29 -25 -73.5 -39.5t-72.5 -14.5q-18 0 -18 15
q0 10 16 19q46 28 97 108q12 20 24 20z" />
    <glyph glyph-name="Ocircumflex" unicode="&#xd4;" horiz-adv-x="577" 
d="M381 724q97 0 162.5 -64t65.5 -161q0 -114 -50.5 -231t-143 -197.5t-198.5 -80.5q-88 0 -152 66.5t-64 165.5q0 127 58.5 245t147 187.5t174.5 69.5zM409 669q-59 0 -107.5 -57t-48.5 -135q0 -44 21.5 -72t49.5 -28q8 0 15 2t9 2q12 0 12 -12q0 -7 -8 -16t-28.5 -17
t-48.5 -8q-42 0 -78.5 41.5t-36.5 100.5q-4 -9 -10.5 -25.5t-17 -75t-10.5 -124.5q0 -88 35 -140.5t82 -52.5q65 0 122.5 85t89 206.5t31.5 236.5q0 41 -21 65t-52 24zM410 823q-4 0 -14 -6q-96 -54 -119 -54q-7 0 -12.5 5.5t-5.5 11.5q0 13 16 24q56 38 98 83q2 2 5.5 6.5
t5 6.5t5 5.5l5.5 5.5t5.5 4t7 3t7.5 2t9 1q10 0 16.5 -3.5t9 -7t7 -12.5t8.5 -15q30 -49 66 -78q18 -12 18 -23q0 -7 -5.5 -13t-13.5 -6q-12 0 -43 13.5t-65 40.5q-6 6 -11 6z" />
    <glyph glyph-name="Otilde" unicode="&#xd5;" horiz-adv-x="577" 
d="M381 724q97 0 162.5 -64t65.5 -161q0 -114 -50.5 -231t-143 -197.5t-198.5 -80.5q-88 0 -152 66.5t-64 165.5q0 127 58.5 245t147 187.5t174.5 69.5zM409 669q-59 0 -107.5 -57t-48.5 -135q0 -44 21.5 -72t49.5 -28q8 0 15 2t9 2q12 0 12 -12q0 -7 -8 -16t-28.5 -17
t-48.5 -8q-42 0 -78.5 41.5t-36.5 100.5q-4 -9 -10.5 -25.5t-17 -75t-10.5 -124.5q0 -88 35 -140.5t82 -52.5q65 0 122.5 85t89 206.5t31.5 236.5q0 41 -21 65t-52 24zM529 760q-24 0 -88 18t-87 18q-14 0 -36 -10t-25 -10q-13 0 -13 13q0 8 11 23q16 22 41.5 42t49.5 20
t83 -19t84 -19q19 0 42.5 11.5t26.5 11.5q13 0 13 -10q0 -9 -6 -19q-49 -70 -96 -70z" />
    <glyph glyph-name="Odieresis" unicode="&#xd6;" horiz-adv-x="577" 
d="M381 724q97 0 162.5 -64t65.5 -161q0 -114 -50.5 -231t-143 -197.5t-198.5 -80.5q-88 0 -152 66.5t-64 165.5q0 127 58.5 245t147 187.5t174.5 69.5zM409 669q-59 0 -107.5 -57t-48.5 -135q0 -44 21.5 -72t49.5 -28q8 0 15 2t9 2q12 0 12 -12q0 -7 -8 -16t-28.5 -17
t-48.5 -8q-42 0 -78.5 41.5t-36.5 100.5q-4 -9 -10.5 -25.5t-17 -75t-10.5 -124.5q0 -88 35 -140.5t82 -52.5q65 0 122.5 85t89 206.5t31.5 236.5q0 41 -21 65t-52 24zM289 817q0 27 21 52t48 25q19 0 30.5 -13.5t11.5 -34.5q0 -28 -20.5 -53t-50.5 -25q-17 0 -28.5 14
t-11.5 35zM434 817q0 27 21 52t48 25q19 0 30.5 -13.5t11.5 -34.5q0 -28 -20.5 -53t-50.5 -25q-17 0 -28.5 14t-11.5 35z" />
    <glyph glyph-name="multiply" unicode="&#xd7;" horiz-adv-x="382" 
d="M185 364l103 103q3 3 9 3q18 0 38 -20q22 -22 22 -40q0 -4 -2 -6l-105 -105l103 -103q3 -3 3 -9q0 -18 -20 -38q-22 -22 -40 -22q-4 0 -6 2l-105 105l-103 -103q-3 -3 -8 -3q-18 0 -40 22q-20 20 -20 38q0 5 2 7l104 104l-103 103q-3 3 -3 8q0 18 22 40q20 20 38 20
q5 0 7 -2z" />
    <glyph glyph-name="Oslash" unicode="&#xd8;" horiz-adv-x="577" 
d="M495 749q0 -10 -4 -26l-9 -21q58 -27 92.5 -80.5t34.5 -122.5q0 -114 -50.5 -231t-143 -197.5t-198.5 -80.5q-17 0 -33 3l-11 -27q-4 -16 -16 -16h-30q-25 0 -25 18q0 4 4 20l11 27q-53 29 -84.5 83.5t-31.5 123.5q0 127 58.5 245t147 187.5t174.5 69.5q10 0 28 -2l15 35
q4 17 15 17q20 0 38 -7.5t18 -17.5zM482 580q0 42 -23 67l-248 -590q15 -5 28 -5q65 0 122.5 85t89 206.5t31.5 236.5zM122 245q0 -84 33 -138l232 560q-114 -13 -189.5 -136.5t-75.5 -285.5z" />
    <glyph glyph-name="Ugrave" unicode="&#xd9;" horiz-adv-x="836" 
d="M696 -10q-56 0 -101 39.5t-45 98.5q0 23 2 36q-118 -174 -245 -174q-56 0 -97.5 34.5t-41.5 80.5q0 54 48.5 157t97 204.5t48.5 152.5q0 45 -43 45q-53 0 -125.5 -60t-72.5 -127q0 -27 12.5 -49.5t25 -35.5t12.5 -17q0 -20 -21 -20q-47 0 -103.5 42.5t-56.5 96.5
q0 59 59.5 113.5t142 85.5t156.5 31q62 0 101 -29t39 -76q0 -44 -28.5 -118t-63 -140t-63 -137t-28.5 -111q0 -43 44 -43q71 0 234 240q26 93 67 191t71 150q21 35 61 50.5t74 15.5q29 0 29 -14q0 -8 -24 -36q-39 -48 -113.5 -243t-74.5 -301q0 -33 16 -49.5t40 -16.5
t50.5 21.5t41.5 43.5l15 21q8 14 20 14q8 0 14.5 -6t6.5 -14q0 -4 -2.5 -10t-4.5 -10l-2 -4q-3 -5 -8.5 -13.5t-23.5 -29.5t-37 -37t-47 -29.5t-56 -13.5zM553 900q16 0 24 -20q14 -35 41.5 -72t49.5 -50q16 -9 16 -19q0 -15 -18 -15q-23 0 -66.5 20.5t-74.5 47.5
q-24 20 -24 42q0 16 20 41t32 25z" />
    <glyph glyph-name="Uacute" unicode="&#xda;" horiz-adv-x="836" 
d="M696 -10q-56 0 -101 39.5t-45 98.5q0 23 2 36q-118 -174 -245 -174q-56 0 -97.5 34.5t-41.5 80.5q0 54 48.5 157t97 204.5t48.5 152.5q0 45 -43 45q-53 0 -125.5 -60t-72.5 -127q0 -27 12.5 -49.5t25 -35.5t12.5 -17q0 -20 -21 -20q-47 0 -103.5 42.5t-56.5 96.5
q0 59 59.5 113.5t142 85.5t156.5 31q62 0 101 -29t39 -76q0 -44 -28.5 -118t-63 -140t-63 -137t-28.5 -111q0 -43 44 -43q71 0 234 240q26 93 67 191t71 150q21 35 61 50.5t74 15.5q29 0 29 -14q0 -8 -24 -36q-39 -48 -113.5 -243t-74.5 -301q0 -33 16 -49.5t40 -16.5
t50.5 21.5t41.5 43.5l15 21q8 14 20 14q8 0 14.5 -6t6.5 -14q0 -4 -2.5 -10t-4.5 -10l-2 -4q-3 -5 -8.5 -13.5t-23.5 -29.5t-37 -37t-47 -29.5t-56 -13.5zM705 880q12 0 31.5 -25t19.5 -41q0 -22 -24 -42q-29 -25 -73.5 -39.5t-72.5 -14.5q-18 0 -18 15q0 10 16 19
q46 28 97 108q12 20 24 20z" />
    <glyph glyph-name="Ucircumflex" unicode="&#xdb;" horiz-adv-x="836" 
d="M696 -10q-56 0 -101 39.5t-45 98.5q0 23 2 36q-118 -174 -245 -174q-56 0 -97.5 34.5t-41.5 80.5q0 54 48.5 157t97 204.5t48.5 152.5q0 45 -43 45q-53 0 -125.5 -60t-72.5 -127q0 -27 12.5 -49.5t25 -35.5t12.5 -17q0 -20 -21 -20q-47 0 -103.5 42.5t-56.5 96.5
q0 59 59.5 113.5t142 85.5t156.5 31q62 0 101 -29t39 -76q0 -44 -28.5 -118t-63 -140t-63 -137t-28.5 -111q0 -43 44 -43q71 0 234 240q26 93 67 191t71 150q21 35 61 50.5t74 15.5q29 0 29 -14q0 -8 -24 -36q-39 -48 -113.5 -243t-74.5 -301q0 -33 16 -49.5t40 -16.5
t50.5 21.5t41.5 43.5l15 21q8 14 20 14q8 0 14.5 -6t6.5 -14q0 -4 -2.5 -10t-4.5 -10l-2 -4q-3 -5 -8.5 -13.5t-23.5 -29.5t-37 -37t-47 -29.5t-56 -13.5zM631 811q-4 0 -14 -6q-96 -54 -119 -54q-7 0 -12.5 5.5t-5.5 11.5q0 13 16 24q56 38 98 83q2 2 5.5 6.5t5 6.5t5 5.5
l5.5 5.5t5.5 4t7 3t7.5 2t9 1q10 0 16.5 -3.5t9 -7t7 -12.5t8.5 -15q30 -49 66 -78q18 -12 18 -23q0 -7 -5.5 -13t-13.5 -6q-12 0 -43 13.5t-65 40.5q-6 6 -11 6z" />
    <glyph glyph-name="Udieresis" unicode="&#xdc;" horiz-adv-x="836" 
d="M696 -10q-56 0 -101 39.5t-45 98.5q0 23 2 36q-118 -174 -245 -174q-56 0 -97.5 34.5t-41.5 80.5q0 54 48.5 157t97 204.5t48.5 152.5q0 45 -43 45q-53 0 -125.5 -60t-72.5 -127q0 -27 12.5 -49.5t25 -35.5t12.5 -17q0 -20 -21 -20q-47 0 -103.5 42.5t-56.5 96.5
q0 59 59.5 113.5t142 85.5t156.5 31q62 0 101 -29t39 -76q0 -44 -28.5 -118t-63 -140t-63 -137t-28.5 -111q0 -43 44 -43q71 0 234 240q26 93 67 191t71 150q21 35 61 50.5t74 15.5q29 0 29 -14q0 -8 -24 -36q-39 -48 -113.5 -243t-74.5 -301q0 -33 16 -49.5t40 -16.5
t50.5 21.5t41.5 43.5l15 21q8 14 20 14q8 0 14.5 -6t6.5 -14q0 -4 -2.5 -10t-4.5 -10l-2 -4q-3 -5 -8.5 -13.5t-23.5 -29.5t-37 -37t-47 -29.5t-56 -13.5zM634 784q0 27 21 52t48 25q19 0 30.5 -13.5t11.5 -34.5q0 -28 -20.5 -53t-50.5 -25q-17 0 -28.5 14t-11.5 35z
M489 784q0 27 21 52t48 25q19 0 30.5 -13.5t11.5 -34.5q0 -28 -20.5 -53t-50.5 -25q-17 0 -28.5 14t-11.5 35z" />
    <glyph glyph-name="Yacute" unicode="&#xdd;" horiz-adv-x="773" 
d="M805 113q-51 -85 -195 -135q-48 -130 -109.5 -196.5t-156.5 -66.5q-75 0 -129.5 44.5t-54.5 95.5q0 22 10 40t24.5 31t42 24t49.5 18t60.5 13.5t62.5 10t67 8.5q5 0 8 1q30 75 66 187q-107 -102 -197 -102q-52 0 -95 35.5t-43 81.5q0 40 23 98.5t50.5 108.5t50.5 109
t23 100q0 45 -43 45q-53 0 -125.5 -60t-72.5 -127q0 -27 12.5 -49.5t25 -35.5t12.5 -17q0 -20 -21 -20q-46 0 -98 42t-52 97q0 59 56.5 113.5t137 85.5t154.5 31q61 0 103.5 -33t42.5 -81q0 -58 -32 -132t-63.5 -140t-31.5 -103q0 -25 12.5 -41.5t34.5 -16.5q29 0 67.5 30
t65 61.5t50.5 65.5q42 132 66 186.5t68 130.5q21 36 56.5 51t68.5 15q29 0 29 -14q0 -8 -24 -36q-21 -26 -64 -117.5t-71 -185.5q-93 -317 -96 -328q98 37 143 107q8 14 20 14q8 0 14.5 -6t6.5 -14q0 -4 -2 -10t-4 -10zM308 -228q41 0 77 41t73 126q-85 -16 -142 -49
t-57 -70q0 -20 15 -34t34 -14zM691 832q12 0 31.5 -25t19.5 -41q0 -22 -24 -42q-29 -25 -73.5 -39.5t-72.5 -14.5q-18 0 -18 15q0 10 16 19q46 28 97 108q12 20 24 20z" />
    <glyph glyph-name="germandbls" unicode="&#xdf;" horiz-adv-x="485" 
d="M198 99q16 0 34.5 -7.5t29.5 -15.5l10 -8q12 19 12 42q0 50 -33.5 116t-33.5 94q0 33 34.5 84.5t69.5 106t35 93.5q0 10 -7.5 17.5t-16.5 7.5q-56 0 -112 -119.5t-87.5 -263t-31.5 -236.5q0 -20 -18 -20q-36 0 -67 14t-31 40q0 51 15.5 131.5t45.5 170t68.5 168t90.5 130
t105 51.5q49 0 97 -38.5t48 -88.5q0 -37 -25.5 -77t-56.5 -67t-56.5 -52.5t-25.5 -37.5t16.5 -33.5t35.5 -44.5t35.5 -59t16.5 -73q0 -8 -3.5 -22t-7.5 -24l-3 -10q26 6 52 25t39 35l13 15q8 14 20 14q8 0 14.5 -6t6.5 -14q0 -4 -2 -10t-4 -10l-3 -4q-25 -40 -107.5 -82
t-157.5 -42q-50 0 -79 19t-29 39q0 16 20 34t34 18z" />
    <glyph glyph-name="agrave" unicode="&#xe0;" horiz-adv-x="475" 
d="M507 113q-3 -5 -8.5 -13.5t-23.5 -29.5t-37 -37t-47 -29.5t-56 -13.5q-43 0 -71.5 22t-33.5 63q-7 -10 -20.5 -24t-50.5 -37.5t-71 -23.5q-41 0 -70.5 29.5t-29.5 74.5q0 108 73.5 202.5t156.5 94.5q36 0 63 -11.5t37 -23.5l9 -12q27 0 49 -11.5t22 -35.5
q0 -10 -29 -91.5t-29 -120.5q0 -12 7.5 -20t20.5 -8q24 0 51 21.5t41 43.5l15 21q8 14 20 14q8 0 14.5 -6t6.5 -14q0 -4 -2.5 -10t-4.5 -10zM275 290q0 21 -10 32t-26 11q-42 0 -85.5 -78t-43.5 -144q0 -45 29 -45q36 0 86 83t50 141zM224 589q16 0 24 -20q14 -35 41.5 -72
t49.5 -50q16 -9 16 -19q0 -15 -18 -15q-23 0 -66.5 20.5t-74.5 47.5q-24 20 -24 42q0 16 20 41t32 25z" />
    <glyph glyph-name="aacute" unicode="&#xe1;" horiz-adv-x="475" 
d="M507 113q-3 -5 -8.5 -13.5t-23.5 -29.5t-37 -37t-47 -29.5t-56 -13.5q-43 0 -71.5 22t-33.5 63q-7 -10 -20.5 -24t-50.5 -37.5t-71 -23.5q-41 0 -70.5 29.5t-29.5 74.5q0 108 73.5 202.5t156.5 94.5q36 0 63 -11.5t37 -23.5l9 -12q27 0 49 -11.5t22 -35.5
q0 -10 -29 -91.5t-29 -120.5q0 -12 7.5 -20t20.5 -8q24 0 51 21.5t41 43.5l15 21q8 14 20 14q8 0 14.5 -6t6.5 -14q0 -4 -2.5 -10t-4.5 -10zM275 290q0 21 -10 32t-26 11q-42 0 -85.5 -78t-43.5 -144q0 -45 29 -45q36 0 86 83t50 141zM353 591q12 0 31.5 -25t19.5 -41
q0 -22 -24 -42q-29 -25 -73.5 -39.5t-72.5 -14.5q-18 0 -18 15q0 10 16 19q46 28 97 108q12 20 24 20z" />
    <glyph glyph-name="acircumflex" unicode="&#xe2;" horiz-adv-x="475" 
d="M507 113q-3 -5 -8.5 -13.5t-23.5 -29.5t-37 -37t-47 -29.5t-56 -13.5q-43 0 -71.5 22t-33.5 63q-7 -10 -20.5 -24t-50.5 -37.5t-71 -23.5q-41 0 -70.5 29.5t-29.5 74.5q0 108 73.5 202.5t156.5 94.5q36 0 63 -11.5t37 -23.5l9 -12q27 0 49 -11.5t22 -35.5
q0 -10 -29 -91.5t-29 -120.5q0 -12 7.5 -20t20.5 -8q24 0 51 21.5t41 43.5l15 21q8 14 20 14q8 0 14.5 -6t6.5 -14q0 -4 -2.5 -10t-4.5 -10zM275 290q0 21 -10 32t-26 11q-42 0 -85.5 -78t-43.5 -144q0 -45 29 -45q36 0 86 83t50 141zM289 482q-4 0 -14 -6q-96 -54 -119 -54
q-7 0 -12.5 5.5t-5.5 11.5q0 13 16 24q56 38 98 83q2 2 5.5 6.5t5 6.5t5 5.5l5.5 5.5t5.5 4t7 3t7.5 2t9 1q10 0 16.5 -3.5t9 -7t7 -12.5t8.5 -15q30 -49 66 -78q18 -12 18 -23q0 -7 -5.5 -13t-13.5 -6q-12 0 -43 13.5t-65 40.5q-6 6 -11 6z" />
    <glyph glyph-name="atilde" unicode="&#xe3;" horiz-adv-x="475" 
d="M507 113q-3 -5 -8.5 -13.5t-23.5 -29.5t-37 -37t-47 -29.5t-56 -13.5q-43 0 -71.5 22t-33.5 63q-7 -10 -20.5 -24t-50.5 -37.5t-71 -23.5q-41 0 -70.5 29.5t-29.5 74.5q0 108 73.5 202.5t156.5 94.5q36 0 63 -11.5t37 -23.5l9 -12q27 0 49 -11.5t22 -35.5
q0 -10 -29 -91.5t-29 -120.5q0 -12 7.5 -20t20.5 -8q24 0 51 21.5t41 43.5l15 21q8 14 20 14q8 0 14.5 -6t6.5 -14q0 -4 -2.5 -10t-4.5 -10zM275 290q0 21 -10 32t-26 11q-42 0 -85.5 -78t-43.5 -144q0 -45 29 -45q36 0 86 83t50 141zM356 418q-24 0 -88 18t-87 18
q-14 0 -36 -10t-25 -10q-13 0 -13 13q0 8 11 23q16 22 41.5 42t49.5 20t83 -19t84 -19q19 0 42.5 11.5t26.5 11.5q13 0 13 -10q0 -9 -6 -19q-49 -70 -96 -70z" />
    <glyph glyph-name="adieresis" unicode="&#xe4;" horiz-adv-x="475" 
d="M507 113q-3 -5 -8.5 -13.5t-23.5 -29.5t-37 -37t-47 -29.5t-56 -13.5q-43 0 -71.5 22t-33.5 63q-7 -10 -20.5 -24t-50.5 -37.5t-71 -23.5q-41 0 -70.5 29.5t-29.5 74.5q0 108 73.5 202.5t156.5 94.5q36 0 63 -11.5t37 -23.5l9 -12q27 0 49 -11.5t22 -35.5
q0 -10 -29 -91.5t-29 -120.5q0 -12 7.5 -20t20.5 -8q24 0 51 21.5t41 43.5l15 21q8 14 20 14q8 0 14.5 -6t6.5 -14q0 -4 -2.5 -10t-4.5 -10zM275 290q0 21 -10 32t-26 11q-42 0 -85.5 -78t-43.5 -144q0 -45 29 -45q36 0 86 83t50 141zM119 470q0 27 21 52t48 25
q19 0 30.5 -13.5t11.5 -34.5q0 -28 -20.5 -53t-50.5 -25q-17 0 -28.5 14t-11.5 35zM264 470q0 27 21 52t48 25q19 0 30.5 -13.5t11.5 -34.5q0 -28 -20.5 -53t-50.5 -25q-17 0 -28.5 14t-11.5 35z" />
    <glyph glyph-name="aring" unicode="&#xe5;" horiz-adv-x="475" 
d="M507 113q-3 -5 -8.5 -13.5t-23.5 -29.5t-37 -37t-47 -29.5t-56 -13.5q-43 0 -71.5 22t-33.5 63q-7 -10 -20.5 -24t-50.5 -37.5t-71 -23.5q-41 0 -70.5 29.5t-29.5 74.5q0 108 73.5 202.5t156.5 94.5q36 0 63 -11.5t37 -23.5l9 -12q27 0 49 -11.5t22 -35.5
q0 -10 -29 -91.5t-29 -120.5q0 -12 7.5 -20t20.5 -8q24 0 51 21.5t41 43.5l15 21q8 14 20 14q8 0 14.5 -6t6.5 -14q0 -4 -2.5 -10t-4.5 -10zM275 290q0 21 -10 32t-26 11q-42 0 -85.5 -78t-43.5 -144q0 -45 29 -45q36 0 86 83t50 141zM253 535q0 -18 13 -31t31 -13t30 13
t12 31t-12 30t-30 12t-31 -12t-13 -30zM193 535q0 43 30.5 73.5t73.5 30.5t73.5 -30.5t30.5 -73.5t-30.5 -73.5t-73.5 -30.5t-73.5 30.5t-30.5 73.5z" />
    <glyph glyph-name="ae" unicode="&#xe6;" horiz-adv-x="602" 
d="M633 113q-3 -5 -8.5 -13.5t-26 -29.5t-44 -37t-62 -29.5t-81.5 -13.5q-63 0 -105 29t-55 79q-13 -16 -33 -36.5t-59.5 -46t-70.5 -25.5q-41 0 -70.5 29.5t-29.5 74.5q0 108 73.5 202.5t156.5 94.5q36 0 64 -13.5t38 -26.5l11 -13q17 18 58.5 35.5t71.5 17.5
q45 0 77.5 -32t32.5 -73q0 -20 -8 -43.5t-25.5 -48t-51.5 -40.5t-78 -16l-38 6q0 -44 21 -68.5t57 -24.5q42 0 80.5 23t55.5 46l18 23q9 14 22 14q8 0 14.5 -6t6.5 -14q0 -4 -3 -10t-6 -10zM275 290q0 21 -10 32t-26 11q-42 0 -85.5 -78t-43.5 -144q0 -45 29 -45q36 0 86 83
t50 141zM375 185q50 0 90 49t40 86q0 20 -18 20q-39 0 -75.5 -56t-36.5 -99z" />
    <glyph glyph-name="ccedilla" unicode="&#xe7;" horiz-adv-x="370" 
d="M402 113q-3 -4 -8.5 -11t-24 -25.5t-39 -33.5t-52.5 -30t-65 -20q0 -36 18 -36q8 0 25.5 2t24.5 2q28 0 28 -34q0 -45 -44 -88.5t-117 -43.5q-31 0 -51 12.5t-20 32.5q0 16 11 28.5t25 12.5q13 0 28 -15t36 -15q28 0 55 19.5t27 29.5q0 5 -5 5q-15 0 -43.5 -7.5
t-38.5 -7.5q-11 0 -18 8t-7 17q0 27 11 76q-68 4 -115 41.5t-47 109.5q0 97 72 173t152 76q50 0 82 -30t32 -67q0 -25 -20 -50.5t-40 -25.5t-35.5 12.5t-15.5 29.5q0 19 20 35.5t20 25.5q0 8 -8.5 14.5t-20.5 6.5q-43 0 -79 -59.5t-36 -128.5q0 -50 27.5 -76t71.5 -26
q40 0 78 22.5t56 45.5l18 23q10 14 22 14q9 0 15 -6t6 -14q0 -4 -2.5 -10t-5.5 -10z" />
    <glyph glyph-name="egrave" unicode="&#xe8;" horiz-adv-x="357" 
d="M120 185q50 0 90 49t40 86q0 20 -18 20q-39 0 -75.5 -56t-36.5 -99zM389 113q-3 -5 -8.5 -13.5t-26 -29.5t-44 -37t-62.5 -29.5t-82 -13.5q-76 0 -125 41.5t-49 105.5q0 107 70.5 180.5t143.5 73.5q45 0 77.5 -32t32.5 -73q0 -20 -8 -43.5t-25.5 -48t-51.5 -40.5t-78 -16
l-38 6q0 -43 25.5 -68t62.5 -25q42 0 80.5 23t56.5 46l17 23q8 14 20 14q8 0 14.5 -6t6.5 -14q0 -4 -2 -10t-4 -10zM175 602q16 0 24 -20q14 -35 41.5 -72t49.5 -50q16 -9 16 -19q0 -15 -18 -15q-23 0 -66.5 20.5t-74.5 47.5q-24 20 -24 42q0 16 20 41t32 25z" />
    <glyph glyph-name="eacute" unicode="&#xe9;" horiz-adv-x="357" 
d="M120 185q50 0 90 49t40 86q0 20 -18 20q-39 0 -75.5 -56t-36.5 -99zM389 113q-3 -5 -8.5 -13.5t-26 -29.5t-44 -37t-62.5 -29.5t-82 -13.5q-76 0 -125 41.5t-49 105.5q0 107 70.5 180.5t143.5 73.5q45 0 77.5 -32t32.5 -73q0 -20 -8 -43.5t-25.5 -48t-51.5 -40.5t-78 -16
l-38 6q0 -43 25.5 -68t62.5 -25q42 0 80.5 23t56.5 46l17 23q8 14 20 14q8 0 14.5 -6t6.5 -14q0 -4 -2 -10t-4 -10zM267 595q12 0 31.5 -25t19.5 -41q0 -22 -24 -42q-29 -25 -73.5 -39.5t-72.5 -14.5q-18 0 -18 15q0 10 16 19q46 28 97 108q12 20 24 20z" />
    <glyph glyph-name="ecircumflex" unicode="&#xea;" horiz-adv-x="357" 
d="M120 185q50 0 90 49t40 86q0 20 -18 20q-39 0 -75.5 -56t-36.5 -99zM389 113q-3 -5 -8.5 -13.5t-26 -29.5t-44 -37t-62.5 -29.5t-82 -13.5q-76 0 -125 41.5t-49 105.5q0 107 70.5 180.5t143.5 73.5q45 0 77.5 -32t32.5 -73q0 -20 -8 -43.5t-25.5 -48t-51.5 -40.5t-78 -16
l-38 6q0 -43 25.5 -68t62.5 -25q42 0 80.5 23t56.5 46l17 23q8 14 20 14q8 0 14.5 -6t6.5 -14q0 -4 -2 -10t-4 -10zM223 478q-4 0 -14 -6q-96 -54 -119 -54q-7 0 -12.5 5.5t-5.5 11.5q0 13 16 24q56 38 98 83q2 2 5.5 6.5t5 6.5t5 5.5l5.5 5.5t5.5 4t7 3t7.5 2t9 1
q10 0 16.5 -3.5t9 -7t7 -12.5t8.5 -15q30 -49 66 -78q18 -12 18 -23q0 -7 -5.5 -13t-13.5 -6q-12 0 -43 13.5t-65 40.5q-6 6 -11 6z" />
    <glyph glyph-name="edieresis" unicode="&#xeb;" horiz-adv-x="357" 
d="M120 185q50 0 90 49t40 86q0 20 -18 20q-39 0 -75.5 -56t-36.5 -99zM389 113q-3 -5 -8.5 -13.5t-26 -29.5t-44 -37t-62.5 -29.5t-82 -13.5q-76 0 -125 41.5t-49 105.5q0 107 70.5 180.5t143.5 73.5q45 0 77.5 -32t32.5 -73q0 -20 -8 -43.5t-25.5 -48t-51.5 -40.5t-78 -16
l-38 6q0 -43 25.5 -68t62.5 -25q42 0 80.5 23t56.5 46l17 23q8 14 20 14q8 0 14.5 -6t6.5 -14q0 -4 -2 -10t-4 -10zM98 480q0 27 21 52t48 25q19 0 30.5 -13.5t11.5 -34.5q0 -28 -20.5 -53t-50.5 -25q-17 0 -28.5 14t-11.5 35zM243 480q0 27 21 52t48 25q19 0 30.5 -13.5
t11.5 -34.5q0 -28 -20.5 -53t-50.5 -25q-17 0 -28.5 14t-11.5 35z" />
    <glyph glyph-name="igrave" unicode="&#xec;" horiz-adv-x="253" 
d="M114 95q0 -38 32 -38q24 0 50.5 21.5t41.5 43.5l15 21q8 14 20 14q8 0 14.5 -6t6.5 -14q0 -4 -2 -10t-4 -10l-3 -4q-3 -5 -8.5 -13.5t-23.5 -29.5t-37 -37t-47 -29.5t-56 -13.5q-57 0 -92 30.5t-35 79.5q0 47 26 129t52 143q9 19 27 19q21 0 50 -22.5t29 -34.5
q0 -25 -28 -105.5t-28 -133.5zM93 610q16 0 24 -20q14 -35 41.5 -72t49.5 -50q16 -9 16 -19q0 -15 -18 -15q-23 0 -66.5 20.5t-74.5 47.5q-24 20 -24 42q0 16 20 41t32 25z" />
    <glyph glyph-name="iacute" unicode="&#xed;" horiz-adv-x="253" 
d="M114 95q0 -38 32 -38q24 0 50.5 21.5t41.5 43.5l15 21q8 14 20 14q8 0 14.5 -6t6.5 -14q0 -4 -2 -10t-4 -10l-3 -4q-3 -5 -8.5 -13.5t-23.5 -29.5t-37 -37t-47 -29.5t-56 -13.5q-57 0 -92 30.5t-35 79.5q0 47 26 129t52 143q9 19 27 19q21 0 50 -22.5t29 -34.5
q0 -25 -28 -105.5t-28 -133.5zM189 597q12 0 31.5 -25t19.5 -41q0 -22 -24 -42q-29 -25 -73.5 -39.5t-72.5 -14.5q-18 0 -18 15q0 10 16 19q46 28 97 108q12 20 24 20z" />
    <glyph glyph-name="icircumflex" unicode="&#xee;" horiz-adv-x="253" 
d="M114 95q0 -38 32 -38q24 0 50.5 21.5t41.5 43.5l15 21q8 14 20 14q8 0 14.5 -6t6.5 -14q0 -4 -2 -10t-4 -10l-3 -4q-3 -5 -8.5 -13.5t-23.5 -29.5t-37 -37t-47 -29.5t-56 -13.5q-57 0 -92 30.5t-35 79.5q0 47 26 129t52 143q9 19 27 19q21 0 50 -22.5t29 -34.5
q0 -25 -28 -105.5t-28 -133.5zM135 477q-4 0 -14 -6q-96 -54 -119 -54q-7 0 -12.5 5.5t-5.5 11.5q0 13 16 24q56 38 98 83q2 2 5.5 6.5t5 6.5t5 5.5l5.5 5.5t5.5 4t7 3t7.5 2t9 1q10 0 16.5 -3.5t9 -7t7 -12.5t8.5 -15q30 -49 66 -78q18 -12 18 -23q0 -7 -5.5 -13t-13.5 -6
q-12 0 -43 13.5t-65 40.5q-6 6 -11 6z" />
    <glyph glyph-name="idieresis" unicode="&#xef;" horiz-adv-x="253" 
d="M114 95q0 -38 32 -38q24 0 50.5 21.5t41.5 43.5l15 21q8 14 20 14q8 0 14.5 -6t6.5 -14q0 -4 -2 -10t-4 -10l-3 -4q-3 -5 -8.5 -13.5t-23.5 -29.5t-37 -37t-47 -29.5t-56 -13.5q-57 0 -92 30.5t-35 79.5q0 47 26 129t52 143q9 19 27 19q21 0 50 -22.5t29 -34.5
q0 -25 -28 -105.5t-28 -133.5zM12 486q0 27 21 52t48 25q19 0 30.5 -13.5t11.5 -34.5q0 -28 -20.5 -53t-50.5 -25q-17 0 -28.5 14t-11.5 35zM157 486q0 27 21 52t48 25q19 0 30.5 -13.5t11.5 -34.5q0 -28 -20.5 -53t-50.5 -25q-17 0 -28.5 14t-11.5 35z" />
    <glyph glyph-name="eth" unicode="&#xf0;" horiz-adv-x="405" 
d="M336 530l-57 -22q7 -10 22 -33t22 -34t19 -30.5t18 -31.5t12.5 -27t9.5 -27.5t3 -23.5q0 -57 -29 -127.5t-86.5 -127t-124.5 -56.5q-49 0 -101 38t-52 111q0 59 28 124t84 113.5t123 48.5l-35 49l-84 -33q-8 -3 -11 3q-4 6 -2.5 29t9.5 26l55 21q-28 39 -39 55
q-6 10 -6 17q0 9 27.5 26.5t40.5 17.5q11 0 17 -9l48 -72l84 33q8 3 12 -2q4 -6 2 -29.5t-9 -26.5zM99 93q0 -51 44 -51q38 0 89.5 103.5t51.5 174.5q0 16 -10.5 28.5t-25.5 12.5q-26 0 -61.5 -45t-61.5 -109t-26 -114z" />
    <glyph glyph-name="ntilde" unicode="&#xf1;" horiz-adv-x="489" 
d="M350 95q0 -38 32 -38q24 0 51 21.5t41 43.5l15 21q8 14 20 14q8 0 14.5 -6t6.5 -14q0 -4 -2 -10t-4 -10l-3 -4q-3 -5 -8.5 -13.5t-23.5 -29.5t-37 -37t-47 -29.5t-56 -13.5q-56 0 -91.5 29t-35.5 72q0 44 25.5 115.5t25.5 98.5q0 7 -6 11.5t-14 4.5q-51 0 -102.5 -89
t-51.5 -222q0 -20 -22 -20q-40 0 -67 15.5t-27 39.5q0 116 81 317q8 19 27 19q35 0 70 -54q8 7 22.5 17.5t55.5 28.5t79 18q32 0 58.5 -28t26.5 -58q0 -29 -26.5 -101t-26.5 -109zM344 436q-24 0 -88 18t-87 18q-14 0 -36 -10t-25 -10q-13 0 -13 13q0 8 11 23q16 22 41.5 42
t49.5 20t83 -19t84 -19q19 0 42.5 11.5t26.5 11.5q13 0 13 -10q0 -9 -6 -19q-49 -70 -96 -70z" />
    <glyph glyph-name="ograve" unicode="&#xf2;" horiz-adv-x="445" 
d="M477 113q-2 -3 -6.5 -9t-21 -21t-35 -26t-48.5 -20.5t-63 -9.5q-18 0 -39 3q-51 -40 -114 -40t-109.5 41.5t-46.5 99.5q0 118 73 189t159 71q64 0 105.5 -40t41.5 -108q0 -87 -62 -166q10 -2 16 -2q30 0 59.5 17t43.5 34l15 17q8 14 20 14q8 0 14.5 -6t6.5 -14
q0 -4 -2 -10t-4 -10zM112 106q0 -30 13 -49t35 -19q16 0 31 12q-17 11 -17 24q0 16 18.5 32.5t31.5 16.5q5 0 11 -2q31 77 31 156q0 63 -39 63q-37 0 -76 -70t-39 -164zM207 609q16 0 24 -20q14 -35 41.5 -72t49.5 -50q16 -9 16 -19q0 -15 -18 -15q-23 0 -66.5 20.5
t-74.5 47.5q-24 20 -24 42q0 16 20 41t32 25z" />
    <glyph glyph-name="oacute" unicode="&#xf3;" horiz-adv-x="445" 
d="M477 113q-2 -3 -6.5 -9t-21 -21t-35 -26t-48.5 -20.5t-63 -9.5q-18 0 -39 3q-51 -40 -114 -40t-109.5 41.5t-46.5 99.5q0 118 73 189t159 71q64 0 105.5 -40t41.5 -108q0 -87 -62 -166q10 -2 16 -2q30 0 59.5 17t43.5 34l15 17q8 14 20 14q8 0 14.5 -6t6.5 -14
q0 -4 -2 -10t-4 -10zM112 106q0 -30 13 -49t35 -19q16 0 31 12q-17 11 -17 24q0 16 18.5 32.5t31.5 16.5q5 0 11 -2q31 77 31 156q0 63 -39 63q-37 0 -76 -70t-39 -164zM311 599q12 0 31.5 -25t19.5 -41q0 -22 -24 -42q-29 -25 -73.5 -39.5t-72.5 -14.5q-18 0 -18 15
q0 10 16 19q46 28 97 108q12 20 24 20z" />
    <glyph glyph-name="ocircumflex" unicode="&#xf4;" horiz-adv-x="445" 
d="M477 113q-2 -3 -6.5 -9t-21 -21t-35 -26t-48.5 -20.5t-63 -9.5q-18 0 -39 3q-51 -40 -114 -40t-109.5 41.5t-46.5 99.5q0 118 73 189t159 71q64 0 105.5 -40t41.5 -108q0 -87 -62 -166q10 -2 16 -2q30 0 59.5 17t43.5 34l15 17q8 14 20 14q8 0 14.5 -6t6.5 -14
q0 -4 -2 -10t-4 -10zM112 106q0 -30 13 -49t35 -19q16 0 31 12q-17 11 -17 24q0 16 18.5 32.5t31.5 16.5q5 0 11 -2q31 77 31 156q0 63 -39 63q-37 0 -76 -70t-39 -164zM255 474q-4 0 -14 -6q-96 -54 -119 -54q-7 0 -12.5 5.5t-5.5 11.5q0 13 16 24q56 38 98 83q2 2 5.5 6.5
t5 6.5t5 5.5l5.5 5.5t5.5 4t7 3t7.5 2t9 1q10 0 16.5 -3.5t9 -7t7 -12.5t8.5 -15q30 -49 66 -78q18 -12 18 -23q0 -7 -5.5 -13t-13.5 -6q-12 0 -43 13.5t-65 40.5q-6 6 -11 6z" />
    <glyph glyph-name="otilde" unicode="&#xf5;" horiz-adv-x="445" 
d="M477 113q-2 -3 -6.5 -9t-21 -21t-35 -26t-48.5 -20.5t-63 -9.5q-18 0 -39 3q-51 -40 -114 -40t-109.5 41.5t-46.5 99.5q0 118 73 189t159 71q64 0 105.5 -40t41.5 -108q0 -87 -62 -166q10 -2 16 -2q30 0 59.5 17t43.5 34l15 17q8 14 20 14q8 0 14.5 -6t6.5 -14
q0 -4 -2 -10t-4 -10zM112 106q0 -30 13 -49t35 -19q16 0 31 12q-17 11 -17 24q0 16 18.5 32.5t31.5 16.5q5 0 11 -2q31 77 31 156q0 63 -39 63q-37 0 -76 -70t-39 -164zM336 424q-24 0 -88 18t-87 18q-14 0 -36 -10t-25 -10q-13 0 -13 13q0 8 11 23q16 22 41.5 42t49.5 20
t83 -19t84 -19q19 0 42.5 11.5t26.5 11.5q13 0 13 -10q0 -9 -6 -19q-49 -70 -96 -70z" />
    <glyph glyph-name="odieresis" unicode="&#xf6;" horiz-adv-x="445" 
d="M477 113q-2 -3 -6.5 -9t-21 -21t-35 -26t-48.5 -20.5t-63 -9.5q-18 0 -39 3q-51 -40 -114 -40t-109.5 41.5t-46.5 99.5q0 118 73 189t159 71q64 0 105.5 -40t41.5 -108q0 -87 -62 -166q10 -2 16 -2q30 0 59.5 17t43.5 34l15 17q8 14 20 14q8 0 14.5 -6t6.5 -14
q0 -4 -2 -10t-4 -10zM112 106q0 -30 13 -49t35 -19q16 0 31 12q-17 11 -17 24q0 16 18.5 32.5t31.5 16.5q5 0 11 -2q31 77 31 156q0 63 -39 63q-37 0 -76 -70t-39 -164zM134 483q0 27 21 52t48 25q19 0 30.5 -13.5t11.5 -34.5q0 -28 -20.5 -53t-50.5 -25q-17 0 -28.5 14
t-11.5 35zM279 483q0 27 21 52t48 25q19 0 30.5 -13.5t11.5 -34.5q0 -28 -20.5 -53t-50.5 -25q-17 0 -28.5 14t-11.5 35z" />
    <glyph glyph-name="divide" unicode="&#xf7;" horiz-adv-x="485" 
d="M154 173q0 27 22 52t50 25q20 0 32 -13.5t12 -34.5q0 -28 -21.5 -53t-52.5 -25q-18 0 -30 14t-12 35zM234 481q0 27 22 52t50 25q19 0 31.5 -14t12.5 -34q0 -28 -22 -53t-53 -25q-18 0 -29.5 14t-11.5 35zM420 293h-365q-15 0 -15 16q0 13 15.5 44.5t26.5 31.5h365
q18 0 18 -14q0 -12 -17 -45t-28 -33z" />
    <glyph glyph-name="oslash" unicode="&#xf8;" horiz-adv-x="445" 
d="M477 113q-2 -3 -6.5 -9t-21 -21t-35 -26t-48.5 -20.5t-63 -9.5q-18 0 -39 3q-51 -40 -114 -40q-9 0 -25 2l-6 -14q-3 -9 -13 -9h-27q-21 0 -21 10q0 5 3 11l9 20q-35 19 -55.5 51.5t-20.5 69.5q0 118 73 189t159 71q9 0 13 -1l13 28q4 9 14 9q17 0 33 -4t16 -10t-4 -14
l-12 -25q74 -38 74 -131q0 -87 -62 -166q10 -2 16 -2q30 0 59.5 17t43.5 34l15 17q8 14 20 14q8 0 14.5 -6t6.5 -14q0 -4 -2 -10t-4 -10zM112 106q0 -30 13 -49t35 -19q16 0 31 12q-17 11 -17 24q0 16 18.5 32.5t31.5 16.5q5 0 11 -2q31 77 31 156q0 63 -39 63
q-37 0 -76 -70t-39 -164z" />
    <glyph glyph-name="ugrave" unicode="&#xf9;" horiz-adv-x="488" 
d="M349 95q0 -38 32 -38q24 0 50.5 21.5t41.5 43.5l15 21q8 14 20 14q8 0 14.5 -6t6.5 -14q0 -4 -2.5 -10t-4.5 -10l-2 -4q-3 -5 -8.5 -13.5t-23.5 -29.5t-37 -37t-47 -29.5t-56 -13.5q-97 0 -121 75q-27 -31 -64 -53t-73 -22q-37 0 -70.5 29t-33.5 68q0 48 27 138.5
t51 146.5q9 19 27 19q21 0 50 -22.5t29 -34.5q0 -25 -32.5 -111.5t-32.5 -139.5q0 -30 23 -30t49 22.5t39 48.5q12 23 42.5 122.5t41.5 125.5q9 19 28 19q21 0 49.5 -22.5t28.5 -34.5q0 -25 -28.5 -105.5t-28.5 -133.5zM150 604q16 0 24 -20q14 -35 41.5 -72t49.5 -50
q16 -9 16 -19q0 -15 -18 -15q-23 0 -66.5 20.5t-74.5 47.5q-24 20 -24 42q0 16 20 41t32 25z" />
    <glyph glyph-name="uacute" unicode="&#xfa;" horiz-adv-x="488" 
d="M349 95q0 -38 32 -38q24 0 50.5 21.5t41.5 43.5l15 21q8 14 20 14q8 0 14.5 -6t6.5 -14q0 -4 -2.5 -10t-4.5 -10l-2 -4q-3 -5 -8.5 -13.5t-23.5 -29.5t-37 -37t-47 -29.5t-56 -13.5q-97 0 -121 75q-27 -31 -64 -53t-73 -22q-37 0 -70.5 29t-33.5 68q0 48 27 138.5
t51 146.5q9 19 27 19q21 0 50 -22.5t29 -34.5q0 -25 -32.5 -111.5t-32.5 -139.5q0 -30 23 -30t49 22.5t39 48.5q12 23 42.5 122.5t41.5 125.5q9 19 28 19q21 0 49.5 -22.5t28.5 -34.5q0 -25 -28.5 -105.5t-28.5 -133.5zM297 587q12 0 31.5 -25t19.5 -41q0 -22 -24 -42
q-29 -25 -73.5 -39.5t-72.5 -14.5q-18 0 -18 15q0 10 16 19q46 28 97 108q12 20 24 20z" />
    <glyph glyph-name="ucircumflex" unicode="&#xfb;" horiz-adv-x="488" 
d="M349 95q0 -38 32 -38q24 0 50.5 21.5t41.5 43.5l15 21q8 14 20 14q8 0 14.5 -6t6.5 -14q0 -4 -2.5 -10t-4.5 -10l-2 -4q-3 -5 -8.5 -13.5t-23.5 -29.5t-37 -37t-47 -29.5t-56 -13.5q-97 0 -121 75q-27 -31 -64 -53t-73 -22q-37 0 -70.5 29t-33.5 68q0 48 27 138.5
t51 146.5q9 19 27 19q21 0 50 -22.5t29 -34.5q0 -25 -32.5 -111.5t-32.5 -139.5q0 -30 23 -30t49 22.5t39 48.5q12 23 42.5 122.5t41.5 125.5q9 19 28 19q21 0 49.5 -22.5t28.5 -34.5q0 -25 -28.5 -105.5t-28.5 -133.5zM266 500q-4 0 -14 -6q-96 -54 -119 -54
q-7 0 -12.5 5.5t-5.5 11.5q0 13 16 24q56 38 98 83q2 2 5.5 6.5t5 6.5t5 5.5l5.5 5.5t5.5 4t7 3t7.5 2t9 1q10 0 16.5 -3.5t9 -7t7 -12.5t8.5 -15q30 -49 66 -78q18 -12 18 -23q0 -7 -5.5 -13t-13.5 -6q-12 0 -43 13.5t-65 40.5q-6 6 -11 6z" />
    <glyph glyph-name="udieresis" unicode="&#xfc;" horiz-adv-x="488" 
d="M349 95q0 -38 32 -38q24 0 50.5 21.5t41.5 43.5l15 21q8 14 20 14q8 0 14.5 -6t6.5 -14q0 -4 -2.5 -10t-4.5 -10l-2 -4q-3 -5 -8.5 -13.5t-23.5 -29.5t-37 -37t-47 -29.5t-56 -13.5q-97 0 -121 75q-27 -31 -64 -53t-73 -22q-37 0 -70.5 29t-33.5 68q0 48 27 138.5
t51 146.5q9 19 27 19q21 0 50 -22.5t29 -34.5q0 -25 -32.5 -111.5t-32.5 -139.5q0 -30 23 -30t49 22.5t39 48.5q12 23 42.5 122.5t41.5 125.5q9 19 28 19q21 0 49.5 -22.5t28.5 -34.5q0 -25 -28.5 -105.5t-28.5 -133.5zM124 493q0 27 21 52t48 25q19 0 30.5 -13.5
t11.5 -34.5q0 -28 -20.5 -53t-50.5 -25q-17 0 -28.5 14t-11.5 35zM269 493q0 27 21 52t48 25q19 0 30.5 -13.5t11.5 -34.5q0 -28 -20.5 -53t-50.5 -25q-17 0 -28.5 14t-11.5 35z" />
    <glyph glyph-name="yacute" unicode="&#xfd;" 
d="M346 71l-12 -45q82 48 132 117q10 14 22 14q9 0 15 -6t6 -14q0 -4 -2.5 -10t-5.5 -10l-3 -4q-62 -83 -179 -144q-15 -53 -30 -91.5t-39.5 -79t-59 -62t-77.5 -21.5q-46 0 -79.5 28t-33.5 67q0 47 51.5 82t157.5 77q9 32 22 96q-27 -31 -64 -53t-73 -22q-37 0 -70.5 29
t-33.5 68q0 48 27 138.5t51 146.5q9 19 27 19q21 0 50 -22.5t29 -34.5q0 -22 -32.5 -112t-32.5 -139q0 -30 23 -30q22 0 48 22.5t40 48.5q13 24 26.5 60.5t21.5 62t20.5 70t15.5 55.5q5 19 28 19q21 0 49.5 -22.5t28.5 -34.5q0 -45 -64 -263zM300 581q12 0 31.5 -25
t19.5 -41q0 -22 -24 -42q-29 -25 -73.5 -39.5t-72.5 -14.5q-18 0 -18 15q0 10 16 19q46 28 97 108q12 20 24 20zM88 -232q57 0 103 139q-52 -30 -86.5 -64t-34.5 -55q0 -20 18 -20z" />
    <glyph glyph-name="ydieresis" unicode="&#xff;" 
d="M346 71l-12 -45q82 48 132 117q10 14 22 14q9 0 15 -6t6 -14q0 -4 -2.5 -10t-5.5 -10l-3 -4q-62 -83 -179 -144q-15 -53 -30 -91.5t-39.5 -79t-59 -62t-77.5 -21.5q-46 0 -79.5 28t-33.5 67q0 47 51.5 82t157.5 77q9 32 22 96q-27 -31 -64 -53t-73 -22q-37 0 -70.5 29
t-33.5 68q0 48 27 138.5t51 146.5q9 19 27 19q21 0 50 -22.5t29 -34.5q0 -22 -32.5 -112t-32.5 -139q0 -30 23 -30q22 0 48 22.5t40 48.5q13 24 26.5 60.5t21.5 62t20.5 70t15.5 55.5q5 19 28 19q21 0 49.5 -22.5t28.5 -34.5q0 -45 -64 -263zM270 492q0 27 21 52t48 25
q19 0 30.5 -13.5t11.5 -34.5q0 -28 -20.5 -53t-50.5 -25q-17 0 -28.5 14t-11.5 35zM125 492q0 27 21 52t48 25q19 0 30.5 -13.5t11.5 -34.5q0 -28 -20.5 -53t-50.5 -25q-17 0 -28.5 14t-11.5 35zM88 -232q57 0 103 139q-52 -30 -86.5 -64t-34.5 -55q0 -20 18 -20z" />
    <glyph glyph-name="Amacron" unicode="&#x100;" horiz-adv-x="976" 
d="M836 -10q-58 0 -100 39t-42 99t15 127q-23 11 -69.5 37t-64.5 36q-9 -16 -32.5 -58.5t-31.5 -56.5t-28 -48t-29.5 -45.5t-28 -36.5t-31 -34t-31.5 -24t-36 -20.5t-39 -10t-45 -4.5q-90 0 -166.5 80.5t-76.5 182.5q0 100 69 166.5t180 66.5q106 0 268 -64
q100 163 166.5 232.5t140.5 69.5q46 0 80 -29q36 22 81 22q30 0 30 -14q0 -5 -24 -33q-21 -27 -66.5 -136.5t-77.5 -218.5h12q22 0 49.5 12.5t30.5 12.5q9 0 9 -12q0 -18 -40 -55.5t-83 -45.5q-13 -63 -13 -104q0 -33 16.5 -49.5t40.5 -16.5t50.5 21.5t41.5 43.5l15 21
q8 14 20 14q8 0 14.5 -6t6.5 -14q0 -4 -2.5 -10t-4.5 -10l-2 -4q-3 -5 -8.5 -13.5t-23.5 -29.5t-37 -37t-47 -29.5t-56 -13.5zM220 91q28 0 54 12.5t47 30.5t50.5 58t51.5 75t63 102q-87 34 -162 34q-106 0 -168 -51.5t-62 -137.5q0 -54 36.5 -88.5t89.5 -34.5zM607 384
q87 -35 123 -46q47 160 131 313l7 12q-12 4 -22 4q-51 0 -98.5 -59.5t-140.5 -223.5zM1024 775h-255q-16 0 -16 16q0 14 9.5 37t21.5 23h255q11 0 15 -3t4 -12q0 -14 -11 -37.5t-23 -23.5z" />
    <glyph glyph-name="amacron" unicode="&#x101;" horiz-adv-x="475" 
d="M507 113q-3 -5 -8.5 -13.5t-23.5 -29.5t-37 -37t-47 -29.5t-56 -13.5q-43 0 -71.5 22t-33.5 63q-7 -10 -20.5 -24t-50.5 -37.5t-71 -23.5q-41 0 -70.5 29.5t-29.5 74.5q0 108 73.5 202.5t156.5 94.5q36 0 63 -11.5t37 -23.5l9 -12q27 0 49 -11.5t22 -35.5
q0 -10 -29 -91.5t-29 -120.5q0 -12 7.5 -20t20.5 -8q24 0 51 21.5t41 43.5l15 21q8 14 20 14q8 0 14.5 -6t6.5 -14q0 -4 -2.5 -10t-4.5 -10zM275 290q0 21 -10 32t-26 11q-42 0 -85.5 -78t-43.5 -144q0 -45 29 -45q36 0 86 83t50 141zM416 426h-255q-16 0 -16 16
q0 14 9.5 37t21.5 23h255q11 0 15 -3t4 -12q0 -14 -11 -37.5t-23 -23.5z" />
    <glyph glyph-name="Abreve" unicode="&#x102;" horiz-adv-x="976" 
d="M836 -10q-58 0 -100 39t-42 99t15 127q-23 11 -69.5 37t-64.5 36q-9 -16 -32.5 -58.5t-31.5 -56.5t-28 -48t-29.5 -45.5t-28 -36.5t-31 -34t-31.5 -24t-36 -20.5t-39 -10t-45 -4.5q-90 0 -166.5 80.5t-76.5 182.5q0 100 69 166.5t180 66.5q106 0 268 -64
q100 163 166.5 232.5t140.5 69.5q46 0 80 -29q36 22 81 22q30 0 30 -14q0 -5 -24 -33q-21 -27 -66.5 -136.5t-77.5 -218.5h12q22 0 49.5 12.5t30.5 12.5q9 0 9 -12q0 -18 -40 -55.5t-83 -45.5q-13 -63 -13 -104q0 -33 16.5 -49.5t40.5 -16.5t50.5 21.5t41.5 43.5l15 21
q8 14 20 14q8 0 14.5 -6t6.5 -14q0 -4 -2.5 -10t-4.5 -10l-2 -4q-3 -5 -8.5 -13.5t-23.5 -29.5t-37 -37t-47 -29.5t-56 -13.5zM220 91q28 0 54 12.5t47 30.5t50.5 58t51.5 75t63 102q-87 34 -162 34q-106 0 -168 -51.5t-62 -137.5q0 -54 36.5 -88.5t89.5 -34.5zM607 384
q87 -35 123 -46q47 160 131 313l7 12q-12 4 -22 4q-51 0 -98.5 -59.5t-140.5 -223.5zM917 765q-56 0 -91 27.5t-35 74.5q0 26 16.5 41.5t38.5 15.5q31 0 31 -31q0 -10 -4.5 -19t-4.5 -17q0 -14 15.5 -22.5t40.5 -8.5q33 0 49.5 13.5t16.5 34.5q0 48 44 48q18 0 29 -10.5
t11 -28.5q0 -25 -19 -54q-45 -64 -138 -64z" />
    <glyph glyph-name="abreve" unicode="&#x103;" horiz-adv-x="475" 
d="M507 113q-3 -5 -8.5 -13.5t-23.5 -29.5t-37 -37t-47 -29.5t-56 -13.5q-43 0 -71.5 22t-33.5 63q-7 -10 -20.5 -24t-50.5 -37.5t-71 -23.5q-41 0 -70.5 29.5t-29.5 74.5q0 108 73.5 202.5t156.5 94.5q36 0 63 -11.5t37 -23.5l9 -12q27 0 49 -11.5t22 -35.5
q0 -10 -29 -91.5t-29 -120.5q0 -12 7.5 -20t20.5 -8q24 0 51 21.5t41 43.5l15 21q8 14 20 14q8 0 14.5 -6t6.5 -14q0 -4 -2.5 -10t-4.5 -10zM275 290q0 21 -10 32t-26 11q-42 0 -85.5 -78t-43.5 -144q0 -45 29 -45q36 0 86 83t50 141zM305 428q-56 0 -91 27.5t-35 74.5
q0 26 16.5 41.5t38.5 15.5q31 0 31 -31q0 -10 -4.5 -19t-4.5 -17q0 -14 15.5 -22.5t40.5 -8.5q33 0 49.5 13.5t16.5 34.5q0 48 44 48q18 0 29 -10.5t11 -28.5q0 -26 -19 -54q-45 -64 -138 -64z" />
    <glyph glyph-name="Aogonek" unicode="&#x104;" horiz-adv-x="976" 
d="M824 724q46 0 80 -29q36 22 81 22q30 0 30 -14q0 -5 -24 -33q-21 -27 -66.5 -136.5t-77.5 -218.5h12q22 0 49.5 12.5t30.5 12.5q9 0 9 -12q0 -18 -40 -55.5t-83 -45.5q-13 -63 -13 -104q0 -33 16.5 -49.5t40.5 -16.5t50.5 21.5t41.5 43.5l15 21q8 14 20 14q8 0 14.5 -6
t6.5 -14q0 -4 -2.5 -10t-4.5 -10l-2 -4q-3 -4 -7.5 -11t-20 -26t-31.5 -34t-40.5 -29.5t-48.5 -19.5q-1 -1 -9 -6.5t-11 -7.5t-10 -8t-10.5 -10t-7.5 -9.5t-6 -12t-2 -12.5q0 -20 21 -36t56 -16q17 0 17 -10t-15 -25q-37 -39 -74 -39q-28 0 -56 30.5t-28 63.5q0 58 71 101
q-44 12 -73 47.5t-29 84.5q0 60 15 127q-23 11 -69.5 37t-64.5 36q-9 -16 -32.5 -58.5t-31.5 -56.5t-28 -48t-29.5 -45.5t-28 -36.5t-31 -34t-31.5 -24t-36 -20.5t-39 -10t-45 -4.5q-90 0 -166.5 80.5t-76.5 182.5q0 100 69 166.5t180 66.5q106 0 268 -64
q100 163 166.5 232.5t140.5 69.5zM220 91q28 0 54 12.5t47 30.5t50.5 58t51.5 75t63 102q-87 34 -162 34q-106 0 -168 -51.5t-62 -137.5q0 -54 36.5 -88.5t89.5 -34.5zM607 384q87 -35 123 -46q47 160 131 313l7 12q-12 4 -22 4q-51 0 -98.5 -59.5t-140.5 -223.5z" />
    <glyph glyph-name="aogonek" unicode="&#x105;" horiz-adv-x="475" 
d="M507 113q-3 -4 -8 -11.5t-21 -27.5t-33.5 -35.5t-43.5 -30t-51 -17.5q-50 -30 -50 -62q0 -20 21 -36t56 -16q17 0 17 -10t-15 -25q-37 -39 -74 -39q-28 0 -56 30.5t-28 63.5q0 59 71 100q-55 18 -62 78q-7 -10 -20.5 -24t-50.5 -37.5t-71 -23.5q-41 0 -70.5 29.5
t-29.5 74.5q0 108 73.5 202.5t156.5 94.5q36 0 63 -11.5t37 -23.5l9 -12q27 0 49 -11.5t22 -35.5q0 -10 -29 -91.5t-29 -120.5q0 -12 7.5 -20t20.5 -8q24 0 51 21.5t41 43.5l15 21q8 14 20 14q8 0 14.5 -6t6.5 -14q0 -4 -2.5 -10t-4.5 -10zM275 290q0 21 -10 32t-26 11
q-42 0 -85.5 -78t-43.5 -144q0 -45 29 -45q36 0 86 83t50 141z" />
    <glyph glyph-name="Cacute" unicode="&#x106;" horiz-adv-x="659" 
d="M433 -29q-103 0 -180.5 62.5t-77.5 179.5q0 53 16 112q-87 21 -139 66.5t-52 94.5q0 75 80 135.5t133 60.5q17 0 17 -11q0 -4 -2 -7t-8.5 -8t-8.5 -7q-21 -16 -34 -28t-28.5 -43t-15.5 -69q0 -84 80 -118q57 136 168.5 234.5t208.5 98.5q57 0 100 -46.5t43 -93.5
q0 -40 -29 -86.5t-79.5 -87.5t-129 -69t-166.5 -30q-12 -51 -12 -101q0 -179 149 -179q52 0 105 32t88 80q8 14 20 14q9 0 15 -6t6 -14q0 -4 -2 -10t-4 -10l-3 -4q-39 -58 -106.5 -100t-151.5 -42zM601 656q-64 0 -139 -85t-115 -200q65 2 122 27.5t93.5 63t57 79t20.5 77.5
q0 17 -10.5 27.5t-28.5 10.5zM637 917q12 0 31.5 -25t19.5 -41q0 -22 -24 -42q-29 -25 -73.5 -39.5t-72.5 -14.5q-18 0 -18 15q0 10 16 19q46 28 97 108q12 20 24 20z" />
    <glyph glyph-name="cacute" unicode="&#x107;" horiz-adv-x="370" 
d="M402 113q-3 -5 -9.5 -13.5t-28.5 -29.5t-46.5 -37t-62.5 -29.5t-78 -13.5q-74 0 -127.5 37.5t-53.5 114.5q0 97 72 173t152 76q50 0 82 -30t32 -67q0 -25 -20 -50.5t-40 -25.5t-35.5 12.5t-15.5 29.5q0 19 20 35.5t20 25.5q0 8 -8.5 14.5t-20.5 6.5q-43 0 -79 -59.5
t-36 -128.5q0 -50 27.5 -76t71.5 -26q40 0 78 22.5t56 45.5l18 23q10 14 22 14q9 0 15 -6t6 -14q0 -4 -2.5 -10t-5.5 -10zM290 608q12 0 31.5 -25t19.5 -41q0 -22 -24 -42q-29 -25 -73.5 -39.5t-72.5 -14.5q-18 0 -18 15q0 10 16 19q46 28 97 108q12 20 24 20z" />
    <glyph glyph-name="Ccaron" unicode="&#x10c;" horiz-adv-x="659" 
d="M433 -29q-103 0 -180.5 62.5t-77.5 179.5q0 53 16 112q-87 21 -139 66.5t-52 94.5q0 75 80 135.5t133 60.5q17 0 17 -11q0 -4 -2 -7t-8.5 -8t-8.5 -7q-21 -16 -34 -28t-28.5 -43t-15.5 -69q0 -84 80 -118q57 136 168.5 234.5t208.5 98.5q57 0 100 -46.5t43 -93.5
q0 -40 -29 -86.5t-79.5 -87.5t-129 -69t-166.5 -30q-12 -51 -12 -101q0 -179 149 -179q52 0 105 32t88 80q8 14 20 14q9 0 15 -6t6 -14q0 -4 -2 -10t-4 -10l-3 -4q-39 -58 -106.5 -100t-151.5 -42zM601 656q-64 0 -139 -85t-115 -200q65 2 122 27.5t93.5 63t57 79t20.5 77.5
q0 17 -10.5 27.5t-28.5 10.5zM584 764q-17 0 -42 23t-44 52q-27 39 -27 58q0 17 14 17q6 0 31 -18q44 -41 89 -41q33 0 79 43q23 21 35 21q16 0 16 -16q0 -22 -58 -81q-22 -25 -49 -41.5t-44 -16.5z" />
    <glyph glyph-name="ccaron" unicode="&#x10d;" horiz-adv-x="370" 
d="M402 113q-3 -5 -9.5 -13.5t-28.5 -29.5t-46.5 -37t-62.5 -29.5t-78 -13.5q-74 0 -127.5 37.5t-53.5 114.5q0 97 72 173t152 76q50 0 82 -30t32 -67q0 -25 -20 -50.5t-40 -25.5t-35.5 12.5t-15.5 29.5q0 19 20 35.5t20 25.5q0 8 -8.5 14.5t-20.5 6.5q-43 0 -79 -59.5
t-36 -128.5q0 -50 27.5 -76t71.5 -26q40 0 78 22.5t56 45.5l18 23q10 14 22 14q9 0 15 -6t6 -14q0 -4 -2.5 -10t-5.5 -10zM228 437q-17 0 -42 23t-44 52q-27 39 -27 58q0 17 14 17q6 0 31 -18q44 -41 89 -41q33 0 79 43q23 21 35 21q16 0 16 -16q0 -22 -58 -81
q-22 -25 -49 -41.5t-44 -16.5z" />
    <glyph glyph-name="Dcaron" unicode="&#x10e;" horiz-adv-x="928" 
d="M530 77q-59 0 -141 42q18 30 26 47q36 79 85 214t50 137q10 23 24.5 44.5t23.5 33t9 14.5q0 14 -16 14q-61 0 -122 -41q-18 -11 -46 -81.5t-62 -168t-52 -136.5q-8 -18 -13 -26q-100 52 -168 52q-48 0 -88 -33t-40 -85q0 -51 48 -82.5t112 -31.5q110 0 183 72
q142 -72 239 -72q90 0 165.5 59t116 151.5t40.5 193.5q0 83 -35 149t-90.5 104t-117 57.5t-121.5 19.5q-106 0 -203.5 -34.5t-159.5 -96t-62 -133.5q0 -54 55.5 -91.5t103.5 -37.5q21 0 21 19q0 4 -12.5 15t-24.5 31t-12 47q0 95 79 159.5t213 64.5q99 0 168 -61.5
t69 -179.5q0 -135 -70.5 -242t-174.5 -107zM541 772q-17 0 -42 23t-44 52q-27 39 -27 58q0 17 14 17q6 0 31 -18q44 -41 89 -41q33 0 79 43q23 21 35 21q16 0 16 -16q0 -22 -58 -81q-22 -25 -49 -41.5t-44 -16.5zM135 146q43 0 121 -38q-48 -57 -115 -57q-25 0 -42 12.5
t-17 32.5q0 21 15 35.5t38 14.5z" />
    <glyph glyph-name="dcaron" unicode="&#x10f;" horiz-adv-x="539" 
d="M282 319q-11 16 -28 16q-46 0 -91 -77.5t-45 -142.5q0 -57 37 -57q19 0 46.5 21t45.5 41l18 21q1 71 17 178zM389 277q18 29 44.5 73.5t70.5 137t44 131.5q0 17 -14 17q-26 0 -72.5 -114.5t-72.5 -244.5zM399 -10q-51 0 -87 33t-40 65q-9 -11 -25 -27.5t-59 -43.5
t-80 -27q-45 0 -79.5 35t-34.5 88q0 114 80 196t158 82q17 0 33 -4t23 -8l7 -4q38 135 97 228t124 93q31 0 59 -29.5t28 -63.5q0 -43 -55 -143t-110 -178l-55 -79q-4 -23 -4 -50q0 -43 13.5 -69.5t40.5 -26.5q24 0 50.5 21.5t40.5 43.5l15 21q8 14 20 14q8 0 14.5 -6
t6.5 -14q0 -4 -2 -10t-4 -10l-3 -4q-3 -5 -8.5 -13.5t-23.5 -29.5t-37 -37t-47 -29.5t-56 -13.5zM639 667q0 24 17 40t43 16q56 0 56 -57q0 -50 -48 -102.5t-70 -52.5q-16 0 -16 13q0 6 17 35t17 59q0 10 -8 24t-8 25z" />
    <glyph glyph-name="Emacron" unicode="&#x112;" horiz-adv-x="476" 
d="M258 -29q-59 0 -110.5 17.5t-88.5 60t-37 103.5q0 46 20.5 87.5t44.5 66t61 47.5t50.5 28.5t31.5 12.5l2 1q-6 2 -18 10t-30 32t-23 54q-151 13 -151 89q0 45 47 90t74 45q9 0 9 -9q0 -1 -9 -17.5t-9 -30.5q0 -47 53 -81q32 62 111 104.5t158 42.5q54 0 91.5 -25
t37.5 -64q0 -52 -79.5 -93.5t-207.5 -50.5q1 -20 7 -38.5t11 -27.5l6 -9q28 6 69 6q59 0 59 -35q0 -16 -18.5 -31t-45.5 -15q-21 0 -41.5 4.5t-30.5 9.5l-9 5q-5 -3 -14 -8.5t-32 -25t-40 -41t-31.5 -57t-14.5 -73.5q0 -124 131 -124q53 0 101.5 30t82.5 82q8 14 20 14
q9 0 15 -6t6 -14l-8 -23q-36 -60 -101 -101.5t-150 -41.5zM557 757h-255q-16 0 -16 16q0 14 9.5 37t21.5 23h255q11 0 15 -3t4 -12q0 -14 -11 -37.5t-23 -23.5zM441 681q-46 0 -90 -38t-59 -95q86 0 143 27.5t57 70.5q0 15 -15 25t-36 10z" />
    <glyph glyph-name="emacron" unicode="&#x113;" horiz-adv-x="357" 
d="M120 185q50 0 90 49t40 86q0 20 -18 20q-39 0 -75.5 -56t-36.5 -99zM389 113q-3 -5 -8.5 -13.5t-26 -29.5t-44 -37t-62.5 -29.5t-82 -13.5q-76 0 -125 41.5t-49 105.5q0 107 70.5 180.5t143.5 73.5q45 0 77.5 -32t32.5 -73q0 -20 -8 -43.5t-25.5 -48t-51.5 -40.5t-78 -16
l-38 6q0 -43 25.5 -68t62.5 -25q42 0 80.5 23t56.5 46l17 23q8 14 20 14q8 0 14.5 -6t6.5 -14q0 -4 -2 -10t-4 -10zM350 433h-255q-16 0 -16 16q0 14 9.5 37t21.5 23h255q11 0 15 -3t4 -12q0 -14 -11 -37.5t-23 -23.5z" />
    <glyph glyph-name="Ebreve" unicode="&#x114;" horiz-adv-x="476" 
d="M258 -29q-59 0 -110.5 17.5t-88.5 60t-37 103.5q0 46 20.5 87.5t44.5 66t61 47.5t50.5 28.5t31.5 12.5l2 1q-6 2 -18 10t-30 32t-23 54q-151 13 -151 89q0 45 47 90t74 45q9 0 9 -9q0 -1 -9 -17.5t-9 -30.5q0 -47 53 -81q32 62 111 104.5t158 42.5q54 0 91.5 -25
t37.5 -64q0 -52 -79.5 -93.5t-207.5 -50.5q1 -20 7 -38.5t11 -27.5l6 -9q28 6 69 6q59 0 59 -35q0 -16 -18.5 -31t-45.5 -15q-21 0 -41.5 4.5t-30.5 9.5l-9 5q-5 -3 -14 -8.5t-32 -25t-40 -41t-31.5 -57t-14.5 -73.5q0 -124 131 -124q53 0 101.5 30t82.5 82q8 14 20 14
q9 0 15 -6t6 -14l-8 -23q-36 -60 -101 -101.5t-150 -41.5zM428 757q-56 0 -91 27.5t-35 74.5q0 26 16.5 41.5t38.5 15.5q31 0 31 -31q0 -10 -4.5 -19t-4.5 -17q0 -14 15.5 -22.5t40.5 -8.5q33 0 49.5 13.5t16.5 34.5q0 48 44 48q18 0 29 -10.5t11 -28.5q0 -26 -19 -54
q-45 -64 -138 -64zM441 681q-46 0 -90 -38t-59 -95q86 0 143 27.5t57 70.5q0 15 -15 25t-36 10z" />
    <glyph glyph-name="ebreve" unicode="&#x115;" horiz-adv-x="357" 
d="M120 185q50 0 90 49t40 86q0 20 -18 20q-39 0 -75.5 -56t-36.5 -99zM389 113q-3 -5 -8.5 -13.5t-26 -29.5t-44 -37t-62.5 -29.5t-82 -13.5q-76 0 -125 41.5t-49 105.5q0 107 70.5 180.5t143.5 73.5q45 0 77.5 -32t32.5 -73q0 -20 -8 -43.5t-25.5 -48t-51.5 -40.5t-78 -16
l-38 6q0 -43 25.5 -68t62.5 -25q42 0 80.5 23t56.5 46l17 23q8 14 20 14q8 0 14.5 -6t6.5 -14q0 -4 -2 -10t-4 -10zM217 433q-56 0 -91 27.5t-35 74.5q0 26 16.5 41.5t38.5 15.5q31 0 31 -31q0 -10 -4.5 -19t-4.5 -17q0 -14 15.5 -22.5t40.5 -8.5q33 0 49.5 13.5t16.5 34.5
q0 48 44 48q18 0 29 -10.5t11 -28.5q0 -25 -19 -54q-45 -64 -138 -64z" />
    <glyph glyph-name="Eogonek" unicode="&#x118;" horiz-adv-x="476" 
d="M509 114q-34 -55 -92 -95.5t-134 -46.5q-45 -29 -45 -59q0 -20 21 -36t56 -16q17 0 17 -10t-15 -25q-37 -39 -74 -39q-28 0 -56 30.5t-28 63.5q0 52 58 93q-83 9 -139 53.5t-56 124.5q0 46 20.5 87.5t44.5 66t61 47.5t50.5 28.5t31.5 12.5l2 1q-6 2 -18 10t-30 32t-23 54
q-151 13 -151 89q0 45 47 90t74 45q9 0 9 -9q0 -1 -9 -17.5t-9 -30.5q0 -47 53 -81q32 62 111 104.5t158 42.5q54 0 91.5 -25t37.5 -64q0 -52 -79.5 -93.5t-207.5 -50.5q1 -20 7 -38.5t11 -27.5l6 -9q28 6 69 6q59 0 59 -35q0 -16 -18.5 -31t-45.5 -15q-21 0 -41.5 4.5
t-30.5 9.5l-9 5q-5 -3 -14 -8.5t-32 -25t-40 -41t-31.5 -57t-14.5 -73.5q0 -124 131 -124q53 0 101.5 30t82.5 82q8 14 20 14q9 0 15 -6t6 -14zM441 681q-46 0 -90 -38t-59 -95q86 0 143 27.5t57 70.5q0 15 -15 25t-36 10z" />
    <glyph glyph-name="eogonek" unicode="&#x119;" horiz-adv-x="357" 
d="M389 113q-2 -4 -6.5 -10.5t-20.5 -24t-34 -32t-47.5 -29.5t-61.5 -21q-48 -31 -48 -61q0 -20 21 -36t56 -16q17 0 17 -10t-15 -25q-37 -39 -74 -39q-28 0 -56 30.5t-28 63.5q0 51 52 88q-67 6 -109.5 46.5t-42.5 99.5q0 107 70.5 180.5t143.5 73.5q45 0 77.5 -32
t32.5 -73q0 -20 -8 -43.5t-25.5 -48t-51.5 -40.5t-78 -16l-38 6q0 -43 25.5 -68t62.5 -25q42 0 80.5 23t56.5 46l17 23q8 14 20 14q8 0 14.5 -6t6.5 -14q0 -4 -2 -10t-4 -10zM120 185q50 0 90 49t40 86q0 20 -18 20q-39 0 -75.5 -56t-36.5 -99z" />
    <glyph glyph-name="Imacron" unicode="&#x12a;" horiz-adv-x="537" 
d="M582 724q-55 0 -94 -53q-49 -10 -95 -23t-98.5 -35.5t-91 -49t-64 -65t-25.5 -82.5q0 -63 51.5 -108.5t94.5 -45.5q20 0 20 13q0 5 -16 19q-35 28 -35 73q0 52 24.5 96t59.5 70t70.5 44.5t60.5 25.5l24 7q-35 -80 -77 -239q-73 -277 -233 -277q-71 0 -119 74
q-10 12 -16 12q-15 0 -15 -20q0 -53 58.5 -111.5t139.5 -58.5q122 0 194.5 98.5t100.5 269.5q24 146 34.5 195t22.5 61q25 5 46 24t21 45q0 19 -13 30t-30 11zM674 757h-255q-16 0 -16 16q0 14 9.5 37t21.5 23h255q11 0 15 -3t4 -12q0 -14 -11 -37.5t-23 -23.5z" />
    <glyph glyph-name="imacron" unicode="&#x12b;" horiz-adv-x="253" 
d="M114 95q0 -38 32 -38q24 0 50.5 21.5t41.5 43.5l15 21q8 14 20 14q8 0 14.5 -6t6.5 -14q0 -4 -2 -10t-4 -10l-3 -4q-3 -5 -8.5 -13.5t-23.5 -29.5t-37 -37t-47 -29.5t-56 -13.5q-57 0 -92 30.5t-35 79.5q0 47 26 129t52 143q9 19 27 19q21 0 50 -22.5t29 -34.5
q0 -25 -28 -105.5t-28 -133.5zM268 456h-255q-16 0 -16 16q0 14 9.5 37t21.5 23h255q11 0 15 -3t4 -12q0 -14 -11 -37.5t-23 -23.5z" />
    <glyph glyph-name="Ibreve" unicode="&#x12c;" horiz-adv-x="537" 
d="M582 724q-55 0 -94 -53q-49 -10 -95 -23t-98.5 -35.5t-91 -49t-64 -65t-25.5 -82.5q0 -63 51.5 -108.5t94.5 -45.5q20 0 20 13q0 5 -16 19q-35 28 -35 73q0 52 24.5 96t59.5 70t70.5 44.5t60.5 25.5l24 7q-35 -80 -77 -239q-73 -277 -233 -277q-71 0 -119 74
q-10 12 -16 12q-15 0 -15 -20q0 -53 58.5 -111.5t139.5 -58.5q122 0 194.5 98.5t100.5 269.5q24 146 34.5 195t22.5 61q25 5 46 24t21 45q0 19 -13 30t-30 11zM547 771q-56 0 -91 27.5t-35 74.5q0 26 16.5 41.5t38.5 15.5q31 0 31 -31q0 -10 -4.5 -19t-4.5 -17
q0 -14 15.5 -22.5t40.5 -8.5q33 0 49.5 13.5t16.5 34.5q0 48 44 48q18 0 29 -10.5t11 -28.5q0 -25 -19 -54q-45 -64 -138 -64z" />
    <glyph glyph-name="ibreve" unicode="&#x12d;" horiz-adv-x="253" 
d="M114 95q0 -38 32 -38q24 0 50.5 21.5t41.5 43.5l15 21q8 14 20 14q8 0 14.5 -6t6.5 -14q0 -4 -2 -10t-4 -10l-3 -4q-3 -5 -8.5 -13.5t-23.5 -29.5t-37 -37t-47 -29.5t-56 -13.5q-57 0 -92 30.5t-35 79.5q0 47 26 129t52 143q9 19 27 19q21 0 50 -22.5t29 -34.5
q0 -25 -28 -105.5t-28 -133.5zM139 437q-56 0 -91 27.5t-35 74.5q0 26 16.5 41.5t38.5 15.5q31 0 31 -31q0 -10 -4.5 -19t-4.5 -17q0 -14 15.5 -22.5t40.5 -8.5q33 0 49.5 13.5t16.5 34.5q0 48 44 48q18 0 29 -10.5t11 -28.5q0 -25 -19 -54q-45 -64 -138 -64z" />
    <glyph glyph-name="dotlessi" unicode="&#x131;" horiz-adv-x="253" 
d="M114 95q0 -38 32 -38q24 0 50.5 21.5t41.5 43.5l15 21q8 14 20 14q8 0 14.5 -6t6.5 -14q0 -4 -2 -10t-4 -10l-3 -4q-3 -5 -8.5 -13.5t-23.5 -29.5t-37 -37t-47 -29.5t-56 -13.5q-57 0 -92 30.5t-35 79.5q0 47 26 129t52 143q9 19 27 19q21 0 50 -22.5t29 -34.5
q0 -25 -28 -105.5t-28 -133.5z" />
    <glyph glyph-name="Lacute" unicode="&#x139;" horiz-adv-x="874" 
d="M906 113q-3 -5 -8 -13.5t-23.5 -29.5t-38.5 -37t-51 -29.5t-63 -13.5q-47 0 -97.5 22t-80 43.5t-84.5 65.5q-92 -131 -236 -131q-93 0 -159 56t-66 131q0 66 48.5 107.5t114.5 41.5q93 0 229 -68q7 15 45 103q-125 18 -213 77t-88 131q0 71 52.5 108.5t121.5 37.5
q86 0 160 -74q14 -14 14 -24q0 -6 -4 -11t-9 -5q-9 0 -26 12q-47 34 -96 34q-78 0 -78 -69q0 -54 51 -98.5t141 -58.5l9 18q71 154 135.5 219.5t148.5 65.5q66 0 106 -40.5t40 -89.5q0 -83 -93.5 -154t-238.5 -83q-38 -106 -65 -161q59 -33 95 -50.5t85 -33.5t88 -16
q66 0 102 47q8 14 20 14q8 0 14.5 -6t6.5 -14q0 -4 -2.5 -10t-4.5 -10zM186 68q97 0 173 129q-78 49 -146 49q-55 0 -87 -26t-32 -71q0 -34 26.5 -57.5t65.5 -23.5zM777 659q-45 0 -84.5 -48.5t-96.5 -186.5q87 20 151 82t64 119q0 13 -9.5 23.5t-24.5 10.5zM827 925
q12 0 31.5 -25t19.5 -41q0 -22 -24 -42q-29 -25 -73.5 -39.5t-72.5 -14.5q-18 0 -18 15q0 10 16 19q46 28 97 108q12 20 24 20z" />
    <glyph glyph-name="lacute" unicode="&#x13a;" horiz-adv-x="286" 
d="M321 615q0 14 -12 14q-28 0 -84.5 -113.5t-86.5 -235.5q51 42 117 165t66 170zM146 -10q-62 0 -107 41t-45 109q0 101 42.5 231t112.5 227.5t138 97.5q32 0 58 -27t26 -55q0 -63 -85.5 -200t-162.5 -202q-8 -41 -8 -76t17 -57t47 -22q24 0 50.5 21.5t41.5 43.5l15 21
q8 14 20 14q8 0 14.5 -6t6.5 -14q0 -4 -2.5 -10t-4.5 -10l-2 -4q-3 -5 -8.5 -13.5t-23.5 -29.5t-37 -37t-47 -29.5t-56 -13.5zM402 906q12 0 31.5 -25t19.5 -41q0 -22 -24 -42q-29 -25 -73.5 -39.5t-72.5 -14.5q-18 0 -18 15q0 10 16 19q46 28 97 108q12 20 24 20z" />
    <glyph glyph-name="Lcaron" unicode="&#x13d;" horiz-adv-x="874" 
d="M906 113q-3 -5 -8 -13.5t-23.5 -29.5t-38.5 -37t-51 -29.5t-63 -13.5q-47 0 -97.5 22t-80 43.5t-84.5 65.5q-92 -131 -236 -131q-93 0 -159 56t-66 131q0 66 48.5 107.5t114.5 41.5q93 0 229 -68q7 15 45 103q-125 18 -213 77t-88 131q0 71 52.5 108.5t121.5 37.5
q86 0 160 -74q14 -14 14 -24q0 -6 -4 -11t-9 -5q-9 0 -26 12q-47 34 -96 34q-78 0 -78 -69q0 -54 51 -98.5t141 -58.5l9 18q71 154 135.5 219.5t148.5 65.5q66 0 106 -40.5t40 -89.5q0 -83 -93.5 -154t-238.5 -83q-38 -106 -65 -161q59 -33 95 -50.5t85 -33.5t88 -16
q66 0 102 47q8 14 20 14q8 0 14.5 -6t6.5 -14q0 -4 -2.5 -10t-4.5 -10zM186 68q97 0 173 129q-78 49 -146 49q-55 0 -87 -26t-32 -71q0 -34 26.5 -57.5t65.5 -23.5zM777 659q-45 0 -84.5 -48.5t-96.5 -186.5q87 20 151 82t64 119q0 13 -9.5 23.5t-24.5 10.5zM937 667
q0 24 17 40t43 16q56 0 56 -57q0 -50 -48 -102.5t-70 -52.5q-16 0 -16 13q0 6 17 35t17 59q0 10 -8 24t-8 25z" />
    <glyph glyph-name="lcaron" unicode="&#x13e;" horiz-adv-x="286" 
d="M321 615q0 14 -12 14q-28 0 -84.5 -113.5t-86.5 -235.5q51 42 117 165t66 170zM146 -10q-62 0 -107 41t-45 109q0 101 42.5 231t112.5 227.5t138 97.5q32 0 58 -27t26 -55q0 -63 -85.5 -200t-162.5 -202q-8 -41 -8 -76t17 -57t47 -22q24 0 50.5 21.5t41.5 43.5l15 21
q8 14 20 14q8 0 14.5 -6t6.5 -14q0 -4 -2.5 -10t-4.5 -10l-2 -4q-3 -5 -8.5 -13.5t-23.5 -29.5t-37 -37t-47 -29.5t-56 -13.5zM407 667q0 24 17 40t43 16q56 0 56 -57q0 -50 -48 -102.5t-70 -52.5q-16 0 -16 13q0 6 17 35t17 59q0 10 -8 24t-8 25z" />
    <glyph glyph-name="Lslash" unicode="&#x141;" horiz-adv-x="874" 
d="M906 113q-3 -5 -8 -13.5t-23.5 -29.5t-38.5 -37t-51 -29.5t-63 -13.5q-47 0 -97.5 22t-80 43.5t-84.5 65.5q-92 -131 -236 -131q-93 0 -159 56t-66 131q0 66 48.5 107.5t114.5 41.5q93 0 229 -68l6 13q-31 16 -51.5 40t-20.5 36q0 6 4 10t9 4q3 0 30 -15t54 -19l14 34
q-125 18 -213 77t-88 131q0 71 52.5 108.5t121.5 37.5q86 0 160 -74q14 -14 14 -24q0 -6 -4 -11t-9 -5q-9 0 -26 12q-47 34 -96 34q-78 0 -78 -69q0 -54 51 -98.5t141 -58.5l9 18q71 154 135.5 219.5t148.5 65.5q66 0 106 -40.5t40 -89.5q0 -83 -93.5 -154t-238.5 -83
l-9 -26h3q24 0 54.5 -33t30.5 -48q0 -6 -5.5 -11t-9.5 -5q-1 0 -24 12t-43 12t-34 -1l-28 -61q59 -33 95 -50.5t85 -33.5t88 -16q66 0 102 47q8 14 20 14q8 0 14.5 -6t6.5 -14q0 -4 -2.5 -10t-4.5 -10zM186 68q97 0 173 129q-78 49 -146 49q-55 0 -87 -26t-32 -71
q0 -34 26.5 -57.5t65.5 -23.5zM777 659q-45 0 -84.5 -48.5t-96.5 -186.5q87 20 151 82t64 119q0 13 -9.5 23.5t-24.5 10.5z" />
    <glyph glyph-name="lslash" unicode="&#x142;" horiz-adv-x="286" 
d="M104 586h36q75 110 147 110q32 0 58 -27t26 -55q0 -2 -0.5 -4t-0.5 -4q24 -4 52 -35t28 -45q0 -6 -5.5 -11t-9.5 -5q-1 0 -23.5 10t-42.5 10q-8 0 -23 -3q-35 -80 -101.5 -174t-121.5 -141q-8 -41 -8 -76t17 -57t47 -22q24 0 50.5 21.5t41.5 43.5l15 21q8 14 20 14
q8 0 14.5 -6t6.5 -14q0 -4 -2.5 -10t-4.5 -10l-2 -4q-3 -5 -8.5 -13.5t-23.5 -29.5t-37 -37t-47 -29.5t-56 -13.5q-62 0 -107 41t-45 109q0 73 24.5 167t64.5 179q-38 15 -63.5 53t-25.5 57q0 6 4 10t9 4q1 0 31 -12t66 -12zM138 280q33 27 76.5 96t74.5 139l-74 -18
q-51 -109 -77 -217zM321 615q0 14 -12 14q-13 0 -35 -30q33 4 46 5q0 2 0.5 6t0.5 5z" />
    <glyph glyph-name="Nacute" unicode="&#x143;" horiz-adv-x="855" 
d="M716 69q12 25 38 101t53.5 148t63 146.5t79 120t87.5 45.5q18 0 18 19q0 20 -38 43t-79 23q-31 0 -66.5 -50.5t-68 -131t-58 -153.5t-48.5 -147.5t-26 -83.5q-6 43 -10.5 100t-6 100t-3.5 109t-3 95q-2 54 -34 95t-70.5 58.5t-73.5 17.5q-73 0 -151.5 -31t-132.5 -85.5
t-54 -113.5q0 -54 56 -96.5t103 -42.5q21 0 21 20q0 4 -12.5 17t-25 35.5t-12.5 49.5q0 67 68.5 127t120.5 60q26 0 39 -12.5t13 -32.5q0 -63 -54.5 -194.5t-131.5 -243t-130 -111.5q-29 0 -49.5 20.5t-20.5 52.5q0 62 63 114q20 17 20 29q0 15 -25 15q-51 0 -113 -41.5
t-62 -96.5t73 -114t160 -59q33 0 65 18t56.5 44.5t50 70.5t42 81t36 91.5t29.5 86.5t25 81q0 -245 13 -360q5 -45 27 -79t45 -34q15 0 48 25t46 54zM819 894q12 0 31.5 -25t19.5 -41q0 -22 -24 -42q-29 -25 -73.5 -39.5t-72.5 -14.5q-18 0 -18 15q0 10 16 19q46 28 97 108
q12 20 24 20z" />
    <glyph glyph-name="nacute" unicode="&#x144;" horiz-adv-x="489" 
d="M350 95q0 -38 32 -38q24 0 51 21.5t41 43.5l15 21q8 14 20 14q8 0 14.5 -6t6.5 -14q0 -4 -2 -10t-4 -10l-3 -4q-3 -5 -8.5 -13.5t-23.5 -29.5t-37 -37t-47 -29.5t-56 -13.5q-56 0 -91.5 29t-35.5 72q0 44 25.5 115.5t25.5 98.5q0 7 -6 11.5t-14 4.5q-51 0 -102.5 -89
t-51.5 -222q0 -20 -22 -20q-40 0 -67 15.5t-27 39.5q0 116 81 317q8 19 27 19q35 0 70 -54q8 7 22.5 17.5t55.5 28.5t79 18q32 0 58.5 -28t26.5 -58q0 -29 -26.5 -101t-26.5 -109zM396 605q12 0 31.5 -25t19.5 -41q0 -22 -24 -42q-29 -25 -73.5 -39.5t-72.5 -14.5
q-18 0 -18 15q0 10 16 19q46 28 97 108q12 20 24 20z" />
    <glyph glyph-name="Ncaron" unicode="&#x147;" horiz-adv-x="855" 
d="M716 69q12 25 38 101t53.5 148t63 146.5t79 120t87.5 45.5q18 0 18 19q0 20 -38 43t-79 23q-31 0 -66.5 -50.5t-68 -131t-58 -153.5t-48.5 -147.5t-26 -83.5q-6 43 -10.5 100t-6 100t-3.5 109t-3 95q-2 54 -34 95t-70.5 58.5t-73.5 17.5q-73 0 -151.5 -31t-132.5 -85.5
t-54 -113.5q0 -54 56 -96.5t103 -42.5q21 0 21 20q0 4 -12.5 17t-25 35.5t-12.5 49.5q0 67 68.5 127t120.5 60q26 0 39 -12.5t13 -32.5q0 -63 -54.5 -194.5t-131.5 -243t-130 -111.5q-29 0 -49.5 20.5t-20.5 52.5q0 62 63 114q20 17 20 29q0 15 -25 15q-51 0 -113 -41.5
t-62 -96.5t73 -114t160 -59q33 0 65 18t56.5 44.5t50 70.5t42 81t36 91.5t29.5 86.5t25 81q0 -245 13 -360q5 -45 27 -79t45 -34q15 0 48 25t46 54zM737 744q-17 0 -42 23t-44 52q-27 39 -27 58q0 17 14 17q6 0 31 -18q44 -41 89 -41q33 0 79 43q23 21 35 21q16 0 16 -16
q0 -22 -58 -81q-22 -25 -49 -41.5t-44 -16.5z" />
    <glyph glyph-name="ncaron" unicode="&#x148;" horiz-adv-x="489" 
d="M350 95q0 -38 32 -38q24 0 51 21.5t41 43.5l15 21q8 14 20 14q8 0 14.5 -6t6.5 -14q0 -4 -2 -10t-4 -10l-3 -4q-3 -5 -8.5 -13.5t-23.5 -29.5t-37 -37t-47 -29.5t-56 -13.5q-56 0 -91.5 29t-35.5 72q0 44 25.5 115.5t25.5 98.5q0 7 -6 11.5t-14 4.5q-51 0 -102.5 -89
t-51.5 -222q0 -20 -22 -20q-40 0 -67 15.5t-27 39.5q0 116 81 317q8 19 27 19q35 0 70 -54q8 7 22.5 17.5t55.5 28.5t79 18q32 0 58.5 -28t26.5 -58q0 -29 -26.5 -101t-26.5 -109zM326 442q-17 0 -42 23t-44 52q-27 39 -27 58q0 17 14 17q6 0 31 -18q44 -41 89 -41
q33 0 79 43q23 21 35 21q16 0 16 -16q0 -22 -58 -81q-22 -25 -49 -41.5t-44 -16.5z" />
    <glyph glyph-name="Omacron" unicode="&#x14c;" horiz-adv-x="577" 
d="M381 724q97 0 162.5 -64t65.5 -161q0 -114 -50.5 -231t-143 -197.5t-198.5 -80.5q-88 0 -152 66.5t-64 165.5q0 127 58.5 245t147 187.5t174.5 69.5zM409 669q-59 0 -107.5 -57t-48.5 -135q0 -44 21.5 -72t49.5 -28q8 0 15 2t9 2q12 0 12 -12q0 -7 -8 -16t-28.5 -17
t-48.5 -8q-42 0 -78.5 41.5t-36.5 100.5q-4 -9 -10.5 -25.5t-17 -75t-10.5 -124.5q0 -88 35 -140.5t82 -52.5q65 0 122.5 85t89 206.5t31.5 236.5q0 41 -21 65t-52 24zM549 763h-255q-16 0 -16 16q0 14 9.5 37t21.5 23h255q11 0 15 -3t4 -12q0 -14 -11 -37.5t-23 -23.5z" />
    <glyph glyph-name="omacron" unicode="&#x14d;" horiz-adv-x="445" 
d="M477 113q-2 -3 -6.5 -9t-21 -21t-35 -26t-48.5 -20.5t-63 -9.5q-18 0 -39 3q-51 -40 -114 -40t-109.5 41.5t-46.5 99.5q0 118 73 189t159 71q64 0 105.5 -40t41.5 -108q0 -87 -62 -166q10 -2 16 -2q30 0 59.5 17t43.5 34l15 17q8 14 20 14q8 0 14.5 -6t6.5 -14
q0 -4 -2 -10t-4 -10zM112 106q0 -30 13 -49t35 -19q16 0 31 12q-17 11 -17 24q0 16 18.5 32.5t31.5 16.5q5 0 11 -2q31 77 31 156q0 63 -39 63q-37 0 -76 -70t-39 -164zM370 433h-255q-16 0 -16 16q0 14 9.5 37t21.5 23h255q11 0 15 -3t4 -12q0 -14 -11 -37.5t-23 -23.5z
" />
    <glyph glyph-name="Obreve" unicode="&#x14e;" horiz-adv-x="577" 
d="M381 724q97 0 162.5 -64t65.5 -161q0 -114 -50.5 -231t-143 -197.5t-198.5 -80.5q-88 0 -152 66.5t-64 165.5q0 127 58.5 245t147 187.5t174.5 69.5zM409 669q-59 0 -107.5 -57t-48.5 -135q0 -44 21.5 -72t49.5 -28q8 0 15 2t9 2q12 0 12 -12q0 -7 -8 -16t-28.5 -17
t-48.5 -8q-42 0 -78.5 41.5t-36.5 100.5q-4 -9 -10.5 -25.5t-17 -75t-10.5 -124.5q0 -88 35 -140.5t82 -52.5q65 0 122.5 85t89 206.5t31.5 236.5q0 41 -21 65t-52 24zM408 779q-56 0 -91 27.5t-35 74.5q0 26 16.5 41.5t38.5 15.5q31 0 31 -31q0 -10 -4.5 -19t-4.5 -17
q0 -14 15.5 -22.5t40.5 -8.5q33 0 49.5 13.5t16.5 34.5q0 48 44 48q18 0 29 -10.5t11 -28.5q0 -25 -19 -54q-45 -64 -138 -64z" />
    <glyph glyph-name="obreve" unicode="&#x14f;" horiz-adv-x="445" 
d="M477 113q-2 -3 -6.5 -9t-21 -21t-35 -26t-48.5 -20.5t-63 -9.5q-18 0 -39 3q-51 -40 -114 -40t-109.5 41.5t-46.5 99.5q0 118 73 189t159 71q64 0 105.5 -40t41.5 -108q0 -87 -62 -166q10 -2 16 -2q30 0 59.5 17t43.5 34l15 17q8 14 20 14q8 0 14.5 -6t6.5 -14
q0 -4 -2 -10t-4 -10zM112 106q0 -30 13 -49t35 -19q16 0 31 12q-17 11 -17 24q0 16 18.5 32.5t31.5 16.5q5 0 11 -2q31 77 31 156q0 63 -39 63q-37 0 -76 -70t-39 -164zM233 433q-56 0 -91 27.5t-35 74.5q0 26 16.5 41.5t38.5 15.5q31 0 31 -31q0 -10 -4.5 -19t-4.5 -17
q0 -14 15.5 -22.5t40.5 -8.5q33 0 49.5 13.5t16.5 34.5q0 48 44 48q18 0 29 -10.5t11 -28.5q0 -25 -19 -54q-45 -64 -138 -64z" />
    <glyph glyph-name="Ohungarumlaut" unicode="&#x150;" horiz-adv-x="577" 
d="M381 724q97 0 162.5 -64t65.5 -161q0 -114 -50.5 -231t-143 -197.5t-198.5 -80.5q-88 0 -152 66.5t-64 165.5q0 127 58.5 245t147 187.5t174.5 69.5zM409 669q-59 0 -107.5 -57t-48.5 -135q0 -44 21.5 -72t49.5 -28q8 0 15 2t9 2q12 0 12 -12q0 -7 -8 -16t-28.5 -17
t-48.5 -8q-42 0 -78.5 41.5t-36.5 100.5q-4 -9 -10.5 -25.5t-17 -75t-10.5 -124.5q0 -88 35 -140.5t82 -52.5q65 0 122.5 85t89 206.5t31.5 236.5q0 41 -21 65t-52 24zM419 934q12 0 31.5 -24.5t19.5 -40.5q0 -22 -24 -42q-29 -26 -69 -40.5t-66 -14.5q-18 0 -18 15
q0 11 16 20q62 37 86 107q7 20 24 20zM587 934q12 0 31.5 -24.5t19.5 -40.5q0 -22 -24 -42q-29 -26 -69 -40.5t-66 -14.5q-18 0 -18 15q0 11 16 20q62 37 86 107q7 20 24 20z" />
    <glyph glyph-name="ohungarumlaut" unicode="&#x151;" horiz-adv-x="445" 
d="M477 113q-2 -3 -6.5 -9t-21 -21t-35 -26t-48.5 -20.5t-63 -9.5q-18 0 -39 3q-51 -40 -114 -40t-109.5 41.5t-46.5 99.5q0 118 73 189t159 71q64 0 105.5 -40t41.5 -108q0 -87 -62 -166q10 -2 16 -2q30 0 59.5 17t43.5 34l15 17q8 14 20 14q8 0 14.5 -6t6.5 -14
q0 -4 -2 -10t-4 -10zM112 106q0 -30 13 -49t35 -19q16 0 31 12q-17 11 -17 24q0 16 18.5 32.5t31.5 16.5q5 0 11 -2q31 77 31 156q0 63 -39 63q-37 0 -76 -70t-39 -164zM227 601q12 0 31.5 -24.5t19.5 -40.5q0 -22 -24 -42q-29 -26 -69 -40.5t-66 -14.5q-18 0 -18 15
q0 11 16 20q62 37 86 107q7 20 24 20zM395 601q12 0 31.5 -24.5t19.5 -40.5q0 -22 -24 -42q-29 -26 -69 -40.5t-66 -14.5q-18 0 -18 15q0 11 16 20q62 37 86 107q7 20 24 20z" />
    <glyph glyph-name="OE" unicode="&#x152;" horiz-adv-x="843" 
d="M859 646q0 15 -15 25t-36 10q-56 0 -105.5 -53.5t-49.5 -128.5q0 -22 6 -42.5t12 -30.5l6 -10q28 6 69 6q59 0 59 -35q0 -16 -18.5 -31t-45.5 -15q-21 0 -41.5 4.5t-29.5 9.5l-10 5q-5 -3 -14 -8.5t-32 -25t-40 -41t-31.5 -57t-14.5 -73.5q0 -124 131 -124q49 0 99.5 34
t84.5 78q9 14 21 14q9 0 15 -6t6 -14q0 -4 -2.5 -10t-5.5 -10l-3 -4q-39 -54 -103.5 -98t-145.5 -44q-66 0 -125 24t-88 72q-91 -77 -195 -77q-88 0 -152 66.5t-64 165.5q0 127 58.5 245t147 187.5t174.5 69.5q61 0 112 -27.5t81 -74.5q42 46 107.5 74t129.5 28
q54 0 91.5 -25t37.5 -64q0 -35 -44 -73.5t-64 -38.5q-17 0 -17 12q0 4 22 40t22 71zM409 669q-59 0 -107.5 -57t-48.5 -135q0 -44 21.5 -72t49.5 -28q8 0 15 2t9 2q12 0 12 -12q0 -7 -8 -16t-28.5 -17t-48.5 -8q-42 0 -78.5 41.5t-36.5 100.5q-4 -9 -10.5 -25.5t-17 -75
t-10.5 -124.5q0 -88 35 -140.5t82 -52.5q51 0 108.5 84t96 209t38.5 235q0 41 -21 65t-52 24z" />
    <glyph glyph-name="oe" unicode="&#x153;" horiz-adv-x="607" 
d="M638 113q-3 -5 -8.5 -13.5t-26 -29.5t-44 -37t-62 -29.5t-81.5 -13.5q-88 0 -133 55q-60 -55 -133 -55q-63 0 -109.5 41.5t-46.5 99.5q0 118 73 189t159 71q77 0 117 -54q62 54 123 54q45 0 77.5 -32t32.5 -73q0 -20 -8 -43.5t-25.5 -48t-51.5 -40.5t-78 -16l-38 6
q0 -44 21 -68.5t57 -24.5q42 0 80.5 23t56.5 46l17 23q9 14 22 14q8 0 14.5 -6t6.5 -14q0 -4 -3 -10t-6 -10zM112 106q0 -30 13 -49t35 -19q44 0 75 82t31 157q0 63 -39 63q-37 0 -76 -70t-39 -164zM380 185q50 0 90 49t40 86q0 20 -18 20q-39 0 -75.5 -56t-36.5 -99z" />
    <glyph glyph-name="Racute" unicode="&#x154;" horiz-adv-x="875" 
d="M735 -10q-118 0 -149 82q-15 40 -15 141q0 43 -20 67q-27 -3 -55 -3h-20q-38 -157 -95 -222t-144 -65q-97 0 -167.5 60.5t-70.5 119.5q0 57 62 99t113 42q11 0 18 -5t7 -11q0 -10 -18 -23q-22 -17 -43 -52t-21 -68q0 -39 24.5 -67.5t63.5 -28.5q93 0 160 266
q30 122 47 170t46 81q21 21 64 35.5t60 14.5q19 0 19 -14q0 -3 -8.5 -13t-23 -31t-25.5 -48q-30 -75 -55 -180q98 2 169 60.5t71 139.5q0 129 -181 129q-135 0 -214 -53t-79 -132q0 -27 12.5 -47t25 -31t12.5 -15q0 -19 -21 -19q-48 0 -103.5 37t-55.5 91q0 61 61.5 114
t159.5 83t204 30q148 0 231 -54t83 -138q0 -79 -65.5 -141.5t-164.5 -92.5q37 -23 46 -85q12 -84 31.5 -120t56.5 -36q24 0 51 21.5t41 43.5l15 21q8 14 20 14q8 0 14.5 -6t6.5 -14q0 -4 -2 -10t-4 -10l-3 -4q-3 -5 -8.5 -13.5t-23.5 -29.5t-37 -37t-47 -29.5t-56 -13.5z
M674 925q12 0 31.5 -25t19.5 -41q0 -22 -24 -42q-29 -25 -73.5 -39.5t-72.5 -14.5q-18 0 -18 15q0 10 16 19q46 28 97 108q12 20 24 20z" />
    <glyph glyph-name="racute" unicode="&#x155;" horiz-adv-x="393" 
d="M253 92q0 45 37 119t37 92q0 20 -11.5 34t-29.5 14q-9 0 -33.5 -6.5t-49.5 -6.5q-42 0 -42 21q0 7 6.5 25.5t6.5 32.5q0 16 -21 34t-41 18q-19 0 -38.5 -22.5t-19.5 -51.5q0 -22 8 -40.5t16 -26.5l9 -7q-29 -94 -87 -178q-11 -18 -11 -24q0 -7 6.5 -14t14.5 -7
q11 0 22 15q54 80 97 189q60 -4 60 -24q0 -11 -15.5 -40t-31.5 -69.5t-16 -78.5q0 -42 35.5 -71t91.5 -29q28 0 56 12.5t48 31t36 36.5t24 30l8 13q9 15 9 24q0 8 -6.5 14t-14.5 6q-5 0 -10 -3.5t-7 -7.5l-3 -3l-6 -9t-16 -21t-24 -26t-29 -20.5t-32 -9.5q-33 0 -33 35z
M353 591q12 0 31.5 -25t19.5 -41q0 -22 -24 -42q-29 -25 -73.5 -39.5t-72.5 -14.5q-18 0 -18 15q0 10 16 19q46 28 97 108q12 20 24 20z" />
    <glyph glyph-name="Rcaron" unicode="&#x158;" horiz-adv-x="875" 
d="M735 -10q-118 0 -149 82q-15 40 -15 141q0 43 -20 67q-27 -3 -55 -3h-20q-38 -157 -95 -222t-144 -65q-97 0 -167.5 60.5t-70.5 119.5q0 57 62 99t113 42q11 0 18 -5t7 -11q0 -10 -18 -23q-22 -17 -43 -52t-21 -68q0 -39 24.5 -67.5t63.5 -28.5q93 0 160 266
q30 122 47 170t46 81q21 21 64 35.5t60 14.5q19 0 19 -14q0 -3 -8.5 -13t-23 -31t-25.5 -48q-30 -75 -55 -180q98 2 169 60.5t71 139.5q0 129 -181 129q-135 0 -214 -53t-79 -132q0 -27 12.5 -47t25 -31t12.5 -15q0 -19 -21 -19q-48 0 -103.5 37t-55.5 91q0 61 61.5 114
t159.5 83t204 30q148 0 231 -54t83 -138q0 -79 -65.5 -141.5t-164.5 -92.5q37 -23 46 -85q12 -84 31.5 -120t56.5 -36q24 0 51 21.5t41 43.5l15 21q8 14 20 14q8 0 14.5 -6t6.5 -14q0 -4 -2 -10t-4 -10l-3 -4q-3 -5 -8.5 -13.5t-23.5 -29.5t-37 -37t-47 -29.5t-56 -13.5z
M567 772q-17 0 -42 23t-44 52q-27 39 -27 58q0 17 14 17q6 0 31 -18q44 -41 89 -41q33 0 79 43q23 21 35 21q16 0 16 -16q0 -22 -58 -81q-22 -25 -49 -41.5t-44 -16.5z" />
    <glyph glyph-name="rcaron" unicode="&#x159;" horiz-adv-x="393" 
d="M253 92q0 45 37 119t37 92q0 20 -11.5 34t-29.5 14q-9 0 -33.5 -6.5t-49.5 -6.5q-42 0 -42 21q0 7 6.5 25.5t6.5 32.5q0 16 -21 34t-41 18q-19 0 -38.5 -22.5t-19.5 -51.5q0 -22 8 -40.5t16 -26.5l9 -7q-29 -94 -87 -178q-11 -18 -11 -24q0 -7 6.5 -14t14.5 -7
q11 0 22 15q54 80 97 189q60 -4 60 -24q0 -11 -15.5 -40t-31.5 -69.5t-16 -78.5q0 -42 35.5 -71t91.5 -29q28 0 56 12.5t48 31t36 36.5t24 30l8 13q9 15 9 24q0 8 -6.5 14t-14.5 6q-5 0 -10 -3.5t-7 -7.5l-3 -3l-6 -9t-16 -21t-24 -26t-29 -20.5t-32 -9.5q-33 0 -33 35z
M255 436q-17 0 -42 23t-44 52q-27 39 -27 58q0 17 14 17q6 0 31 -18q44 -41 89 -41q33 0 79 43q23 21 35 21q16 0 16 -16q0 -22 -58 -81q-22 -25 -49 -41.5t-44 -16.5z" />
    <glyph glyph-name="Sacute" unicode="&#x15a;" horiz-adv-x="584" 
d="M502 665q-51 0 -85.5 -34t-34.5 -79q0 -41 23 -90.5t50 -88t50 -86.5t23 -88q0 -86 -75 -147.5t-168 -61.5q-120 0 -194 59t-74 128q0 39 38.5 76.5t85.5 58t81 20.5q17 0 17 -17q0 -9 -21 -24q-22 -18 -33 -28.5t-22.5 -33.5t-11.5 -50q0 -43 34 -80t85 -37
q57 0 92 33.5t35 89.5q0 33 -22.5 77.5t-49 82t-49 88t-22.5 93.5q0 88 81.5 143t179.5 55q60 0 99.5 -21t39.5 -61q0 -48 -54.5 -97.5t-86.5 -49.5q-7 0 -12 5t-5 10q0 7 13 24q42 54 42 90q0 19 -13.5 30t-35.5 11zM605 931q12 0 31.5 -25t19.5 -41q0 -22 -24 -42
q-29 -25 -73.5 -39.5t-72.5 -14.5q-18 0 -18 15q0 10 16 19q46 28 97 108q12 20 24 20z" />
    <glyph glyph-name="sacute" unicode="&#x15b;" horiz-adv-x="409" 
d="M159 267q-74 -113 -74 -126q0 -49 12 -81.5t37 -32.5q23 0 39.5 25t16.5 59q0 27 -15.5 82t-15.5 74zM441 113q-3 -5 -9.5 -14t-31 -31.5t-54 -39.5t-80.5 -31t-108 -14q-70 0 -125.5 49.5t-55.5 97.5q0 26 24 46t48 27l24 7q21 33 67 104q63 94 104 94q15 0 32 -14.5
t17 -22.5q0 -5 -12 -28t-12 -38q0 -42 19.5 -93.5t19.5 -79.5q0 -23 -6 -42t-12 -26l-5 -8q35 9 66 31t45 39l13 17q8 14 20 14q8 0 14.5 -6t6.5 -14q0 -4 -2 -10t-4 -10zM325 623q12 0 31.5 -25t19.5 -41q0 -22 -24 -42q-29 -25 -73.5 -39.5t-72.5 -14.5q-18 0 -18 15
q0 10 16 19q46 28 97 108q12 20 24 20z" />
    <glyph glyph-name="Scaron" unicode="&#x160;" horiz-adv-x="584" 
d="M502 665q-51 0 -85.5 -34t-34.5 -79q0 -41 23 -90.5t50 -88t50 -86.5t23 -88q0 -86 -75 -147.5t-168 -61.5q-120 0 -194 59t-74 128q0 39 38.5 76.5t85.5 58t81 20.5q17 0 17 -17q0 -9 -21 -24q-22 -18 -33 -28.5t-22.5 -33.5t-11.5 -50q0 -43 34 -80t85 -37
q57 0 92 33.5t35 89.5q0 33 -22.5 77.5t-49 82t-49 88t-22.5 93.5q0 88 81.5 143t179.5 55q60 0 99.5 -21t39.5 -61q0 -48 -54.5 -97.5t-86.5 -49.5q-7 0 -12 5t-5 10q0 7 13 24q42 54 42 90q0 19 -13.5 30t-35.5 11zM529 774q-17 0 -42 23t-44 52q-27 39 -27 58q0 17 14 17
q6 0 31 -18q44 -41 89 -41q33 0 79 43q23 21 35 21q16 0 16 -16q0 -22 -58 -81q-22 -25 -49 -41.5t-44 -16.5z" />
    <glyph glyph-name="scaron" unicode="&#x161;" horiz-adv-x="409" 
d="M159 267q-74 -113 -74 -126q0 -49 12 -81.5t37 -32.5q23 0 39.5 25t16.5 59q0 27 -15.5 82t-15.5 74zM441 113q-3 -5 -9.5 -14t-31 -31.5t-54 -39.5t-80.5 -31t-108 -14q-70 0 -125.5 49.5t-55.5 97.5q0 26 24 46t48 27l24 7q21 33 67 104q63 94 104 94q15 0 32 -14.5
t17 -22.5q0 -5 -12 -28t-12 -38q0 -42 19.5 -93.5t19.5 -79.5q0 -23 -6 -42t-12 -26l-5 -8q35 9 66 31t45 39l13 17q8 14 20 14q8 0 14.5 -6t6.5 -14q0 -4 -2 -10t-4 -10zM277 454q-17 0 -42 23t-44 52q-27 39 -27 58q0 17 14 17q6 0 31 -18q44 -41 89 -41q33 0 79 43
q23 21 35 21q16 0 16 -16q0 -22 -58 -81q-22 -25 -49 -41.5t-44 -16.5z" />
    <glyph glyph-name="Tcommaaccent" unicode="&#x162;" horiz-adv-x="467" 
d="M37 74q6 0 19.5 -2.5t23.5 -2.5q20 0 38 6t34.5 19.5t30 26.5t27 38t23.5 42t21.5 49.5t18 49.5t17 54t14.5 51t14 51q11 42 27 74.5t31 48t27.5 25.5t20.5 12l8 2q-68 35 -182 35q-45 0 -73.5 -21t-28.5 -55q0 -27 12 -47t24.5 -31t12.5 -16q0 -19 -21 -19
q-47 0 -98 37.5t-51 91.5q0 37 19.5 64t50.5 40.5t63 20t64 6.5q62 0 171 -16.5t199 -16.5q45 0 74 8.5t40.5 16.5t14.5 8q9 0 15 -6t6 -14q0 -21 -45.5 -68t-92.5 -47q-28 0 -57 4.5t-44 8.5l-15 4q-30 -12 -61 -160q-4 -20 -12.5 -65t-14.5 -74.5t-18 -74.5t-24 -75
t-31.5 -64.5t-42 -54.5t-54.5 -34t-69 -14q-57 0 -100.5 22t-43.5 43q0 19 18 19zM89 -106q0 24 17 40t43 16q56 0 56 -57q0 -50 -48 -102.5t-70 -52.5q-16 0 -16 13q0 6 17 35t17 59q0 10 -8 24t-8 25z" />
    <glyph glyph-name="tcommaaccent" unicode="&#x163;" horiz-adv-x="272" 
d="M165 57q24 0 50.5 21.5t41.5 43.5l15 21q8 14 20 14q8 0 14.5 -6t6.5 -14q0 -4 -2.5 -10t-4.5 -10l-2 -4q-3 -5 -8.5 -13.5t-23.5 -29.5t-37 -37t-47 -29.5t-56 -13.5q-51 0 -96.5 34.5t-45.5 84.5q0 83 64 273h-27q-8 0 -8 9t10 22t20 13h20q33 90 58 134q9 19 27 19
q22 0 50 -23t28 -37q0 -3 -33 -93h67q8 0 8 -9q0 -8 -10.5 -21.5t-19.5 -13.5h-62q-70 -189 -70 -273q0 -22 15.5 -37t37.5 -15zM17 -126q0 24 17 40t43 16q56 0 56 -57q0 -50 -48 -102.5t-70 -52.5q-16 0 -16 13q0 6 17 35t17 59q0 10 -8 24t-8 25z" />
    <glyph glyph-name="Tcaron" unicode="&#x164;" horiz-adv-x="467" 
d="M37 74q-18 0 -18 -19q0 -21 43.5 -43t100.5 -22q37 0 69 14t54.5 34t42 54.5t31.5 64.5t24 75t18 74.5t14.5 74.5t12.5 65q31 148 61 160q52 -17 116 -17q47 0 92.5 47t45.5 68q0 8 -6 14t-15 6q-3 0 -14.5 -8t-40.5 -16.5t-74 -8.5q-90 0 -199 16.5t-171 16.5
q-32 0 -64 -6.5t-63 -20t-50.5 -40.5t-19.5 -64q0 -54 51 -91.5t98 -37.5q21 0 21 19q0 5 -12.5 16t-24.5 31t-12 47q0 34 28.5 55t73.5 21q114 0 182 -35q-3 0 -8 -2t-20 -12t-28.5 -25.5t-30 -48t-27.5 -74.5q-10 -37 -14 -51t-14.5 -51t-17 -54t-18 -49.5t-21.5 -49.5
t-23.5 -42t-27 -38t-30 -26.5t-34.5 -19.5t-38 -6q-10 0 -23.5 2.5t-19.5 2.5zM514 744q-17 0 -42 23t-44 52q-27 39 -27 58q0 17 14 17q6 0 31 -18q44 -41 89 -41q33 0 79 43q23 21 35 21q16 0 16 -16q0 -22 -58 -81q-22 -25 -49 -41.5t-44 -16.5z" />
    <glyph glyph-name="tcaron" unicode="&#x165;" horiz-adv-x="272" 
d="M165 57q24 0 50.5 21.5t41.5 43.5l15 21q8 14 20 14q8 0 14.5 -6t6.5 -14q0 -4 -2.5 -10t-4.5 -10l-2 -4q-3 -5 -8.5 -13.5t-23.5 -29.5t-37 -37t-47 -29.5t-56 -13.5q-51 0 -96.5 34.5t-45.5 84.5q0 83 64 273h-27q-8 0 -8 9t10 22t20 13h20q33 90 58 134q9 19 27 19
q22 0 50 -23t28 -37q0 -3 -33 -93h67q8 0 8 -9q0 -8 -10.5 -21.5t-19.5 -13.5h-62q-70 -189 -70 -273q0 -22 15.5 -37t37.5 -15zM284 623q0 24 17 40t43 16q56 0 56 -57q0 -50 -48 -102.5t-70 -52.5q-16 0 -16 13q0 6 17 35t17 59q0 10 -8 24t-8 25z" />
    <glyph glyph-name="Umacron" unicode="&#x16a;" horiz-adv-x="836" 
d="M696 -10q-56 0 -101 39.5t-45 98.5q0 23 2 36q-118 -174 -245 -174q-56 0 -97.5 34.5t-41.5 80.5q0 54 48.5 157t97 204.5t48.5 152.5q0 45 -43 45q-53 0 -125.5 -60t-72.5 -127q0 -27 12.5 -49.5t25 -35.5t12.5 -17q0 -20 -21 -20q-47 0 -103.5 42.5t-56.5 96.5
q0 59 59.5 113.5t142 85.5t156.5 31q62 0 101 -29t39 -76q0 -44 -28.5 -118t-63 -140t-63 -137t-28.5 -111q0 -43 44 -43q71 0 234 240q26 93 67 191t71 150q21 35 61 50.5t74 15.5q29 0 29 -14q0 -8 -24 -36q-39 -48 -113.5 -243t-74.5 -301q0 -33 16 -49.5t40 -16.5
t50.5 21.5t41.5 43.5l15 21q8 14 20 14q8 0 14.5 -6t6.5 -14q0 -4 -2.5 -10t-4.5 -10l-2 -4q-3 -5 -8.5 -13.5t-23.5 -29.5t-37 -37t-47 -29.5t-56 -13.5zM756 766h-255q-16 0 -16 16q0 14 9.5 37t21.5 23h255q11 0 15 -3t4 -12q0 -14 -11 -37.5t-23 -23.5z" />
    <glyph glyph-name="umacron" unicode="&#x16b;" horiz-adv-x="488" 
d="M349 95q0 -38 32 -38q24 0 50.5 21.5t41.5 43.5l15 21q8 14 20 14q8 0 14.5 -6t6.5 -14q0 -4 -2.5 -10t-4.5 -10l-2 -4q-3 -5 -8.5 -13.5t-23.5 -29.5t-37 -37t-47 -29.5t-56 -13.5q-97 0 -121 75q-27 -31 -64 -53t-73 -22q-37 0 -70.5 29t-33.5 68q0 48 27 138.5
t51 146.5q9 19 27 19q21 0 50 -22.5t29 -34.5q0 -25 -32.5 -111.5t-32.5 -139.5q0 -30 23 -30t49 22.5t39 48.5q12 23 42.5 122.5t41.5 125.5q9 19 28 19q21 0 49.5 -22.5t28.5 -34.5q0 -25 -28.5 -105.5t-28.5 -133.5zM383 449h-255q-16 0 -16 16q0 14 9.5 37t21.5 23h255
q11 0 15 -3t4 -12q0 -14 -11 -37.5t-23 -23.5z" />
    <glyph glyph-name="Ubreve" unicode="&#x16c;" horiz-adv-x="836" 
d="M696 -10q-56 0 -101 39.5t-45 98.5q0 23 2 36q-118 -174 -245 -174q-56 0 -97.5 34.5t-41.5 80.5q0 54 48.5 157t97 204.5t48.5 152.5q0 45 -43 45q-53 0 -125.5 -60t-72.5 -127q0 -27 12.5 -49.5t25 -35.5t12.5 -17q0 -20 -21 -20q-47 0 -103.5 42.5t-56.5 96.5
q0 59 59.5 113.5t142 85.5t156.5 31q62 0 101 -29t39 -76q0 -44 -28.5 -118t-63 -140t-63 -137t-28.5 -111q0 -43 44 -43q71 0 234 240q26 93 67 191t71 150q21 35 61 50.5t74 15.5q29 0 29 -14q0 -8 -24 -36q-39 -48 -113.5 -243t-74.5 -301q0 -33 16 -49.5t40 -16.5
t50.5 21.5t41.5 43.5l15 21q8 14 20 14q8 0 14.5 -6t6.5 -14q0 -4 -2.5 -10t-4.5 -10l-2 -4q-3 -5 -8.5 -13.5t-23.5 -29.5t-37 -37t-47 -29.5t-56 -13.5zM620 740q-56 0 -91 27.5t-35 74.5q0 26 16.5 41.5t38.5 15.5q31 0 31 -31q0 -10 -4.5 -19t-4.5 -17q0 -14 15.5 -22.5
t40.5 -8.5q33 0 49.5 13.5t16.5 34.5q0 48 44 48q18 0 29 -10.5t11 -28.5q0 -26 -19 -54q-45 -64 -138 -64z" />
    <glyph glyph-name="ubreve" unicode="&#x16d;" horiz-adv-x="488" 
d="M349 95q0 -38 32 -38q24 0 50.5 21.5t41.5 43.5l15 21q8 14 20 14q8 0 14.5 -6t6.5 -14q0 -4 -2.5 -10t-4.5 -10l-2 -4q-3 -5 -8.5 -13.5t-23.5 -29.5t-37 -37t-47 -29.5t-56 -13.5q-97 0 -121 75q-27 -31 -64 -53t-73 -22q-37 0 -70.5 29t-33.5 68q0 48 27 138.5
t51 146.5q9 19 27 19q21 0 50 -22.5t29 -34.5q0 -25 -32.5 -111.5t-32.5 -139.5q0 -30 23 -30t49 22.5t39 48.5q12 23 42.5 122.5t41.5 125.5q9 19 28 19q21 0 49.5 -22.5t28.5 -34.5q0 -25 -28.5 -105.5t-28.5 -133.5zM232 427q-56 0 -91 27.5t-35 74.5q0 26 16.5 41.5
t38.5 15.5q31 0 31 -31q0 -10 -4.5 -19t-4.5 -17q0 -14 15.5 -22.5t40.5 -8.5q33 0 49.5 13.5t16.5 34.5q0 48 44 48q18 0 29 -10.5t11 -28.5q0 -25 -19 -54q-45 -64 -138 -64z" />
    <glyph glyph-name="Uring" unicode="&#x16e;" horiz-adv-x="836" 
d="M696 -10q-56 0 -101 39.5t-45 98.5q0 23 2 36q-118 -174 -245 -174q-56 0 -97.5 34.5t-41.5 80.5q0 54 48.5 157t97 204.5t48.5 152.5q0 45 -43 45q-53 0 -125.5 -60t-72.5 -127q0 -27 12.5 -49.5t25 -35.5t12.5 -17q0 -20 -21 -20q-47 0 -103.5 42.5t-56.5 96.5
q0 59 59.5 113.5t142 85.5t156.5 31q62 0 101 -29t39 -76q0 -44 -28.5 -118t-63 -140t-63 -137t-28.5 -111q0 -43 44 -43q71 0 234 240q26 93 67 191t71 150q21 35 61 50.5t74 15.5q29 0 29 -14q0 -8 -24 -36q-39 -48 -113.5 -243t-74.5 -301q0 -33 16 -49.5t40 -16.5
t50.5 21.5t41.5 43.5l15 21q8 14 20 14q8 0 14.5 -6t6.5 -14q0 -4 -2.5 -10t-4.5 -10l-2 -4q-3 -5 -8.5 -13.5t-23.5 -29.5t-37 -37t-47 -29.5t-56 -13.5zM518 839q0 43 30 73.5t74 30.5t74 -30.5t30 -73.5t-30 -73.5t-74 -30.5t-74 30.5t-30 73.5zM578 839q0 -18 13 -31
t31 -13t30 13t12 31t-12 30t-30 12t-31 -12t-13 -30z" />
    <glyph glyph-name="uring" unicode="&#x16f;" horiz-adv-x="488" 
d="M349 95q0 -38 32 -38q24 0 50.5 21.5t41.5 43.5l15 21q8 14 20 14q8 0 14.5 -6t6.5 -14q0 -4 -2.5 -10t-4.5 -10l-2 -4q-3 -5 -8.5 -13.5t-23.5 -29.5t-37 -37t-47 -29.5t-56 -13.5q-97 0 -121 75q-27 -31 -64 -53t-73 -22q-37 0 -70.5 29t-33.5 68q0 48 27 138.5
t51 146.5q9 19 27 19q21 0 50 -22.5t29 -34.5q0 -25 -32.5 -111.5t-32.5 -139.5q0 -30 23 -30t49 22.5t39 48.5q12 23 42.5 122.5t41.5 125.5q9 19 28 19q21 0 49.5 -22.5t28.5 -34.5q0 -25 -28.5 -105.5t-28.5 -133.5zM178 528q0 -18 13 -31t31 -13t30 13t12 31t-12 30
t-30 12t-31 -12t-13 -30zM118 528q0 44 30 74t74 30t74 -30t30 -74t-30 -74t-74 -30t-74 30t-30 74z" />
    <glyph glyph-name="Uhungarumlaut" unicode="&#x170;" horiz-adv-x="836" 
d="M696 -10q-56 0 -101 39.5t-45 98.5q0 23 2 36q-118 -174 -245 -174q-56 0 -97.5 34.5t-41.5 80.5q0 54 48.5 157t97 204.5t48.5 152.5q0 45 -43 45q-53 0 -125.5 -60t-72.5 -127q0 -27 12.5 -49.5t25 -35.5t12.5 -17q0 -20 -21 -20q-47 0 -103.5 42.5t-56.5 96.5
q0 59 59.5 113.5t142 85.5t156.5 31q62 0 101 -29t39 -76q0 -44 -28.5 -118t-63 -140t-63 -137t-28.5 -111q0 -43 44 -43q71 0 234 240q26 93 67 191t71 150q21 35 61 50.5t74 15.5q29 0 29 -14q0 -8 -24 -36q-39 -48 -113.5 -243t-74.5 -301q0 -33 16 -49.5t40 -16.5
t50.5 21.5t41.5 43.5l15 21q8 14 20 14q8 0 14.5 -6t6.5 -14q0 -4 -2.5 -10t-4.5 -10l-2 -4q-3 -5 -8.5 -13.5t-23.5 -29.5t-37 -37t-47 -29.5t-56 -13.5zM778 922q12 0 31.5 -24.5t19.5 -40.5q0 -22 -24 -42q-29 -26 -69 -40.5t-66 -14.5q-18 0 -18 15q0 11 16 20
q62 37 86 107q7 20 24 20zM610 922q12 0 31.5 -24.5t19.5 -40.5q0 -22 -24 -42q-29 -26 -69 -40.5t-66 -14.5q-18 0 -18 15q0 11 16 20q62 37 86 107q7 20 24 20z" />
    <glyph glyph-name="uhungarumlaut" unicode="&#x171;" horiz-adv-x="488" 
d="M349 95q0 -38 32 -38q24 0 50.5 21.5t41.5 43.5l15 21q8 14 20 14q8 0 14.5 -6t6.5 -14q0 -4 -2.5 -10t-4.5 -10l-2 -4q-3 -5 -8.5 -13.5t-23.5 -29.5t-37 -37t-47 -29.5t-56 -13.5q-97 0 -121 75q-27 -31 -64 -53t-73 -22q-37 0 -70.5 29t-33.5 68q0 48 27 138.5
t51 146.5q9 19 27 19q21 0 50 -22.5t29 -34.5q0 -25 -32.5 -111.5t-32.5 -139.5q0 -30 23 -30t49 22.5t39 48.5q12 23 42.5 122.5t41.5 125.5q9 19 28 19q21 0 49.5 -22.5t28.5 -34.5q0 -25 -28.5 -105.5t-28.5 -133.5zM244 604q12 0 31.5 -24.5t19.5 -40.5q0 -22 -24 -42
q-29 -26 -69 -40.5t-66 -14.5q-18 0 -18 15q0 11 16 20q62 37 86 107q7 20 24 20zM412 604q12 0 31.5 -24.5t19.5 -40.5q0 -22 -24 -42q-29 -26 -69 -40.5t-66 -14.5q-18 0 -18 15q0 11 16 20q62 37 86 107q7 20 24 20z" />
    <glyph glyph-name="Ydieresis" unicode="&#x178;" horiz-adv-x="773" 
d="M805 113q-51 -85 -195 -135q-48 -130 -109.5 -196.5t-156.5 -66.5q-75 0 -129.5 44.5t-54.5 95.5q0 22 10 40t24.5 31t42 24t49.5 18t60.5 13.5t62.5 10t67 8.5q5 0 8 1q30 75 66 187q-107 -102 -197 -102q-52 0 -95 35.5t-43 81.5q0 40 23 98.5t50.5 108.5t50.5 109
t23 100q0 45 -43 45q-53 0 -125.5 -60t-72.5 -127q0 -27 12.5 -49.5t25 -35.5t12.5 -17q0 -20 -21 -20q-46 0 -98 42t-52 97q0 59 56.5 113.5t137 85.5t154.5 31q61 0 103.5 -33t42.5 -81q0 -58 -32 -132t-63.5 -140t-31.5 -103q0 -25 12.5 -41.5t34.5 -16.5q29 0 67.5 30
t65 61.5t50.5 65.5l12 37q34 106 56 155t66 125q21 36 56.5 51t68.5 15q29 0 29 -14q0 -8 -24 -36q-21 -26 -64 -117.5t-71 -185.5q-93 -317 -96 -328q98 37 143 107q8 14 20 14q8 0 14.5 -6t6.5 -14q0 -4 -2 -10t-4 -10zM308 -228q41 0 77 41t73 126q-85 -16 -142 -49
t-57 -70q0 -20 15 -34t34 -14zM510 788q0 27 21 52t48 25q19 0 30.5 -13.5t11.5 -34.5q0 -28 -20.5 -53t-50.5 -25q-17 0 -28.5 14t-11.5 35zM655 788q0 27 21 52t48 25q19 0 30.5 -13.5t11.5 -34.5q0 -28 -20.5 -53t-50.5 -25q-17 0 -28.5 14t-11.5 35z" />
    <glyph glyph-name="Zacute" unicode="&#x179;" horiz-adv-x="612" 
d="M644 113q-3 -5 -8.5 -13.5t-24 -29.5t-38 -37t-50.5 -29.5t-63 -13.5q-55 0 -121.5 23t-125.5 23q-32 0 -75 -24t-55 -24q-25 0 -54.5 29t-29.5 57q0 53 299 359q176 179 204 198q-18 0 -87 8.5t-113 8.5q-47 0 -76.5 -19t-29.5 -52q0 -27 12.5 -47t25 -31t12.5 -16
q0 -19 -21 -19q-48 0 -106.5 40t-58.5 94q0 52 53.5 89t130.5 37q78 0 171 -10t104 -10q24 0 60 10t52 10q19 0 44.5 -23t25.5 -34q0 -14 -25 -29q-66 -41 -287 -273q-59 -62 -122.5 -132.5t-96.5 -110.5l-34 -39q77 36 162 36q44 0 109.5 -11.5t102.5 -11.5q31 0 56.5 12
t35.5 24l10 11q8 14 20 14q8 0 14.5 -6t6.5 -14q0 -4 -2.5 -10t-4.5 -10zM505 921q12 0 31.5 -25t19.5 -41q0 -22 -24 -42q-29 -25 -73.5 -39.5t-72.5 -14.5q-18 0 -18 15q0 10 16 19q46 28 97 108q12 20 24 20z" />
    <glyph glyph-name="zacute" unicode="&#x17a;" horiz-adv-x="470" 
d="M95 225q18 36 34 51t37 15q20 0 56.5 -10t55.5 -10q-24 -29 -87 -80.5t-109 -92.5t-46 -59q0 -15 15.5 -32t32.5 -17q9 0 42 9.5t59 9.5q34 0 76 -9.5t69 -9.5q28 0 56 12.5t48 31t36 36.5t24 30l8 13q9 15 9 24q0 8 -6.5 14t-14.5 6q-5 0 -10 -3.5t-8 -7.5l-2 -3l-6 -9
t-16 -21t-24 -26t-29 -20.5t-32 -9.5q-28 0 -82.5 25t-103.5 25q34 34 102 87.5t113.5 91t45.5 49.5q0 17 -13.5 36.5t-27.5 19.5q-5 0 -26.5 -9.5t-39.5 -9.5q-21 0 -68.5 9.5t-82.5 9.5q-37 0 -58.5 -14t-34.5 -56q-29 -94 -87 -178q-11 -18 -11 -24q0 -7 6.5 -14t14.5 -7
q11 0 22 15q24 34 63 112zM358 599q12 0 31.5 -25t19.5 -41q0 -22 -24 -42q-29 -25 -73.5 -39.5t-72.5 -14.5q-18 0 -18 15q0 10 16 19q46 28 97 108q12 20 24 20z" />
    <glyph glyph-name="Zdotaccent" unicode="&#x17b;" horiz-adv-x="612" 
d="M644 113q-3 -5 -8.5 -13.5t-24 -29.5t-38 -37t-50.5 -29.5t-63 -13.5q-55 0 -121.5 23t-125.5 23q-32 0 -75 -24t-55 -24q-25 0 -54.5 29t-29.5 57q0 53 299 359q176 179 204 198q-18 0 -87 8.5t-113 8.5q-47 0 -76.5 -19t-29.5 -52q0 -27 12.5 -47t25 -31t12.5 -16
q0 -19 -21 -19q-48 0 -106.5 40t-58.5 94q0 52 53.5 89t130.5 37q78 0 171 -10t104 -10q24 0 60 10t52 10q19 0 44.5 -23t25.5 -34q0 -14 -25 -29q-66 -41 -287 -273q-59 -62 -122.5 -132.5t-96.5 -110.5l-34 -39q77 36 162 36q44 0 109.5 -11.5t102.5 -11.5q31 0 56.5 12
t35.5 24l10 11q8 14 20 14q8 0 14.5 -6t6.5 -14q0 -4 -2.5 -10t-4.5 -10zM376 810q0 31 22.5 59t51.5 28q20 0 34 -13.5t14 -35.5q0 -32 -20 -60t-52 -28q-21 0 -35.5 14t-14.5 36z" />
    <glyph glyph-name="zdotaccent" unicode="&#x17c;" horiz-adv-x="470" 
d="M95 225q18 36 34 51t37 15q20 0 56.5 -10t55.5 -10q-24 -29 -87 -80.5t-109 -92.5t-46 -59q0 -15 15.5 -32t32.5 -17q9 0 42 9.5t59 9.5q34 0 76 -9.5t69 -9.5q28 0 56 12.5t48 31t36 36.5t24 30l8 13q9 15 9 24q0 8 -6.5 14t-14.5 6q-5 0 -10 -3.5t-8 -7.5l-2 -3l-6 -9
t-16 -21t-24 -26t-29 -20.5t-32 -9.5q-28 0 -82.5 25t-103.5 25q34 34 102 87.5t113.5 91t45.5 49.5q0 17 -13.5 36.5t-27.5 19.5q-5 0 -26.5 -9.5t-39.5 -9.5q-21 0 -68.5 9.5t-82.5 9.5q-37 0 -58.5 -14t-34.5 -56q-29 -94 -87 -178q-11 -18 -11 -24q0 -7 6.5 -14t14.5 -7
q11 0 22 15q24 34 63 112zM248 488q0 31 22.5 59t51.5 28q20 0 34 -13.5t14 -35.5q0 -32 -20 -60t-52 -28q-21 0 -35.5 14t-14.5 36z" />
    <glyph glyph-name="Zcaron" unicode="&#x17d;" horiz-adv-x="612" 
d="M644 113q-3 -5 -8.5 -13.5t-24 -29.5t-38 -37t-50.5 -29.5t-63 -13.5q-55 0 -121.5 23t-125.5 23q-32 0 -75 -24t-55 -24q-25 0 -54.5 29t-29.5 57q0 53 299 359q176 179 204 198q-18 0 -87 8.5t-113 8.5q-47 0 -76.5 -19t-29.5 -52q0 -27 12.5 -47t25 -31t12.5 -16
q0 -19 -21 -19q-48 0 -106.5 40t-58.5 94q0 52 53.5 89t130.5 37q78 0 171 -10t104 -10q24 0 60 10t52 10q19 0 44.5 -23t25.5 -34q0 -14 -25 -29q-66 -41 -287 -273q-59 -62 -122.5 -132.5t-96.5 -110.5l-34 -39q77 36 162 36q44 0 109.5 -11.5t102.5 -11.5q31 0 56.5 12
t35.5 24l10 11q8 14 20 14q8 0 14.5 -6t6.5 -14q0 -4 -2.5 -10t-4.5 -10zM415 768q-17 0 -42 23t-44 52q-27 39 -27 58q0 17 14 17q6 0 31 -18q44 -41 89 -41q33 0 79 43q23 21 35 21q16 0 16 -16q0 -22 -58 -81q-22 -25 -49 -41.5t-44 -16.5z" />
    <glyph glyph-name="zcaron" unicode="&#x17e;" horiz-adv-x="470" 
d="M95 225q18 36 34 51t37 15q20 0 56.5 -10t55.5 -10q-24 -29 -87 -80.5t-109 -92.5t-46 -59q0 -15 15.5 -32t32.5 -17q9 0 42 9.5t59 9.5q34 0 76 -9.5t69 -9.5q28 0 56 12.5t48 31t36 36.5t24 30l8 13q9 15 9 24q0 8 -6.5 14t-14.5 6q-5 0 -10 -3.5t-8 -7.5l-2 -3l-6 -9
t-16 -21t-24 -26t-29 -20.5t-32 -9.5q-28 0 -82.5 25t-103.5 25q34 34 102 87.5t113.5 91t45.5 49.5q0 17 -13.5 36.5t-27.5 19.5q-5 0 -26.5 -9.5t-39.5 -9.5q-21 0 -68.5 9.5t-82.5 9.5q-37 0 -58.5 -14t-34.5 -56q-29 -94 -87 -178q-11 -18 -11 -24q0 -7 6.5 -14t14.5 -7
q11 0 22 15q24 34 63 112zM283 442q-17 0 -42 23t-44 52q-27 39 -27 58q0 17 14 17q6 0 31 -18q44 -41 89 -41q33 0 79 43q23 21 35 21q16 0 16 -16q0 -22 -58 -81q-22 -25 -49 -41.5t-44 -16.5z" />
    <glyph glyph-name="florin" unicode="&#x192;" horiz-adv-x="298" 
d="M196 330v-297q0 -81 -44.5 -121.5t-102.5 -40.5q-33 0 -52.5 14.5t-19.5 37.5q0 20 11.5 31t28.5 11q14 0 22.5 -9t8.5 -23q0 -9 11 -9q12 0 23 13.5t11 35.5v357h-15q-26 0 -26 25q0 10 6.5 16t13.5 7h6h15v52q0 81 43 121.5t101 40.5q32 0 52 -15t20 -37q0 -41 -37 -41
q-17 0 -25.5 9.5t-8.5 21.5q0 11 -10 11q-12 0 -22 -13t-10 -39v-111h62q2 0 6 -0.5t10 -6.5t6 -16q0 -11 -5.5 -17.5t-10.5 -7.5h-6h-62z" />
    <glyph glyph-name="Scommaaccent" unicode="&#x218;" horiz-adv-x="584" 
d="M502 665q-51 0 -85.5 -34t-34.5 -79q0 -41 23 -90.5t50 -88t50 -86.5t23 -88q0 -86 -75 -147.5t-168 -61.5q-120 0 -194 59t-74 128q0 39 38.5 76.5t85.5 58t81 20.5q17 0 17 -17q0 -9 -21 -24q-22 -18 -33 -28.5t-22.5 -33.5t-11.5 -50q0 -43 34 -80t85 -37
q57 0 92 33.5t35 89.5q0 33 -22.5 77.5t-49 82t-49 88t-22.5 93.5q0 88 81.5 143t179.5 55q60 0 99.5 -21t39.5 -61q0 -48 -54.5 -97.5t-86.5 -49.5q-7 0 -12 5t-5 10q0 7 13 24q42 54 42 90q0 19 -13.5 30t-35.5 11zM201 -112q0 24 17 40t43 16q56 0 56 -57
q0 -50 -48 -102.5t-70 -52.5q-16 0 -16 13q0 6 17 35t17 59q0 10 -8 24t-8 25z" />
    <glyph glyph-name="scommaaccent" unicode="&#x219;" horiz-adv-x="409" 
d="M159 267q-74 -113 -74 -126q0 -49 12 -81.5t37 -32.5q23 0 39.5 25t16.5 59q0 27 -15.5 82t-15.5 74zM441 113q-3 -5 -9.5 -14t-31 -31.5t-54 -39.5t-80.5 -31t-108 -14q-70 0 -125.5 49.5t-55.5 97.5q0 26 24 46t48 27l24 7q21 33 67 104q63 94 104 94q15 0 32 -14.5
t17 -22.5q0 -5 -12 -28t-12 -38q0 -42 19.5 -93.5t19.5 -79.5q0 -23 -6 -42t-12 -26l-5 -8q35 9 66 31t45 39l13 17q8 14 20 14q8 0 14.5 -6t6.5 -14q0 -4 -2 -10t-4 -10zM79 -118q0 24 17 40t43 16q56 0 56 -57q0 -50 -48 -102.5t-70 -52.5q-16 0 -16 13q0 6 17 35t17 59
q0 10 -8 24t-8 25z" />
    <glyph glyph-name="circumflex" unicode="&#x2c6;" horiz-adv-x="300" 
d="M157 528q-4 0 -14 -6q-96 -54 -119 -54q-7 0 -12.5 5.5t-5.5 11.5q0 13 16 24q56 38 98 83q2 2 5.5 6.5t5 6.5t5 5.5l5.5 5.5t5.5 4t7 3t7.5 2t9 1q10 0 16.5 -3.5t9 -7t7 -12.5t8.5 -15q30 -49 66 -78q18 -12 18 -23q0 -7 -5.5 -13t-13.5 -6q-12 0 -43 13.5t-65 40.5
q-6 6 -11 6z" />
    <glyph glyph-name="caron" unicode="&#x2c7;" horiz-adv-x="289" 
d="M125 471q-17 0 -42 23t-44 52q-27 39 -27 58q0 17 14 17q6 0 31 -18q44 -41 89 -41q33 0 79 43q23 21 35 21q16 0 16 -16q0 -22 -58 -81q-22 -25 -49 -41.5t-44 -16.5z" />
    <glyph glyph-name="breve" unicode="&#x2d8;" horiz-adv-x="297" 
d="M133 480q-56 0 -91 27.5t-35 74.5q0 26 16.5 41.5t38.5 15.5q31 0 31 -31q0 -10 -4.5 -19t-4.5 -17q0 -14 15.5 -22.5t40.5 -8.5q33 0 49.5 13.5t16.5 34.5q0 48 44 48q18 0 29 -10.5t11 -28.5q0 -26 -19 -54q-45 -64 -138 -64z" />
    <glyph glyph-name="dotaccent" unicode="&#x2d9;" horiz-adv-x="165" 
d="M22 529q0 31 22.5 59t51.5 28q20 0 34 -14t14 -35q0 -32 -20 -60t-52 -28q-21 0 -35.5 14t-14.5 36z" />
    <glyph glyph-name="ring" unicode="&#x2da;" horiz-adv-x="257" 
d="M84 589q0 -18 13 -31t31 -13t30 13t12 31t-12 30t-30 12t-31 -12t-13 -30zM24 589q0 43 30 73.5t74 30.5t74 -30.5t30 -73.5t-30 -73.5t-74 -30.5t-74 30.5t-30 73.5z" />
    <glyph glyph-name="ogonek" unicode="&#x2db;" horiz-adv-x="204" 
d="M146 27q15 0 15 -11q0 -3 -1 -5.5t-3 -4l-4 -3t-4.5 -3t-3.5 -1.5q-19 -11 -36.5 -29t-17.5 -35q0 -20 21 -36t56 -16q17 0 17 -10t-15 -25q-37 -39 -74 -39q-28 0 -56 30.5t-28 63.5q0 53 53 88.5t81 35.5z" />
    <glyph glyph-name="tilde" unicode="&#x2dc;" horiz-adv-x="374" 
d="M259 476q-24 0 -88 18t-87 18q-14 0 -36 -10t-25 -10q-13 0 -13 13q0 8 11 23q16 22 41.5 42t49.5 20t83 -19t84 -19q19 0 42.5 11.5t26.5 11.5q13 0 13 -10q0 -9 -6 -19q-49 -70 -96 -70z" />
    <glyph glyph-name="hungarumlaut" unicode="&#x2dd;" horiz-adv-x="384" 
d="M145 631q12 0 31.5 -24.5t19.5 -40.5q0 -22 -24 -42q-29 -26 -69 -40.5t-66 -14.5q-18 0 -18 15q0 11 16 20q62 37 86 107q7 20 24 20zM313 631q12 0 31.5 -24.5t19.5 -40.5q0 -22 -24 -42q-29 -26 -69 -40.5t-66 -14.5q-18 0 -18 15q0 11 16 20q62 37 86 107q7 20 24 20
z" />
    <glyph glyph-name="Omega" unicode="&#x3a9;" horiz-adv-x="597" 
d="M566 -2q-19 0 -65.5 10.5t-73.5 10.5q-19 0 -42 -10t-31 -10q-12 0 -12 16t22 61t40 65q37 39 83.5 147t46.5 216q0 86 -28.5 124.5t-84.5 38.5q-63 0 -109.5 -69t-46.5 -177q0 -91 9.5 -159.5t19 -107t9.5 -56.5q0 -20 -30 -60t-57 -40q-21 0 -54 7t-49 7
q-37 0 -64.5 -9.5t-29.5 -9.5q-12 0 -12 16q1 28 37 69.5t81 41.5q26 0 62.5 -8.5t53.5 -8.5q-40 39 -82 125t-42 189q0 135 90 221t214 86q120 0 192 -65.5t72 -177.5q0 -108 -75.5 -216t-139.5 -147q18 -1 52.5 -7.5t57.5 -6.5q19 0 36.5 5t19.5 5q17 0 17 -16
q0 -20 -30.5 -60t-56.5 -40z" />
    <glyph glyph-name="Omega" unicode="&#x2126;" horiz-adv-x="597" 
d="M566 -2q-19 0 -65.5 10.5t-73.5 10.5q-19 0 -42 -10t-31 -10q-12 0 -12 16t22 61t40 65q37 39 83.5 147t46.5 216q0 86 -28.5 124.5t-84.5 38.5q-63 0 -109.5 -69t-46.5 -177q0 -91 9.5 -159.5t19 -107t9.5 -56.5q0 -20 -30 -60t-57 -40q-21 0 -54 7t-49 7
q-37 0 -64.5 -9.5t-29.5 -9.5q-12 0 -12 16q1 28 37 69.5t81 41.5q26 0 62.5 -8.5t53.5 -8.5q-40 39 -82 125t-42 189q0 135 90 221t214 86q120 0 192 -65.5t72 -177.5q0 -108 -75.5 -216t-139.5 -147q18 -1 52.5 -7.5t57.5 -6.5q19 0 36.5 5t19.5 5q17 0 17 -16
q0 -20 -30.5 -60t-56.5 -40z" />
    <glyph glyph-name="endash" unicode="&#x2013;" horiz-adv-x="592" 
d="M127 304q56 0 197 11.5t166 11.5q24 0 54.5 -33t30.5 -48q0 -6 -5.5 -11t-9.5 -5q-1 0 -23.5 10t-42.5 10q-79 0 -202.5 -26.5t-146.5 -26.5q-53 0 -90.5 46t-37.5 71q0 6 4 10t9 4q1 0 31 -12t66 -12z" />
    <glyph glyph-name="emdash" unicode="&#x2014;" horiz-adv-x="792" 
d="M127 304q53 0 265 11.5t255 11.5q46 0 87 -32t41 -49q0 -6 -5.5 -11t-9.5 -5q-1 0 -38.5 10t-57.5 10q-79 0 -287.5 -26.5t-231.5 -26.5q-53 0 -90.5 46t-37.5 71q0 6 4 10t9 4q1 0 31 -12t66 -12z" />
    <glyph glyph-name="quoteleft" unicode="&#x2018;" horiz-adv-x="111" 
d="M126 549q0 -22 -14.5 -37t-38.5 -15q-53 0 -53 53q0 48 46 98.5t67 50.5q14 0 14 -13q0 -6 -16 -33.5t-16 -55.5q0 -9 5.5 -23t5.5 -25z" />
    <glyph glyph-name="quoteright" unicode="&#x2019;" horiz-adv-x="167" 
d="M76 646q0 23 14.5 38t38.5 15q53 0 53 -54q0 -48 -45.5 -98t-66.5 -50q-15 0 -15 13q0 5 16 32.5t16 56.5q0 9 -5.5 22.5t-5.5 24.5z" />
    <glyph glyph-name="quotesinglbase" unicode="&#x201a;" horiz-adv-x="148" 
d="M24 42q0 23 14.5 38t38.5 15q53 0 53 -54q0 -38 -37.5 -93t-54.5 -55q-15 0 -15 13q0 5 6 32.5t6 56.5q0 9 -5.5 22.5t-5.5 24.5z" />
    <glyph glyph-name="quotedblleft" unicode="&#x201c;" horiz-adv-x="219" 
d="M246 549q0 -22 -14 -37t-38 -15q-53 0 -53 53q0 48 45.5 98.5t66.5 50.5q14 0 14 -13q0 -6 -16 -33.5t-16 -55.5q0 -9 5.5 -23t5.5 -25zM109 549q0 -22 -14.5 -37t-38.5 -15q-53 0 -53 53q0 48 46 98.5t67 50.5q14 0 14 -13q0 -6 -16 -33.5t-16 -55.5q0 -9 5.5 -23
t5.5 -25z" />
    <glyph glyph-name="quotedblright" unicode="&#x201d;" horiz-adv-x="319" 
d="M76 646q0 23 14.5 38t38.5 15q53 0 53 -54q0 -48 -45.5 -98t-66.5 -50q-15 0 -15 13q0 5 16 32.5t16 56.5q0 9 -5.5 22.5t-5.5 24.5zM214 646q0 23 14 38t38 15q53 0 53 -54q0 -48 -45.5 -98t-66.5 -50q-14 0 -14 13q0 5 16 32.5t16 56.5q0 9 -5.5 22.5t-5.5 24.5z" />
    <glyph glyph-name="quotedblbase" unicode="&#x201e;" horiz-adv-x="301" 
d="M24 55q0 23 14.5 38t38.5 15q53 0 53 -54q0 -48 -45.5 -98t-66.5 -50q-15 0 -15 13q0 5 16 32.5t16 56.5q0 9 -5.5 22.5t-5.5 24.5zM172 55q0 23 14 38t38 15q53 0 53 -54q0 -48 -45.5 -98t-66.5 -50q-14 0 -14 13q0 5 16 32.5t16 56.5q0 9 -5.5 22.5t-5.5 24.5z" />
    <glyph glyph-name="dagger" unicode="&#x2020;" horiz-adv-x="416" 
d="M170 411q-64 0 -84 -19q-7 -7 -11 -7q-3 0 -10 7q-21 23 -45 40q-9 8 -9 13q0 6 9 12q22 16 45 39q8 8 11 8t10 -7q21 -19 84 -19q0 55 -3.5 73t-15.5 29q-6 4 -6 10q0 4 7 11q39 39 44 46q7 8 13 8q3 0 11 -9q6 -8 13.5 -15.5t18 -16.5t14.5 -13q7 -7 7 -10q0 -5 -7 -11
q-19 -21 -19 -102q38 0 56 3.5t28 15.5q3 6 10 6q4 0 11 -7q23 -23 45 -39q9 -6 9 -12q0 -5 -9 -13q-24 -17 -45 -40q-7 -7 -10 -7q-4 0 -11 7q-19 19 -83 19q0 -59 21 -80q8 -8 8 -13t-8 -16q-38 -50 -38 -281q0 -25 -22 -25t-22 25q0 242 -37 281q-9 9 -9 15t8 14
q12 12 16.5 27.5t4.5 52.5z" />
    <glyph glyph-name="daggerdbl" unicode="&#x2021;" horiz-adv-x="420" 
d="M170 239v172q-64 0 -84 -19q-7 -7 -11 -7q-3 0 -10 7q-18 20 -45 40q-9 8 -9 13q0 6 9 12q33 24 45 39q6 8 11 8t10 -7q10 -12 28 -15.5t56 -3.5q0 55 -3.5 73t-15.5 29q-6 4 -6 10q0 4 7 11q4 4 14 13t17 16.5t13 15.5q8 9 12 9t12 -9q6 -8 13.5 -15.5t18 -16.5
t14.5 -13q7 -7 7 -10q0 -5 -7 -11q-11 -10 -15 -30t-4 -72q39 0 56.5 3t27.5 16q5 7 10 7t11 -8q13 -16 45 -39q9 -6 9 -12q0 -5 -9 -13q-33 -27 -45 -40q-7 -7 -10 -7q-4 0 -11 7q-19 19 -83 19v-172q63 0 83 19q7 7 11 7q3 0 10 -7q20 -22 45 -40q9 -8 9 -13q0 -6 -9 -12
q-27 -20 -44 -40q-5 -7 -12 -7q-4 0 -11 7q-10 13 -27 16t-56 3q0 -55 3.5 -73t15.5 -29q6 -4 6 -10q0 -4 -7 -11q-21 -17 -45 -47q-6 -7 -11 -7t-12 9q-19 27 -46 45q-7 7 -7 10q0 5 7 11q13 12 16 29t3 73q-39 0 -54 -2.5t-27 -15.5q-8 -8 -13 -8t-11 8q-18 20 -45 39
q-9 6 -9 12q0 5 9 13q28 22 45 40q7 7 10 7q4 0 11 -7q19 -19 84 -19z" />
    <glyph glyph-name="bullet" unicode="&#x2022;" horiz-adv-x="140" 
d="M0 264q0 28 24 55t54 27q23 0 37.5 -13.5t14.5 -37.5q0 -29 -22.5 -56.5t-55.5 -27.5q-24 0 -38 14.5t-14 38.5z" />
    <glyph glyph-name="ellipsis" unicode="&#x2026;" horiz-adv-x="594" 
d="M11 44q0 28 24 55t54 27q23 0 37.5 -13.5t14.5 -37.5q0 -29 -22.5 -56.5t-55.5 -27.5q-24 0 -38 14.5t-14 38.5zM209 44q0 28 24 55t54 27q23 0 37.5 -13.5t14.5 -37.5q0 -29 -22.5 -56.5t-55.5 -27.5q-24 0 -38 14.5t-14 38.5zM407 44q0 28 24 55t54 27q23 0 37.5 -13.5
t14.5 -37.5q0 -29 -22.5 -56.5t-55.5 -27.5q-24 0 -38 14.5t-14 38.5z" />
    <glyph glyph-name="perthousand" unicode="&#x2030;" horiz-adv-x="738" 
d="M66 464q0 -21 15 -36t36 -15t35.5 15t14.5 36t-14.5 35.5t-35.5 14.5t-36 -14.5t-15 -35.5zM1 464q0 48 34 82t82 34t82 -34t34 -82t-34 -82t-82 -34t-82 34t-34 82zM309 117q0 -21 15 -36t36 -15t35.5 15t14.5 36t-14.5 35.5t-35.5 14.5t-36 -14.5t-15 -35.5zM244 117
q0 48 34 82t82 34t82 -34t34 -82t-34 -82t-82 -34t-82 34t-34 82zM569 117q0 -21 15 -36t36 -15t35.5 15t14.5 36t-14.5 35.5t-35.5 14.5t-36 -14.5t-15 -35.5zM504 117q0 48 34 82t82 34t82 -34t34 -82t-34 -82t-82 -34t-82 34t-34 82zM479 632q0 -9 -12 -30l-356 -594
q-4 -14 -22 -14h-35q-34 0 -34 16q0 5 5 17l362 615q6 15 22 15q27 0 48.5 -7t21.5 -18z" />
    <glyph glyph-name="guilsinglleft" unicode="&#x2039;" horiz-adv-x="341" 
d="M238 593q18 16 31 16t32.5 -20t19.5 -35q0 -10 -16 -26q-108 -98 -151 -144q-26 -28 -26 -50q0 -18 22 -42q52 -57 156 -155q15 -14 15 -26q0 -14 -18.5 -34t-33.5 -20q-13 0 -26 11q-103 92 -179 173q-14 15 -20.5 23.5t-15 28t-8.5 40.5q0 8 1 16t2 13t4.5 12.5
t4.5 10.5t7 11l7.5 10t10 12.5t10.5 12.5q33 40 171 162z" />
    <glyph glyph-name="guilsinglright" unicode="&#x203a;" horiz-adv-x="341" 
d="M103 593q138 -122 171 -162q3 -3 9.5 -11.5t8.5 -11t7 -9t7 -10t5.5 -9.5t4.5 -10t2.5 -10.5t2 -13t0.5 -13.5q0 -21 -8.5 -40.5t-15 -28t-20.5 -23.5q-76 -81 -179 -173q-13 -11 -26 -11q-15 0 -33.5 20t-18.5 34q0 12 15 26q104 98 156 155q22 24 22 42q0 22 -26 50
q-43 46 -151 144q-16 16 -16 26q0 15 19.5 35t32.5 20t31 -16z" />
    <glyph glyph-name="fraction" unicode="&#x2044;" horiz-adv-x="232" 
d="M363 679q0 -9 -6 -23l-288 -648q-6 -14 -22 -14h-42q-34 0 -34 16q0 5 5 17l287 659q6 15 22 15q27 0 52.5 -6.5t25.5 -15.5z" />
    <glyph glyph-name="Euro" unicode="&#x20ac;" horiz-adv-x="523" 
d="M402 593q-49 0 -103.5 -55.5t-76.5 -123.5h119q18 0 18 -14q0 -12 -12 -35t-23 -23h-118q-7 -35 -8 -62h123q18 0 18 -14q0 -12 -12 -35t-23 -23h-109q0 -56 39 -96.5t101 -40.5q61 0 123 56q16 15 25 15q14 0 14 -14q0 -34 -61 -86t-156 -52q-94 0 -159 57.5t-70 160.5
h-42q-15 0 -15 16q0 13 10.5 34.5t21.5 21.5h27q2 23 10 62h-34q-15 0 -15 16q0 13 10.5 34.5t21.5 21.5h37q42 112 136 180.5t201 68.5q75 0 115.5 -32.5t40.5 -79.5t-49 -91.5t-81 -44.5q-16 0 -16 17q0 2 11 36.5t11 67.5q0 57 -50 57z" />
    <glyph glyph-name="trademark" unicode="&#x2122;" horiz-adv-x="598" 
d="M524 306q-3 69 -5.5 116.5t-4 67t-1.5 30.5q-12 -37 -38.5 -108t-37.5 -106q-2 -7 -9 -7h-30q-8 0 -8 7q-71 208 -71 209l-13 -209q0 -8 -8 -8h-38q-9 0 -9 9l20 307q0 8 10 8h51q8 0 8 -4q68 -198 76 -224q6 22 78 224q0 4 9 4h50q9 0 9 -8l20 -307q0 -9 -10 -9h-38
q-10 0 -10 8zM105 570h-84q-10 0 -10 10v34q0 8 10 8h226q9 0 9 -8v-34q0 -10 -9 -10h-85v-263q0 -9 -8 -9h-41q-8 0 -8 9v263z" />
    <glyph glyph-name="minus" unicode="&#x2212;" horiz-adv-x="460" 
d="M400 243h-365q-15 0 -15 16q0 13 15.5 44.5t26.5 31.5h365q18 0 18 -14q0 -12 -17 -45t-28 -33z" />
    <glyph glyph-name="integral" unicode="&#x222b;" horiz-adv-x="308" 
d="M201 627v-488q0 -81 -32 -117t-98 -36q-31 0 -46.5 13.5t-15.5 30.5q0 15 9 24.5t24 9.5q6 0 11 -2t7 -3.5t6 -7.5t5 -7q3 -7 7 -7q7 0 14 13t7 34v469q0 78 42 125t99 47q23 0 37 -14t14 -31q0 -15 -9 -24.5t-24 -9.5q-21 0 -29 21q-2 7 -7 7q-7 0 -14 -13t-7 -34z" />
    <glyph glyph-name="approxequal" unicode="&#x2248;" horiz-adv-x="432" 
d="M109 349q-51 0 -74 -22q-10 -10 -14 -10q-12 0 -12 11q0 20 14 42q11 18 20 28t27 18.5t43 8.5q36 0 103 -27t102 -27q43 0 72 23q13 11 18 11q12 0 12 -11q0 -13 -22 -44q-19 -28 -37 -41.5t-47 -13.5t-102 27t-103 27zM110 209q-51 0 -74 -22q-10 -10 -14 -10
q-12 0 -12 11q0 20 14 42q11 18 20 28t27 18.5t43 8.5q36 0 103 -27t102 -27q43 0 72 23q13 11 18 11q12 0 12 -11q0 -13 -22 -44q-19 -28 -37 -41.5t-47 -13.5t-102 27t-103 27z" />
    <glyph glyph-name="notequal" unicode="&#x2260;" horiz-adv-x="503" 
d="M263 195l-81 -187q-4 -14 -22 -14q-51 0 -61 13q-5 7 -5 13q0 5 5 17l68 158h-131q-15 0 -15 16q0 13 10.5 34.5t21.5 21.5h144l32 76h-137q-15 0 -15 16q0 13 10.5 34.5t21.5 21.5h151l67 161q6 15 22 15q27 0 47 -5.5t20 -13.5q0 -14 -9 -36l-51 -121h118q18 0 18 -14
q0 -12 -12 -35t-23 -23h-131l-33 -76h125q18 0 18 -14q0 -12 -12 -35t-23 -23h-138z" />
    <glyph glyph-name="lessequal" unicode="&#x2264;" horiz-adv-x="492" 
d="M127 367q223 160 230 160q11 0 20 -26t9 -40q0 -10 -9 -17l-170 -114l168 -110q9 -6 9 -19t-7.5 -39.5t-19.5 -26.5q-3 0 -62.5 39.5t-116.5 79.5l-58 40q-15 12 -15 35q0 19 22 38zM413 0h-365q-15 0 -15 16q0 13 15.5 44.5t26.5 31.5h365q18 0 18 -14q0 -12 -17 -45
t-28 -33z" />
    <glyph glyph-name="greaterequal" unicode="&#x2265;" horiz-adv-x="478" 
d="M364 367q22 -19 22 -38q0 -23 -15 -35q-230 -159 -237 -159q-12 0 -19.5 26.5t-7.5 39.5t9 19l168 110l-170 114q-9 7 -9 17q0 14 9 40t20 26q3 0 60.5 -40t113.5 -80zM413 0h-365q-15 0 -15 16q0 13 15.5 44.5t26.5 31.5h365q18 0 18 -14q0 -12 -17 -45t-28 -33z" />
    <glyph glyph-name="a.01" unicode="&#xe004;" horiz-adv-x="967" 
d="M854 -26q-18 0 -18 18q0 3 15 29t15 49q0 32 -20.5 51.5t-58.5 19.5q-52 0 -117.5 -23.5t-117 -52t-112.5 -52t-105 -23.5q-43 0 -71.5 22t-33.5 63q-7 -10 -20.5 -24t-50.5 -37.5t-71 -23.5q-41 0 -70.5 29.5t-29.5 74.5q0 108 73.5 202.5t156.5 94.5q36 0 63 -11.5
t37 -23.5l9 -12q27 0 49 -11.5t22 -35.5q0 -10 -29 -91.5t-29 -120.5q0 -12 7.5 -20t20.5 -8q32 0 90.5 33.5t114.5 73.5t128.5 73.5t129.5 33.5q61 0 98.5 -35t37.5 -89q0 -34 -15.5 -68t-36 -56t-38 -35.5t-23.5 -13.5zM275 290q0 21 -10 32t-26 11q-42 0 -85.5 -78
t-43.5 -144q0 -45 29 -45q36 0 86 83t50 141z" />
    <glyph glyph-name="a.01_acute" unicode="&#xe005;" horiz-adv-x="967" 
d="M854 -26q-18 0 -18 18q0 3 15 29t15 49q0 32 -20.5 51.5t-58.5 19.5q-52 0 -117.5 -23.5t-117 -52t-112.5 -52t-105 -23.5q-43 0 -71.5 22t-33.5 63q-7 -10 -20.5 -24t-50.5 -37.5t-71 -23.5q-41 0 -70.5 29.5t-29.5 74.5q0 108 73.5 202.5t156.5 94.5q36 0 63 -11.5
t37 -23.5l9 -12q27 0 49 -11.5t22 -35.5q0 -10 -29 -91.5t-29 -120.5q0 -12 7.5 -20t20.5 -8q32 0 90.5 33.5t114.5 73.5t128.5 73.5t129.5 33.5q61 0 98.5 -35t37.5 -89q0 -34 -15.5 -68t-36 -56t-38 -35.5t-23.5 -13.5zM275 290q0 21 -10 32t-26 11q-42 0 -85.5 -78
t-43.5 -144q0 -45 29 -45q36 0 86 83t50 141zM379 595q12 0 31.5 -25t19.5 -41q0 -22 -24 -42q-29 -25 -73.5 -39.5t-72.5 -14.5q-18 0 -18 15q0 10 16 19q46 28 97 108q12 20 24 20z" />
    <glyph glyph-name="a.01_breve" unicode="&#xe006;" horiz-adv-x="967" 
d="M854 -26q-18 0 -18 18q0 3 15 29t15 49q0 32 -20.5 51.5t-58.5 19.5q-52 0 -117.5 -23.5t-117 -52t-112.5 -52t-105 -23.5q-43 0 -71.5 22t-33.5 63q-7 -10 -20.5 -24t-50.5 -37.5t-71 -23.5q-41 0 -70.5 29.5t-29.5 74.5q0 108 73.5 202.5t156.5 94.5q36 0 63 -11.5
t37 -23.5l9 -12q27 0 49 -11.5t22 -35.5q0 -10 -29 -91.5t-29 -120.5q0 -12 7.5 -20t20.5 -8q32 0 90.5 33.5t114.5 73.5t128.5 73.5t129.5 33.5q61 0 98.5 -35t37.5 -89q0 -34 -15.5 -68t-36 -56t-38 -35.5t-23.5 -13.5zM275 290q0 21 -10 32t-26 11q-42 0 -85.5 -78
t-43.5 -144q0 -45 29 -45q36 0 86 83t50 141zM282 424q-56 0 -91 27.5t-35 74.5q0 26 16.5 41.5t38.5 15.5q31 0 31 -31q0 -10 -4.5 -19t-4.5 -17q0 -14 15.5 -22.5t40.5 -8.5q33 0 49.5 13.5t16.5 34.5q0 48 44 48q18 0 29 -10.5t11 -28.5q0 -26 -19 -54q-45 -64 -138 -64z
" />
    <glyph glyph-name="a.01_circumflex" unicode="&#xe007;" horiz-adv-x="967" 
d="M854 -26q-18 0 -18 18q0 3 15 29t15 49q0 32 -20.5 51.5t-58.5 19.5q-52 0 -117.5 -23.5t-117 -52t-112.5 -52t-105 -23.5q-43 0 -71.5 22t-33.5 63q-7 -10 -20.5 -24t-50.5 -37.5t-71 -23.5q-41 0 -70.5 29.5t-29.5 74.5q0 108 73.5 202.5t156.5 94.5q36 0 63 -11.5
t37 -23.5l9 -12q27 0 49 -11.5t22 -35.5q0 -10 -29 -91.5t-29 -120.5q0 -12 7.5 -20t20.5 -8q32 0 90.5 33.5t114.5 73.5t128.5 73.5t129.5 33.5q61 0 98.5 -35t37.5 -89q0 -34 -15.5 -68t-36 -56t-38 -35.5t-23.5 -13.5zM275 290q0 21 -10 32t-26 11q-42 0 -85.5 -78
t-43.5 -144q0 -45 29 -45q36 0 86 83t50 141zM279 487q-4 0 -14 -6q-96 -54 -119 -54q-7 0 -12.5 5.5t-5.5 11.5q0 13 16 24q56 38 98 83q2 2 5.5 6.5t5 6.5t5 5.5l5.5 5.5t5.5 4t7 3t7.5 2t9 1q10 0 16.5 -3.5t9 -7t7 -12.5t8.5 -15q30 -49 66 -78q18 -12 18 -23
q0 -7 -5.5 -13t-13.5 -6q-12 0 -43 13.5t-65 40.5q-6 6 -11 6z" />
    <glyph glyph-name="a.01_dieresis" unicode="&#xe008;" horiz-adv-x="967" 
d="M854 -26q-18 0 -18 18q0 3 15 29t15 49q0 32 -20.5 51.5t-58.5 19.5q-52 0 -117.5 -23.5t-117 -52t-112.5 -52t-105 -23.5q-43 0 -71.5 22t-33.5 63q-7 -10 -20.5 -24t-50.5 -37.5t-71 -23.5q-41 0 -70.5 29.5t-29.5 74.5q0 108 73.5 202.5t156.5 94.5q36 0 63 -11.5
t37 -23.5l9 -12q27 0 49 -11.5t22 -35.5q0 -10 -29 -91.5t-29 -120.5q0 -12 7.5 -20t20.5 -8q32 0 90.5 33.5t114.5 73.5t128.5 73.5t129.5 33.5q61 0 98.5 -35t37.5 -89q0 -34 -15.5 -68t-36 -56t-38 -35.5t-23.5 -13.5zM275 290q0 21 -10 32t-26 11q-42 0 -85.5 -78
t-43.5 -144q0 -45 29 -45q36 0 86 83t50 141zM125 486q0 27 21 52t48 25q19 0 30.5 -13.5t11.5 -34.5q0 -28 -20.5 -53t-50.5 -25q-17 0 -28.5 14t-11.5 35zM270 486q0 27 21 52t48 25q19 0 30.5 -13.5t11.5 -34.5q0 -28 -20.5 -53t-50.5 -25q-17 0 -28.5 14t-11.5 35z" />
    <glyph glyph-name="a.01_grave" unicode="&#xe009;" horiz-adv-x="967" 
d="M854 -26q-18 0 -18 18q0 3 15 29t15 49q0 32 -20.5 51.5t-58.5 19.5q-52 0 -117.5 -23.5t-117 -52t-112.5 -52t-105 -23.5q-43 0 -71.5 22t-33.5 63q-7 -10 -20.5 -24t-50.5 -37.5t-71 -23.5q-41 0 -70.5 29.5t-29.5 74.5q0 108 73.5 202.5t156.5 94.5q36 0 63 -11.5
t37 -23.5l9 -12q27 0 49 -11.5t22 -35.5q0 -10 -29 -91.5t-29 -120.5q0 -12 7.5 -20t20.5 -8q32 0 90.5 33.5t114.5 73.5t128.5 73.5t129.5 33.5q61 0 98.5 -35t37.5 -89q0 -34 -15.5 -68t-36 -56t-38 -35.5t-23.5 -13.5zM275 290q0 21 -10 32t-26 11q-42 0 -85.5 -78
t-43.5 -144q0 -45 29 -45q36 0 86 83t50 141zM249 594q16 0 24 -20q14 -35 41.5 -72t49.5 -50q16 -9 16 -19q0 -15 -18 -15q-23 0 -66.5 20.5t-74.5 47.5q-24 20 -24 42q0 16 20 41t32 25z" />
    <glyph glyph-name="a.01_macron" unicode="&#xe00a;" horiz-adv-x="967" 
d="M854 -26q-18 0 -18 18q0 3 15 29t15 49q0 32 -20.5 51.5t-58.5 19.5q-52 0 -117.5 -23.5t-117 -52t-112.5 -52t-105 -23.5q-43 0 -71.5 22t-33.5 63q-7 -10 -20.5 -24t-50.5 -37.5t-71 -23.5q-41 0 -70.5 29.5t-29.5 74.5q0 108 73.5 202.5t156.5 94.5q36 0 63 -11.5
t37 -23.5l9 -12q27 0 49 -11.5t22 -35.5q0 -10 -29 -91.5t-29 -120.5q0 -12 7.5 -20t20.5 -8q32 0 90.5 33.5t114.5 73.5t128.5 73.5t129.5 33.5q61 0 98.5 -35t37.5 -89q0 -34 -15.5 -68t-36 -56t-38 -35.5t-23.5 -13.5zM275 290q0 21 -10 32t-26 11q-42 0 -85.5 -78
t-43.5 -144q0 -45 29 -45q36 0 86 83t50 141zM399 429h-255q-16 0 -16 16q0 14 9.5 37t21.5 23h255q11 0 15 -3t4 -12q0 -14 -11 -37.5t-23 -23.5z" />
    <glyph glyph-name="a.01_ogonek" unicode="&#xe00b;" horiz-adv-x="967" 
d="M854 -26q-18 0 -18 18q0 3 15 29t15 49q0 32 -20.5 51.5t-58.5 19.5q-49 0 -109 -20.5t-108 -46t-105.5 -50.5t-99.5 -31q-40 -29 -40 -56q0 -20 21 -36t56 -16q17 0 17 -10t-15 -25q-37 -39 -74 -39q-28 0 -56 30.5t-28 63.5q0 51 54 90q-29 7 -47.5 27.5t-22.5 52.5
q-7 -10 -20.5 -24t-50.5 -37.5t-71 -23.5q-41 0 -70.5 29.5t-29.5 74.5q0 108 73.5 202.5t156.5 94.5q36 0 63 -11.5t37 -23.5l9 -12q27 0 49 -11.5t22 -35.5q0 -10 -29 -91.5t-29 -120.5q0 -12 7.5 -20t20.5 -8q32 0 90.5 33.5t114.5 73.5t128.5 73.5t129.5 33.5
q61 0 98.5 -35t37.5 -89q0 -34 -15.5 -68t-36 -56t-38 -35.5t-23.5 -13.5zM275 290q0 21 -10 32t-26 11q-42 0 -85.5 -78t-43.5 -144q0 -45 29 -45q36 0 86 83t50 141z" />
    <glyph glyph-name="a.01_ring" unicode="&#xe00c;" horiz-adv-x="967" 
d="M854 -26q-18 0 -18 18q0 3 15 29t15 49q0 32 -20.5 51.5t-58.5 19.5q-52 0 -117.5 -23.5t-117 -52t-112.5 -52t-105 -23.5q-43 0 -71.5 22t-33.5 63q-7 -10 -20.5 -24t-50.5 -37.5t-71 -23.5q-41 0 -70.5 29.5t-29.5 74.5q0 108 73.5 202.5t156.5 94.5q36 0 63 -11.5
t37 -23.5l9 -12q27 0 49 -11.5t22 -35.5q0 -10 -29 -91.5t-29 -120.5q0 -12 7.5 -20t20.5 -8q32 0 90.5 33.5t114.5 73.5t128.5 73.5t129.5 33.5q61 0 98.5 -35t37.5 -89q0 -34 -15.5 -68t-36 -56t-38 -35.5t-23.5 -13.5zM275 290q0 21 -10 32t-26 11q-42 0 -85.5 -78
t-43.5 -144q0 -45 29 -45q36 0 86 83t50 141zM269 530q0 -18 13 -31t31 -13t30 13t12 31t-12 30t-30 12t-31 -12t-13 -30zM209 530q0 44 30.5 74t73.5 30t73.5 -30t30.5 -74t-30.5 -74t-73.5 -30t-73.5 30t-30.5 74z" />
    <glyph glyph-name="a.01_tilde" unicode="&#xe00d;" horiz-adv-x="967" 
d="M854 -26q-18 0 -18 18q0 3 15 29t15 49q0 32 -20.5 51.5t-58.5 19.5q-52 0 -117.5 -23.5t-117 -52t-112.5 -52t-105 -23.5q-43 0 -71.5 22t-33.5 63q-7 -10 -20.5 -24t-50.5 -37.5t-71 -23.5q-41 0 -70.5 29.5t-29.5 74.5q0 108 73.5 202.5t156.5 94.5q36 0 63 -11.5
t37 -23.5l9 -12q27 0 49 -11.5t22 -35.5q0 -10 -29 -91.5t-29 -120.5q0 -12 7.5 -20t20.5 -8q32 0 90.5 33.5t114.5 73.5t128.5 73.5t129.5 33.5q61 0 98.5 -35t37.5 -89q0 -34 -15.5 -68t-36 -56t-38 -35.5t-23.5 -13.5zM275 290q0 21 -10 32t-26 11q-42 0 -85.5 -78
t-43.5 -144q0 -45 29 -45q36 0 86 83t50 141zM374 422q-24 0 -88 18t-87 18q-14 0 -36 -10t-25 -10q-13 0 -13 13q0 8 11 23q16 22 41.5 42t49.5 20t83 -19t84 -19q19 0 42.5 11.5t26.5 11.5q13 0 13 -10q0 -9 -6 -19q-49 -70 -96 -70z" />
    <glyph glyph-name="a.02" unicode="&#xe00e;" horiz-adv-x="1049" 
d="M387 50q50 0 113.5 26.5t114 58t113.5 58t114 26.5q50 0 92 -29.5t65 -69t35 -73t12 -48.5q0 -9 -10 -9q-4 0 -12 10q-68 84 -216 84q-90 0 -229.5 -47t-221.5 -47q-53 0 -89.5 28t-37.5 57q-7 -10 -20.5 -24t-50.5 -37.5t-71 -23.5q-41 0 -70.5 29.5t-29.5 74.5
q0 108 73.5 202.5t156.5 94.5q36 0 63 -11.5t37 -23.5l9 -12q27 0 49 -11.5t22 -35.5q0 -12 -29 -90.5t-29 -110.5q0 -46 47 -46zM275 290q0 21 -10 32t-26 11q-42 0 -85.5 -78t-43.5 -144q0 -45 29 -45q36 0 86 83t50 141z" />
    <glyph glyph-name="a.02_acute" unicode="&#xe00f;" horiz-adv-x="1049" 
d="M387 50q50 0 113.5 26.5t114 58t113.5 58t114 26.5q50 0 92 -29.5t65 -69t35 -73t12 -48.5q0 -9 -10 -9q-4 0 -12 10q-68 84 -216 84q-90 0 -229.5 -47t-221.5 -47q-53 0 -89.5 28t-37.5 57q-7 -10 -20.5 -24t-50.5 -37.5t-71 -23.5q-41 0 -70.5 29.5t-29.5 74.5
q0 108 73.5 202.5t156.5 94.5q36 0 63 -11.5t37 -23.5l9 -12q27 0 49 -11.5t22 -35.5q0 -12 -29 -90.5t-29 -110.5q0 -46 47 -46zM275 290q0 21 -10 32t-26 11q-42 0 -85.5 -78t-43.5 -144q0 -45 29 -45q36 0 86 83t50 141zM384 589q12 0 31.5 -25t19.5 -41q0 -22 -24 -42
q-29 -25 -73.5 -39.5t-72.5 -14.5q-18 0 -18 15q0 10 16 19q46 28 97 108q12 20 24 20z" />
    <glyph glyph-name="a.02_breve" unicode="&#xe010;" horiz-adv-x="1049" 
d="M387 50q50 0 113.5 26.5t114 58t113.5 58t114 26.5q50 0 92 -29.5t65 -69t35 -73t12 -48.5q0 -9 -10 -9q-4 0 -12 10q-68 84 -216 84q-90 0 -229.5 -47t-221.5 -47q-53 0 -89.5 28t-37.5 57q-7 -10 -20.5 -24t-50.5 -37.5t-71 -23.5q-41 0 -70.5 29.5t-29.5 74.5
q0 108 73.5 202.5t156.5 94.5q36 0 63 -11.5t37 -23.5l9 -12q27 0 49 -11.5t22 -35.5q0 -12 -29 -90.5t-29 -110.5q0 -46 47 -46zM275 290q0 21 -10 32t-26 11q-42 0 -85.5 -78t-43.5 -144q0 -45 29 -45q36 0 86 83t50 141zM340 424q-56 0 -91 27.5t-35 74.5q0 26 16.5 41.5
t38.5 15.5q31 0 31 -31q0 -10 -4.5 -19t-4.5 -17q0 -14 15.5 -22.5t40.5 -8.5q33 0 49.5 13.5t16.5 34.5q0 48 44 48q18 0 29 -10.5t11 -28.5q0 -26 -19 -54q-45 -64 -138 -64z" />
    <glyph glyph-name="a.02_circumflex" unicode="&#xe011;" horiz-adv-x="1049" 
d="M387 50q50 0 113.5 26.5t114 58t113.5 58t114 26.5q50 0 92 -29.5t65 -69t35 -73t12 -48.5q0 -9 -10 -9q-4 0 -12 10q-68 84 -216 84q-90 0 -229.5 -47t-221.5 -47q-53 0 -89.5 28t-37.5 57q-7 -10 -20.5 -24t-50.5 -37.5t-71 -23.5q-41 0 -70.5 29.5t-29.5 74.5
q0 108 73.5 202.5t156.5 94.5q36 0 63 -11.5t37 -23.5l9 -12q27 0 49 -11.5t22 -35.5q0 -12 -29 -90.5t-29 -110.5q0 -46 47 -46zM275 290q0 21 -10 32t-26 11q-42 0 -85.5 -78t-43.5 -144q0 -45 29 -45q36 0 86 83t50 141zM287 481q-4 0 -14 -6q-96 -54 -119 -54
q-7 0 -12.5 5.5t-5.5 11.5q0 13 16 24q56 38 98 83q2 2 5.5 6.5t5 6.5t5 5.5l5.5 5.5t5.5 4t7 3t7.5 2t9 1q10 0 16.5 -3.5t9 -7t7 -12.5t8.5 -15q30 -49 66 -78q18 -12 18 -23q0 -7 -5.5 -13t-13.5 -6q-12 0 -43 13.5t-65 40.5q-6 6 -11 6z" />
    <glyph glyph-name="a.02_dieresis" unicode="&#xe012;" horiz-adv-x="1049" 
d="M387 50q50 0 113.5 26.5t114 58t113.5 58t114 26.5q50 0 92 -29.5t65 -69t35 -73t12 -48.5q0 -9 -10 -9q-4 0 -12 10q-68 84 -216 84q-90 0 -229.5 -47t-221.5 -47q-53 0 -89.5 28t-37.5 57q-7 -10 -20.5 -24t-50.5 -37.5t-71 -23.5q-41 0 -70.5 29.5t-29.5 74.5
q0 108 73.5 202.5t156.5 94.5q36 0 63 -11.5t37 -23.5l9 -12q27 0 49 -11.5t22 -35.5q0 -12 -29 -90.5t-29 -110.5q0 -46 47 -46zM275 290q0 21 -10 32t-26 11q-42 0 -85.5 -78t-43.5 -144q0 -45 29 -45q36 0 86 83t50 141zM159 484q0 27 21 52t48 25q19 0 30.5 -13.5
t11.5 -34.5q0 -28 -20.5 -53t-50.5 -25q-17 0 -28.5 14t-11.5 35zM304 484q0 27 21 52t48 25q19 0 30.5 -13.5t11.5 -34.5q0 -28 -20.5 -53t-50.5 -25q-17 0 -28.5 14t-11.5 35z" />
    <glyph glyph-name="a.02_grave" unicode="&#xe013;" horiz-adv-x="1049" 
d="M387 50q50 0 113.5 26.5t114 58t113.5 58t114 26.5q50 0 92 -29.5t65 -69t35 -73t12 -48.5q0 -9 -10 -9q-4 0 -12 10q-68 84 -216 84q-90 0 -229.5 -47t-221.5 -47q-53 0 -89.5 28t-37.5 57q-7 -10 -20.5 -24t-50.5 -37.5t-71 -23.5q-41 0 -70.5 29.5t-29.5 74.5
q0 108 73.5 202.5t156.5 94.5q36 0 63 -11.5t37 -23.5l9 -12q27 0 49 -11.5t22 -35.5q0 -12 -29 -90.5t-29 -110.5q0 -46 47 -46zM275 290q0 21 -10 32t-26 11q-42 0 -85.5 -78t-43.5 -144q0 -45 29 -45q36 0 86 83t50 141zM247 604q16 0 24 -20q14 -35 41.5 -72t49.5 -50
q16 -9 16 -19q0 -15 -18 -15q-23 0 -66.5 20.5t-74.5 47.5q-24 20 -24 42q0 16 20 41t32 25z" />
    <glyph glyph-name="a.02_macron" unicode="&#xe014;" horiz-adv-x="1049" 
d="M387 50q50 0 113.5 26.5t114 58t113.5 58t114 26.5q50 0 92 -29.5t65 -69t35 -73t12 -48.5q0 -9 -10 -9q-4 0 -12 10q-68 84 -216 84q-90 0 -229.5 -47t-221.5 -47q-53 0 -89.5 28t-37.5 57q-7 -10 -20.5 -24t-50.5 -37.5t-71 -23.5q-41 0 -70.5 29.5t-29.5 74.5
q0 108 73.5 202.5t156.5 94.5q36 0 63 -11.5t37 -23.5l9 -12q27 0 49 -11.5t22 -35.5q0 -12 -29 -90.5t-29 -110.5q0 -46 47 -46zM275 290q0 21 -10 32t-26 11q-42 0 -85.5 -78t-43.5 -144q0 -45 29 -45q36 0 86 83t50 141zM446 437h-255q-16 0 -16 16q0 14 9.5 37t21.5 23
h255q11 0 15 -3t4 -12q0 -14 -11 -37.5t-23 -23.5z" />
    <glyph glyph-name="a.02_ogonek" unicode="&#xe015;" horiz-adv-x="1049" 
d="M387 50q50 0 113.5 26.5t114 58t113.5 58t114 26.5q50 0 92 -29.5t65 -69t35 -73t12 -48.5q0 -9 -10 -9q-4 0 -12 10q-68 84 -216 84q-72 0 -146 -21.5t-146.5 -45t-135.5 -26.5q-46 -30 -46 -60q0 -20 21 -36t56 -16q17 0 17 -10t-15 -25q-37 -39 -74 -39
q-28 0 -56 30.5t-28 63.5q0 55 63 96q-38 8 -62.5 32.5t-25.5 47.5q-7 -10 -20.5 -24t-50.5 -37.5t-71 -23.5q-41 0 -70.5 29.5t-29.5 74.5q0 108 73.5 202.5t156.5 94.5q36 0 63 -11.5t37 -23.5l9 -12q27 0 49 -11.5t22 -35.5q0 -12 -29 -90.5t-29 -110.5q0 -46 47 -46z
M275 290q0 21 -10 32t-26 11q-42 0 -85.5 -78t-43.5 -144q0 -45 29 -45q36 0 86 83t50 141z" />
    <glyph glyph-name="a.02_ring" unicode="&#xe016;" horiz-adv-x="1049" 
d="M387 50q50 0 113.5 26.5t114 58t113.5 58t114 26.5q50 0 92 -29.5t65 -69t35 -73t12 -48.5q0 -9 -10 -9q-4 0 -12 10q-68 84 -216 84q-90 0 -229.5 -47t-221.5 -47q-53 0 -89.5 28t-37.5 57q-7 -10 -20.5 -24t-50.5 -37.5t-71 -23.5q-41 0 -70.5 29.5t-29.5 74.5
q0 108 73.5 202.5t156.5 94.5q36 0 63 -11.5t37 -23.5l9 -12q27 0 49 -11.5t22 -35.5q0 -12 -29 -90.5t-29 -110.5q0 -46 47 -46zM275 290q0 21 -10 32t-26 11q-42 0 -85.5 -78t-43.5 -144q0 -45 29 -45q36 0 86 83t50 141zM292 519q0 -18 13 -31t31 -13t30 13t12 31t-12 30
t-30 12t-31 -12t-13 -30zM232 519q0 43 30 73.5t74 30.5t74 -30.5t30 -73.5t-30 -73.5t-74 -30.5t-74 30.5t-30 73.5z" />
    <glyph glyph-name="a.02_tilde" unicode="&#xe017;" horiz-adv-x="1049" 
d="M387 50q50 0 113.5 26.5t114 58t113.5 58t114 26.5q50 0 92 -29.5t65 -69t35 -73t12 -48.5q0 -9 -10 -9q-4 0 -12 10q-68 84 -216 84q-90 0 -229.5 -47t-221.5 -47q-53 0 -89.5 28t-37.5 57q-7 -10 -20.5 -24t-50.5 -37.5t-71 -23.5q-41 0 -70.5 29.5t-29.5 74.5
q0 108 73.5 202.5t156.5 94.5q36 0 63 -11.5t37 -23.5l9 -12q27 0 49 -11.5t22 -35.5q0 -12 -29 -90.5t-29 -110.5q0 -46 47 -46zM275 290q0 21 -10 32t-26 11q-42 0 -85.5 -78t-43.5 -144q0 -45 29 -45q36 0 86 83t50 141zM390 420q-24 0 -88 18t-87 18q-14 0 -36 -10
t-25 -10q-13 0 -13 13q0 8 11 23q16 22 41.5 42t49.5 20t83 -19t84 -19q19 0 42.5 11.5t26.5 11.5q13 0 13 -10q0 -9 -6 -19q-49 -70 -96 -70z" />
    <glyph glyph-name="a.03" unicode="&#xe018;" horiz-adv-x="475" 
d="M275 290q0 21 -10 32t-26 11q-42 0 -85.5 -78t-43.5 -144q0 -45 29 -45q36 0 86 83t50 141zM616 95q-30 0 -129 -52.5t-152 -52.5q-43 0 -71.5 22t-33.5 63q-7 -10 -20.5 -24t-50.5 -37.5t-71 -23.5q-41 0 -70.5 29.5t-29.5 74.5q0 108 73.5 202.5t156.5 94.5
q36 0 63 -11.5t37 -23.5l9 -12q27 0 49 -11.5t22 -35.5q0 -10 -29 -91.5t-29 -120.5q0 -12 7.5 -20t20.5 -8q21 0 67 29.5t105.5 59.5t112.5 30q43 0 195.5 -30t281.5 -30q53 0 99 15.5t63.5 27.5t43.5 33q12 10 18 10q4 0 8 -4t4 -8q0 -7 -7 -18q-123 -190 -269 -190
q-57 0 -141.5 28t-174 56.5t-158.5 28.5z" />
    <glyph glyph-name="a.03_acute" unicode="&#xe019;" horiz-adv-x="1366" 
d="M275 290q0 21 -10 32t-26 11q-42 0 -85.5 -78t-43.5 -144q0 -45 29 -45q36 0 86 83t50 141zM616 95q-30 0 -129 -52.5t-152 -52.5q-43 0 -71.5 22t-33.5 63q-7 -10 -20.5 -24t-50.5 -37.5t-71 -23.5q-41 0 -70.5 29.5t-29.5 74.5q0 108 73.5 202.5t156.5 94.5
q36 0 63 -11.5t37 -23.5l9 -12q27 0 49 -11.5t22 -35.5q0 -10 -29 -91.5t-29 -120.5q0 -12 7.5 -20t20.5 -8q21 0 67 29.5t105.5 59.5t112.5 30q43 0 195.5 -30t281.5 -30q53 0 99 15.5t63.5 27.5t43.5 33q12 10 18 10q4 0 8 -4t4 -8q0 -7 -7 -18q-123 -190 -269 -190
q-57 0 -141.5 28t-174 56.5t-158.5 28.5zM405 593q12 0 31.5 -25t19.5 -41q0 -22 -24 -42q-29 -25 -73.5 -39.5t-72.5 -14.5q-18 0 -18 15q0 10 16 19q46 28 97 108q12 20 24 20z" />
    <glyph glyph-name="a.03_breve" unicode="&#xe01a;" horiz-adv-x="1366" 
d="M275 290q0 21 -10 32t-26 11q-42 0 -85.5 -78t-43.5 -144q0 -45 29 -45q36 0 86 83t50 141zM616 95q-30 0 -129 -52.5t-152 -52.5q-43 0 -71.5 22t-33.5 63q-7 -10 -20.5 -24t-50.5 -37.5t-71 -23.5q-41 0 -70.5 29.5t-29.5 74.5q0 108 73.5 202.5t156.5 94.5
q36 0 63 -11.5t37 -23.5l9 -12q27 0 49 -11.5t22 -35.5q0 -10 -29 -91.5t-29 -120.5q0 -12 7.5 -20t20.5 -8q21 0 67 29.5t105.5 59.5t112.5 30q43 0 195.5 -30t281.5 -30q53 0 99 15.5t63.5 27.5t43.5 33q12 10 18 10q4 0 8 -4t4 -8q0 -7 -7 -18q-123 -190 -269 -190
q-57 0 -141.5 28t-174 56.5t-158.5 28.5zM291 427q-56 0 -91 27.5t-35 74.5q0 26 16.5 41.5t38.5 15.5q31 0 31 -31q0 -10 -4.5 -19t-4.5 -17q0 -14 15.5 -22.5t40.5 -8.5q33 0 49.5 13.5t16.5 34.5q0 48 44 48q18 0 29 -10.5t11 -28.5q0 -25 -19 -54q-45 -64 -138 -64z" />
    <glyph glyph-name="a.03_circumflex" unicode="&#xe01b;" horiz-adv-x="1370" 
d="M275 290q0 21 -10 32t-26 11q-42 0 -85.5 -78t-43.5 -144q0 -45 29 -45q36 0 86 83t50 141zM616 95q-30 0 -129 -52.5t-152 -52.5q-43 0 -71.5 22t-33.5 63q-7 -10 -20.5 -24t-50.5 -37.5t-71 -23.5q-41 0 -70.5 29.5t-29.5 74.5q0 108 73.5 202.5t156.5 94.5
q36 0 63 -11.5t37 -23.5l9 -12q27 0 49 -11.5t22 -35.5q0 -10 -29 -91.5t-29 -120.5q0 -12 7.5 -20t20.5 -8q21 0 67 29.5t105.5 59.5t112.5 30q43 0 195.5 -30t281.5 -30q53 0 99 15.5t63.5 27.5t43.5 33q12 10 18 10q4 0 8 -4t4 -8q0 -7 -7 -18q-123 -190 -269 -190
q-57 0 -141.5 28t-174 56.5t-158.5 28.5zM305 498q-4 0 -14 -6q-96 -54 -119 -54q-7 0 -12.5 5.5t-5.5 11.5q0 13 16 24q56 38 98 83q2 2 5.5 6.5t5 6.5t5 5.5l5.5 5.5t5.5 4t7 3t7.5 2t9 1q10 0 16.5 -3.5t9 -7t7 -12.5t8.5 -15q30 -49 66 -78q18 -12 18 -23q0 -7 -5.5 -13
t-13.5 -6q-12 0 -43 13.5t-65 40.5q-6 6 -11 6z" />
    <glyph glyph-name="a.03_dieresis" unicode="&#xe01c;" horiz-adv-x="1374" 
d="M275 290q0 21 -10 32t-26 11q-42 0 -85.5 -78t-43.5 -144q0 -45 29 -45q36 0 86 83t50 141zM616 95q-30 0 -129 -52.5t-152 -52.5q-43 0 -71.5 22t-33.5 63q-7 -10 -20.5 -24t-50.5 -37.5t-71 -23.5q-41 0 -70.5 29.5t-29.5 74.5q0 108 73.5 202.5t156.5 94.5
q36 0 63 -11.5t37 -23.5l9 -12q27 0 49 -11.5t22 -35.5q0 -10 -29 -91.5t-29 -120.5q0 -12 7.5 -20t20.5 -8q21 0 67 29.5t105.5 59.5t112.5 30q43 0 195.5 -30t281.5 -30q53 0 99 15.5t63.5 27.5t43.5 33q12 10 18 10q4 0 8 -4t4 -8q0 -7 -7 -18q-123 -190 -269 -190
q-57 0 -141.5 28t-174 56.5t-158.5 28.5zM170 488q0 27 21 52t48 25q19 0 30.5 -13.5t11.5 -34.5q0 -28 -20.5 -53t-50.5 -25q-17 0 -28.5 14t-11.5 35zM315 488q0 27 21 52t48 25q19 0 30.5 -13.5t11.5 -34.5q0 -28 -20.5 -53t-50.5 -25q-17 0 -28.5 14t-11.5 35z" />
    </font>
</defs>
</svg>
